G04 #@! TF.GenerationSoftware,KiCad,Pcbnew,5.1.4+dfsg1-2*
G04 #@! TF.CreationDate,2019-10-25T23:11:50+02:00*
G04 #@! TF.ProjectId,rpi_rpm,7270695f-7270-46d2-9e6b-696361645f70,rev?*
G04 #@! TF.SameCoordinates,Original*
G04 #@! TF.FileFunction,Soldermask,Bot*
G04 #@! TF.FilePolarity,Negative*
%FSLAX46Y46*%
G04 Gerber Fmt 4.6, Leading zero omitted, Abs format (unit mm)*
G04 Created by KiCad (PCBNEW 5.1.4+dfsg1-2) date 2019-10-25 23:11:50*
%MOMM*%
%LPD*%
G04 APERTURE LIST*
%ADD10C,0.150000*%
G04 APERTURE END LIST*
D10*
G36*
X139866823Y-114731313D02*
G01*
X140027242Y-114779976D01*
X140159906Y-114850886D01*
X140175078Y-114858996D01*
X140304659Y-114965341D01*
X140411004Y-115094922D01*
X140411005Y-115094924D01*
X140490024Y-115242758D01*
X140538687Y-115403177D01*
X140555117Y-115570000D01*
X140538687Y-115736823D01*
X140490024Y-115897242D01*
X140419114Y-116029906D01*
X140411004Y-116045078D01*
X140304659Y-116174659D01*
X140175078Y-116281004D01*
X140175076Y-116281005D01*
X140027242Y-116360024D01*
X139866823Y-116408687D01*
X139741804Y-116421000D01*
X139658196Y-116421000D01*
X139533177Y-116408687D01*
X139372758Y-116360024D01*
X139224924Y-116281005D01*
X139224922Y-116281004D01*
X139095341Y-116174659D01*
X138988996Y-116045078D01*
X138980886Y-116029906D01*
X138909976Y-115897242D01*
X138861313Y-115736823D01*
X138844883Y-115570000D01*
X138861313Y-115403177D01*
X138909976Y-115242758D01*
X138988995Y-115094924D01*
X138988996Y-115094922D01*
X139095341Y-114965341D01*
X139224922Y-114858996D01*
X139240094Y-114850886D01*
X139372758Y-114779976D01*
X139533177Y-114731313D01*
X139658196Y-114719000D01*
X139741804Y-114719000D01*
X139866823Y-114731313D01*
X139866823Y-114731313D01*
G37*
G36*
X134786823Y-114731313D02*
G01*
X134947242Y-114779976D01*
X135079906Y-114850886D01*
X135095078Y-114858996D01*
X135224659Y-114965341D01*
X135331004Y-115094922D01*
X135331005Y-115094924D01*
X135410024Y-115242758D01*
X135458687Y-115403177D01*
X135475117Y-115570000D01*
X135458687Y-115736823D01*
X135410024Y-115897242D01*
X135339114Y-116029906D01*
X135331004Y-116045078D01*
X135224659Y-116174659D01*
X135095078Y-116281004D01*
X135095076Y-116281005D01*
X134947242Y-116360024D01*
X134786823Y-116408687D01*
X134661804Y-116421000D01*
X134578196Y-116421000D01*
X134453177Y-116408687D01*
X134292758Y-116360024D01*
X134144924Y-116281005D01*
X134144922Y-116281004D01*
X134015341Y-116174659D01*
X133908996Y-116045078D01*
X133900886Y-116029906D01*
X133829976Y-115897242D01*
X133781313Y-115736823D01*
X133764883Y-115570000D01*
X133781313Y-115403177D01*
X133829976Y-115242758D01*
X133908995Y-115094924D01*
X133908996Y-115094922D01*
X134015341Y-114965341D01*
X134144922Y-114858996D01*
X134160094Y-114850886D01*
X134292758Y-114779976D01*
X134453177Y-114731313D01*
X134578196Y-114719000D01*
X134661804Y-114719000D01*
X134786823Y-114731313D01*
X134786823Y-114731313D01*
G37*
G36*
X167750443Y-112135519D02*
G01*
X167816627Y-112142037D01*
X167986466Y-112193557D01*
X168142991Y-112277222D01*
X168178729Y-112306552D01*
X168280186Y-112389814D01*
X168363448Y-112491271D01*
X168392778Y-112527009D01*
X168476443Y-112683534D01*
X168527963Y-112853373D01*
X168545359Y-113030000D01*
X168527963Y-113206627D01*
X168476443Y-113376466D01*
X168392778Y-113532991D01*
X168363448Y-113568729D01*
X168280186Y-113670186D01*
X168178729Y-113753448D01*
X168142991Y-113782778D01*
X167986466Y-113866443D01*
X167816627Y-113917963D01*
X167750443Y-113924481D01*
X167684260Y-113931000D01*
X167595740Y-113931000D01*
X167529557Y-113924481D01*
X167463373Y-113917963D01*
X167293534Y-113866443D01*
X167137009Y-113782778D01*
X167101271Y-113753448D01*
X166999814Y-113670186D01*
X166916552Y-113568729D01*
X166887222Y-113532991D01*
X166803557Y-113376466D01*
X166752037Y-113206627D01*
X166734641Y-113030000D01*
X166752037Y-112853373D01*
X166803557Y-112683534D01*
X166887222Y-112527009D01*
X166916552Y-112491271D01*
X166999814Y-112389814D01*
X167101271Y-112306552D01*
X167137009Y-112277222D01*
X167293534Y-112193557D01*
X167463373Y-112142037D01*
X167529557Y-112135519D01*
X167595740Y-112129000D01*
X167684260Y-112129000D01*
X167750443Y-112135519D01*
X167750443Y-112135519D01*
G37*
G36*
X165210443Y-112135519D02*
G01*
X165276627Y-112142037D01*
X165446466Y-112193557D01*
X165602991Y-112277222D01*
X165638729Y-112306552D01*
X165740186Y-112389814D01*
X165823448Y-112491271D01*
X165852778Y-112527009D01*
X165936443Y-112683534D01*
X165987963Y-112853373D01*
X166005359Y-113030000D01*
X165987963Y-113206627D01*
X165936443Y-113376466D01*
X165852778Y-113532991D01*
X165823448Y-113568729D01*
X165740186Y-113670186D01*
X165638729Y-113753448D01*
X165602991Y-113782778D01*
X165446466Y-113866443D01*
X165276627Y-113917963D01*
X165210443Y-113924481D01*
X165144260Y-113931000D01*
X165055740Y-113931000D01*
X164989557Y-113924481D01*
X164923373Y-113917963D01*
X164753534Y-113866443D01*
X164597009Y-113782778D01*
X164561271Y-113753448D01*
X164459814Y-113670186D01*
X164376552Y-113568729D01*
X164347222Y-113532991D01*
X164263557Y-113376466D01*
X164212037Y-113206627D01*
X164194641Y-113030000D01*
X164212037Y-112853373D01*
X164263557Y-112683534D01*
X164347222Y-112527009D01*
X164376552Y-112491271D01*
X164459814Y-112389814D01*
X164561271Y-112306552D01*
X164597009Y-112277222D01*
X164753534Y-112193557D01*
X164923373Y-112142037D01*
X164989557Y-112135519D01*
X165055740Y-112129000D01*
X165144260Y-112129000D01*
X165210443Y-112135519D01*
X165210443Y-112135519D01*
G37*
G36*
X167750442Y-109595518D02*
G01*
X167816627Y-109602037D01*
X167986466Y-109653557D01*
X168142991Y-109737222D01*
X168178729Y-109766552D01*
X168280186Y-109849814D01*
X168363448Y-109951271D01*
X168392778Y-109987009D01*
X168476443Y-110143534D01*
X168527963Y-110313373D01*
X168545359Y-110490000D01*
X168527963Y-110666627D01*
X168476443Y-110836466D01*
X168392778Y-110992991D01*
X168363448Y-111028729D01*
X168280186Y-111130186D01*
X168178729Y-111213448D01*
X168142991Y-111242778D01*
X167986466Y-111326443D01*
X167816627Y-111377963D01*
X167750443Y-111384481D01*
X167684260Y-111391000D01*
X167595740Y-111391000D01*
X167529557Y-111384481D01*
X167463373Y-111377963D01*
X167293534Y-111326443D01*
X167137009Y-111242778D01*
X167101271Y-111213448D01*
X166999814Y-111130186D01*
X166916552Y-111028729D01*
X166887222Y-110992991D01*
X166803557Y-110836466D01*
X166752037Y-110666627D01*
X166734641Y-110490000D01*
X166752037Y-110313373D01*
X166803557Y-110143534D01*
X166887222Y-109987009D01*
X166916552Y-109951271D01*
X166999814Y-109849814D01*
X167101271Y-109766552D01*
X167137009Y-109737222D01*
X167293534Y-109653557D01*
X167463373Y-109602037D01*
X167529558Y-109595518D01*
X167595740Y-109589000D01*
X167684260Y-109589000D01*
X167750442Y-109595518D01*
X167750442Y-109595518D01*
G37*
G36*
X165210442Y-109595518D02*
G01*
X165276627Y-109602037D01*
X165446466Y-109653557D01*
X165602991Y-109737222D01*
X165638729Y-109766552D01*
X165740186Y-109849814D01*
X165823448Y-109951271D01*
X165852778Y-109987009D01*
X165936443Y-110143534D01*
X165987963Y-110313373D01*
X166005359Y-110490000D01*
X165987963Y-110666627D01*
X165936443Y-110836466D01*
X165852778Y-110992991D01*
X165823448Y-111028729D01*
X165740186Y-111130186D01*
X165638729Y-111213448D01*
X165602991Y-111242778D01*
X165446466Y-111326443D01*
X165276627Y-111377963D01*
X165210443Y-111384481D01*
X165144260Y-111391000D01*
X165055740Y-111391000D01*
X164989557Y-111384481D01*
X164923373Y-111377963D01*
X164753534Y-111326443D01*
X164597009Y-111242778D01*
X164561271Y-111213448D01*
X164459814Y-111130186D01*
X164376552Y-111028729D01*
X164347222Y-110992991D01*
X164263557Y-110836466D01*
X164212037Y-110666627D01*
X164194641Y-110490000D01*
X164212037Y-110313373D01*
X164263557Y-110143534D01*
X164347222Y-109987009D01*
X164376552Y-109951271D01*
X164459814Y-109849814D01*
X164561271Y-109766552D01*
X164597009Y-109737222D01*
X164753534Y-109653557D01*
X164923373Y-109602037D01*
X164989558Y-109595518D01*
X165055740Y-109589000D01*
X165144260Y-109589000D01*
X165210442Y-109595518D01*
X165210442Y-109595518D01*
G37*
G36*
X167750442Y-107055518D02*
G01*
X167816627Y-107062037D01*
X167986466Y-107113557D01*
X168142991Y-107197222D01*
X168178729Y-107226552D01*
X168280186Y-107309814D01*
X168360369Y-107407519D01*
X168392778Y-107447009D01*
X168476443Y-107603534D01*
X168527963Y-107773373D01*
X168545359Y-107950000D01*
X168527963Y-108126627D01*
X168476443Y-108296466D01*
X168392778Y-108452991D01*
X168363448Y-108488729D01*
X168280186Y-108590186D01*
X168178729Y-108673448D01*
X168142991Y-108702778D01*
X167986466Y-108786443D01*
X167816627Y-108837963D01*
X167750442Y-108844482D01*
X167684260Y-108851000D01*
X167595740Y-108851000D01*
X167529558Y-108844482D01*
X167463373Y-108837963D01*
X167293534Y-108786443D01*
X167137009Y-108702778D01*
X167101271Y-108673448D01*
X166999814Y-108590186D01*
X166916552Y-108488729D01*
X166887222Y-108452991D01*
X166803557Y-108296466D01*
X166752037Y-108126627D01*
X166734641Y-107950000D01*
X166752037Y-107773373D01*
X166803557Y-107603534D01*
X166887222Y-107447009D01*
X166919631Y-107407519D01*
X166999814Y-107309814D01*
X167101271Y-107226552D01*
X167137009Y-107197222D01*
X167293534Y-107113557D01*
X167463373Y-107062037D01*
X167529558Y-107055518D01*
X167595740Y-107049000D01*
X167684260Y-107049000D01*
X167750442Y-107055518D01*
X167750442Y-107055518D01*
G37*
G36*
X165210442Y-107055518D02*
G01*
X165276627Y-107062037D01*
X165446466Y-107113557D01*
X165602991Y-107197222D01*
X165638729Y-107226552D01*
X165740186Y-107309814D01*
X165820369Y-107407519D01*
X165852778Y-107447009D01*
X165936443Y-107603534D01*
X165987963Y-107773373D01*
X166005359Y-107950000D01*
X165987963Y-108126627D01*
X165936443Y-108296466D01*
X165852778Y-108452991D01*
X165823448Y-108488729D01*
X165740186Y-108590186D01*
X165638729Y-108673448D01*
X165602991Y-108702778D01*
X165446466Y-108786443D01*
X165276627Y-108837963D01*
X165210442Y-108844482D01*
X165144260Y-108851000D01*
X165055740Y-108851000D01*
X164989558Y-108844482D01*
X164923373Y-108837963D01*
X164753534Y-108786443D01*
X164597009Y-108702778D01*
X164561271Y-108673448D01*
X164459814Y-108590186D01*
X164376552Y-108488729D01*
X164347222Y-108452991D01*
X164263557Y-108296466D01*
X164212037Y-108126627D01*
X164194641Y-107950000D01*
X164212037Y-107773373D01*
X164263557Y-107603534D01*
X164347222Y-107447009D01*
X164379631Y-107407519D01*
X164459814Y-107309814D01*
X164561271Y-107226552D01*
X164597009Y-107197222D01*
X164753534Y-107113557D01*
X164923373Y-107062037D01*
X164989558Y-107055518D01*
X165055740Y-107049000D01*
X165144260Y-107049000D01*
X165210442Y-107055518D01*
X165210442Y-107055518D01*
G37*
G36*
X160268228Y-107131703D02*
G01*
X160423100Y-107195853D01*
X160562481Y-107288985D01*
X160681015Y-107407519D01*
X160774147Y-107546900D01*
X160838297Y-107701772D01*
X160871000Y-107866184D01*
X160871000Y-108033816D01*
X160838297Y-108198228D01*
X160774147Y-108353100D01*
X160681015Y-108492481D01*
X160562481Y-108611015D01*
X160423100Y-108704147D01*
X160268228Y-108768297D01*
X160103816Y-108801000D01*
X159936184Y-108801000D01*
X159771772Y-108768297D01*
X159616900Y-108704147D01*
X159477519Y-108611015D01*
X159358985Y-108492481D01*
X159265853Y-108353100D01*
X159201703Y-108198228D01*
X159169000Y-108033816D01*
X159169000Y-107866184D01*
X159201703Y-107701772D01*
X159265853Y-107546900D01*
X159358985Y-107407519D01*
X159477519Y-107288985D01*
X159616900Y-107195853D01*
X159771772Y-107131703D01*
X159936184Y-107099000D01*
X160103816Y-107099000D01*
X160268228Y-107131703D01*
X160268228Y-107131703D01*
G37*
G36*
X146216823Y-107111313D02*
G01*
X146377242Y-107159976D01*
X146444361Y-107195852D01*
X146525078Y-107238996D01*
X146654659Y-107345341D01*
X146761004Y-107474922D01*
X146761005Y-107474924D01*
X146840024Y-107622758D01*
X146888687Y-107783177D01*
X146905117Y-107950000D01*
X146888687Y-108116823D01*
X146840024Y-108277242D01*
X146799477Y-108353100D01*
X146761004Y-108425078D01*
X146654659Y-108554659D01*
X146525078Y-108661004D01*
X146525076Y-108661005D01*
X146377242Y-108740024D01*
X146216823Y-108788687D01*
X146091804Y-108801000D01*
X146008196Y-108801000D01*
X145883177Y-108788687D01*
X145722758Y-108740024D01*
X145574924Y-108661005D01*
X145574922Y-108661004D01*
X145445341Y-108554659D01*
X145338996Y-108425078D01*
X145300523Y-108353100D01*
X145259976Y-108277242D01*
X145211313Y-108116823D01*
X145194883Y-107950000D01*
X145211313Y-107783177D01*
X145259976Y-107622758D01*
X145338995Y-107474924D01*
X145338996Y-107474922D01*
X145445341Y-107345341D01*
X145574922Y-107238996D01*
X145655639Y-107195852D01*
X145722758Y-107159976D01*
X145883177Y-107111313D01*
X146008196Y-107099000D01*
X146091804Y-107099000D01*
X146216823Y-107111313D01*
X146216823Y-107111313D01*
G37*
G36*
X154521000Y-108801000D02*
G01*
X152819000Y-108801000D01*
X152819000Y-107099000D01*
X154521000Y-107099000D01*
X154521000Y-108801000D01*
X154521000Y-108801000D01*
G37*
G36*
X167750443Y-104515519D02*
G01*
X167816627Y-104522037D01*
X167986466Y-104573557D01*
X168142991Y-104657222D01*
X168178729Y-104686552D01*
X168280186Y-104769814D01*
X168360369Y-104867519D01*
X168392778Y-104907009D01*
X168476443Y-105063534D01*
X168527963Y-105233373D01*
X168545359Y-105410000D01*
X168527963Y-105586627D01*
X168476443Y-105756466D01*
X168392778Y-105912991D01*
X168363448Y-105948729D01*
X168280186Y-106050186D01*
X168178729Y-106133448D01*
X168142991Y-106162778D01*
X167986466Y-106246443D01*
X167816627Y-106297963D01*
X167750442Y-106304482D01*
X167684260Y-106311000D01*
X167595740Y-106311000D01*
X167529558Y-106304482D01*
X167463373Y-106297963D01*
X167293534Y-106246443D01*
X167137009Y-106162778D01*
X167101271Y-106133448D01*
X166999814Y-106050186D01*
X166916552Y-105948729D01*
X166887222Y-105912991D01*
X166803557Y-105756466D01*
X166752037Y-105586627D01*
X166734641Y-105410000D01*
X166752037Y-105233373D01*
X166803557Y-105063534D01*
X166887222Y-104907009D01*
X166919631Y-104867519D01*
X166999814Y-104769814D01*
X167101271Y-104686552D01*
X167137009Y-104657222D01*
X167293534Y-104573557D01*
X167463373Y-104522037D01*
X167529557Y-104515519D01*
X167595740Y-104509000D01*
X167684260Y-104509000D01*
X167750443Y-104515519D01*
X167750443Y-104515519D01*
G37*
G36*
X165210443Y-104515519D02*
G01*
X165276627Y-104522037D01*
X165446466Y-104573557D01*
X165602991Y-104657222D01*
X165638729Y-104686552D01*
X165740186Y-104769814D01*
X165820369Y-104867519D01*
X165852778Y-104907009D01*
X165936443Y-105063534D01*
X165987963Y-105233373D01*
X166005359Y-105410000D01*
X165987963Y-105586627D01*
X165936443Y-105756466D01*
X165852778Y-105912991D01*
X165823448Y-105948729D01*
X165740186Y-106050186D01*
X165638729Y-106133448D01*
X165602991Y-106162778D01*
X165446466Y-106246443D01*
X165276627Y-106297963D01*
X165210442Y-106304482D01*
X165144260Y-106311000D01*
X165055740Y-106311000D01*
X164989558Y-106304482D01*
X164923373Y-106297963D01*
X164753534Y-106246443D01*
X164597009Y-106162778D01*
X164561271Y-106133448D01*
X164459814Y-106050186D01*
X164376552Y-105948729D01*
X164347222Y-105912991D01*
X164263557Y-105756466D01*
X164212037Y-105586627D01*
X164194641Y-105410000D01*
X164212037Y-105233373D01*
X164263557Y-105063534D01*
X164347222Y-104907009D01*
X164379631Y-104867519D01*
X164459814Y-104769814D01*
X164561271Y-104686552D01*
X164597009Y-104657222D01*
X164753534Y-104573557D01*
X164923373Y-104522037D01*
X164989557Y-104515519D01*
X165055740Y-104509000D01*
X165144260Y-104509000D01*
X165210443Y-104515519D01*
X165210443Y-104515519D01*
G37*
G36*
X139948228Y-104591703D02*
G01*
X140103100Y-104655853D01*
X140242481Y-104748985D01*
X140361015Y-104867519D01*
X140454147Y-105006900D01*
X140518297Y-105161772D01*
X140551000Y-105326184D01*
X140551000Y-105493816D01*
X140518297Y-105658228D01*
X140454147Y-105813100D01*
X140361015Y-105952481D01*
X140242481Y-106071015D01*
X140103100Y-106164147D01*
X139948228Y-106228297D01*
X139783816Y-106261000D01*
X139616184Y-106261000D01*
X139451772Y-106228297D01*
X139296900Y-106164147D01*
X139157519Y-106071015D01*
X139038985Y-105952481D01*
X138945853Y-105813100D01*
X138881703Y-105658228D01*
X138849000Y-105493816D01*
X138849000Y-105326184D01*
X138881703Y-105161772D01*
X138945853Y-105006900D01*
X139038985Y-104867519D01*
X139157519Y-104748985D01*
X139296900Y-104655853D01*
X139451772Y-104591703D01*
X139616184Y-104559000D01*
X139783816Y-104559000D01*
X139948228Y-104591703D01*
X139948228Y-104591703D01*
G37*
G36*
X146216823Y-104571313D02*
G01*
X146377242Y-104619976D01*
X146444361Y-104655852D01*
X146525078Y-104698996D01*
X146654659Y-104805341D01*
X146761004Y-104934922D01*
X146761005Y-104934924D01*
X146840024Y-105082758D01*
X146888687Y-105243177D01*
X146905117Y-105410000D01*
X146888687Y-105576823D01*
X146840024Y-105737242D01*
X146799477Y-105813100D01*
X146761004Y-105885078D01*
X146654659Y-106014659D01*
X146525078Y-106121004D01*
X146525076Y-106121005D01*
X146377242Y-106200024D01*
X146216823Y-106248687D01*
X146091804Y-106261000D01*
X146008196Y-106261000D01*
X145883177Y-106248687D01*
X145722758Y-106200024D01*
X145574924Y-106121005D01*
X145574922Y-106121004D01*
X145445341Y-106014659D01*
X145338996Y-105885078D01*
X145300523Y-105813100D01*
X145259976Y-105737242D01*
X145211313Y-105576823D01*
X145194883Y-105410000D01*
X145211313Y-105243177D01*
X145259976Y-105082758D01*
X145338995Y-104934924D01*
X145338996Y-104934922D01*
X145445341Y-104805341D01*
X145574922Y-104698996D01*
X145655639Y-104655852D01*
X145722758Y-104619976D01*
X145883177Y-104571313D01*
X146008196Y-104559000D01*
X146091804Y-104559000D01*
X146216823Y-104571313D01*
X146216823Y-104571313D01*
G37*
G36*
X153836823Y-104571313D02*
G01*
X153997242Y-104619976D01*
X154064361Y-104655852D01*
X154145078Y-104698996D01*
X154274659Y-104805341D01*
X154381004Y-104934922D01*
X154381005Y-104934924D01*
X154460024Y-105082758D01*
X154508687Y-105243177D01*
X154525117Y-105410000D01*
X154508687Y-105576823D01*
X154460024Y-105737242D01*
X154419477Y-105813100D01*
X154381004Y-105885078D01*
X154274659Y-106014659D01*
X154145078Y-106121004D01*
X154145076Y-106121005D01*
X153997242Y-106200024D01*
X153836823Y-106248687D01*
X153711804Y-106261000D01*
X153628196Y-106261000D01*
X153503177Y-106248687D01*
X153342758Y-106200024D01*
X153194924Y-106121005D01*
X153194922Y-106121004D01*
X153065341Y-106014659D01*
X152958996Y-105885078D01*
X152920523Y-105813100D01*
X152879976Y-105737242D01*
X152831313Y-105576823D01*
X152814883Y-105410000D01*
X152831313Y-105243177D01*
X152879976Y-105082758D01*
X152958995Y-104934924D01*
X152958996Y-104934922D01*
X153065341Y-104805341D01*
X153194922Y-104698996D01*
X153275639Y-104655852D01*
X153342758Y-104619976D01*
X153503177Y-104571313D01*
X153628196Y-104559000D01*
X153711804Y-104559000D01*
X153836823Y-104571313D01*
X153836823Y-104571313D01*
G37*
G36*
X134868228Y-104591703D02*
G01*
X135023100Y-104655853D01*
X135162481Y-104748985D01*
X135281015Y-104867519D01*
X135374147Y-105006900D01*
X135438297Y-105161772D01*
X135471000Y-105326184D01*
X135471000Y-105493816D01*
X135438297Y-105658228D01*
X135374147Y-105813100D01*
X135281015Y-105952481D01*
X135162481Y-106071015D01*
X135023100Y-106164147D01*
X134868228Y-106228297D01*
X134703816Y-106261000D01*
X134536184Y-106261000D01*
X134371772Y-106228297D01*
X134216900Y-106164147D01*
X134077519Y-106071015D01*
X133958985Y-105952481D01*
X133865853Y-105813100D01*
X133801703Y-105658228D01*
X133769000Y-105493816D01*
X133769000Y-105326184D01*
X133801703Y-105161772D01*
X133865853Y-105006900D01*
X133958985Y-104867519D01*
X134077519Y-104748985D01*
X134216900Y-104655853D01*
X134371772Y-104591703D01*
X134536184Y-104559000D01*
X134703816Y-104559000D01*
X134868228Y-104591703D01*
X134868228Y-104591703D01*
G37*
G36*
X167750442Y-101975518D02*
G01*
X167816627Y-101982037D01*
X167986466Y-102033557D01*
X168142991Y-102117222D01*
X168178729Y-102146552D01*
X168280186Y-102229814D01*
X168363448Y-102331271D01*
X168392778Y-102367009D01*
X168476443Y-102523534D01*
X168527963Y-102693373D01*
X168545359Y-102870000D01*
X168527963Y-103046627D01*
X168476443Y-103216466D01*
X168392778Y-103372991D01*
X168363448Y-103408729D01*
X168280186Y-103510186D01*
X168178729Y-103593448D01*
X168142991Y-103622778D01*
X167986466Y-103706443D01*
X167816627Y-103757963D01*
X167750443Y-103764481D01*
X167684260Y-103771000D01*
X167595740Y-103771000D01*
X167529557Y-103764481D01*
X167463373Y-103757963D01*
X167293534Y-103706443D01*
X167137009Y-103622778D01*
X167101271Y-103593448D01*
X166999814Y-103510186D01*
X166916552Y-103408729D01*
X166887222Y-103372991D01*
X166803557Y-103216466D01*
X166752037Y-103046627D01*
X166734641Y-102870000D01*
X166752037Y-102693373D01*
X166803557Y-102523534D01*
X166887222Y-102367009D01*
X166916552Y-102331271D01*
X166999814Y-102229814D01*
X167101271Y-102146552D01*
X167137009Y-102117222D01*
X167293534Y-102033557D01*
X167463373Y-101982037D01*
X167529558Y-101975518D01*
X167595740Y-101969000D01*
X167684260Y-101969000D01*
X167750442Y-101975518D01*
X167750442Y-101975518D01*
G37*
G36*
X165210442Y-101975518D02*
G01*
X165276627Y-101982037D01*
X165446466Y-102033557D01*
X165602991Y-102117222D01*
X165638729Y-102146552D01*
X165740186Y-102229814D01*
X165823448Y-102331271D01*
X165852778Y-102367009D01*
X165936443Y-102523534D01*
X165987963Y-102693373D01*
X166005359Y-102870000D01*
X165987963Y-103046627D01*
X165936443Y-103216466D01*
X165852778Y-103372991D01*
X165823448Y-103408729D01*
X165740186Y-103510186D01*
X165638729Y-103593448D01*
X165602991Y-103622778D01*
X165446466Y-103706443D01*
X165276627Y-103757963D01*
X165210443Y-103764481D01*
X165144260Y-103771000D01*
X165055740Y-103771000D01*
X164989557Y-103764481D01*
X164923373Y-103757963D01*
X164753534Y-103706443D01*
X164597009Y-103622778D01*
X164561271Y-103593448D01*
X164459814Y-103510186D01*
X164376552Y-103408729D01*
X164347222Y-103372991D01*
X164263557Y-103216466D01*
X164212037Y-103046627D01*
X164194641Y-102870000D01*
X164212037Y-102693373D01*
X164263557Y-102523534D01*
X164347222Y-102367009D01*
X164376552Y-102331271D01*
X164459814Y-102229814D01*
X164561271Y-102146552D01*
X164597009Y-102117222D01*
X164753534Y-102033557D01*
X164923373Y-101982037D01*
X164989558Y-101975518D01*
X165055740Y-101969000D01*
X165144260Y-101969000D01*
X165210442Y-101975518D01*
X165210442Y-101975518D01*
G37*
G36*
X146216823Y-102031313D02*
G01*
X146377242Y-102079976D01*
X146446922Y-102117221D01*
X146525078Y-102158996D01*
X146654659Y-102265341D01*
X146761004Y-102394922D01*
X146761005Y-102394924D01*
X146840024Y-102542758D01*
X146888687Y-102703177D01*
X146905117Y-102870000D01*
X146888687Y-103036823D01*
X146840024Y-103197242D01*
X146829747Y-103216468D01*
X146761004Y-103345078D01*
X146654659Y-103474659D01*
X146525078Y-103581004D01*
X146525076Y-103581005D01*
X146377242Y-103660024D01*
X146216823Y-103708687D01*
X146091804Y-103721000D01*
X146008196Y-103721000D01*
X145883177Y-103708687D01*
X145722758Y-103660024D01*
X145574924Y-103581005D01*
X145574922Y-103581004D01*
X145445341Y-103474659D01*
X145338996Y-103345078D01*
X145270253Y-103216468D01*
X145259976Y-103197242D01*
X145211313Y-103036823D01*
X145194883Y-102870000D01*
X145211313Y-102703177D01*
X145259976Y-102542758D01*
X145338995Y-102394924D01*
X145338996Y-102394922D01*
X145445341Y-102265341D01*
X145574922Y-102158996D01*
X145653078Y-102117221D01*
X145722758Y-102079976D01*
X145883177Y-102031313D01*
X146008196Y-102019000D01*
X146091804Y-102019000D01*
X146216823Y-102031313D01*
X146216823Y-102031313D01*
G37*
G36*
X153836823Y-102031313D02*
G01*
X153997242Y-102079976D01*
X154066922Y-102117221D01*
X154145078Y-102158996D01*
X154274659Y-102265341D01*
X154381004Y-102394922D01*
X154381005Y-102394924D01*
X154460024Y-102542758D01*
X154508687Y-102703177D01*
X154525117Y-102870000D01*
X154508687Y-103036823D01*
X154460024Y-103197242D01*
X154449747Y-103216468D01*
X154381004Y-103345078D01*
X154274659Y-103474659D01*
X154145078Y-103581004D01*
X154145076Y-103581005D01*
X153997242Y-103660024D01*
X153836823Y-103708687D01*
X153711804Y-103721000D01*
X153628196Y-103721000D01*
X153503177Y-103708687D01*
X153342758Y-103660024D01*
X153194924Y-103581005D01*
X153194922Y-103581004D01*
X153065341Y-103474659D01*
X152958996Y-103345078D01*
X152890253Y-103216468D01*
X152879976Y-103197242D01*
X152831313Y-103036823D01*
X152814883Y-102870000D01*
X152831313Y-102703177D01*
X152879976Y-102542758D01*
X152958995Y-102394924D01*
X152958996Y-102394922D01*
X153065341Y-102265341D01*
X153194922Y-102158996D01*
X153273078Y-102117221D01*
X153342758Y-102079976D01*
X153503177Y-102031313D01*
X153628196Y-102019000D01*
X153711804Y-102019000D01*
X153836823Y-102031313D01*
X153836823Y-102031313D01*
G37*
G36*
X137270443Y-99435519D02*
G01*
X137336627Y-99442037D01*
X137506466Y-99493557D01*
X137662991Y-99577222D01*
X137698729Y-99606552D01*
X137800186Y-99689814D01*
X137883448Y-99791271D01*
X137912778Y-99827009D01*
X137996443Y-99983534D01*
X138047963Y-100153373D01*
X138065359Y-100330000D01*
X138047963Y-100506627D01*
X137996443Y-100676466D01*
X137912778Y-100832991D01*
X137883448Y-100868729D01*
X137800186Y-100970186D01*
X137698729Y-101053448D01*
X137662991Y-101082778D01*
X137506466Y-101166443D01*
X137336627Y-101217963D01*
X137270443Y-101224481D01*
X137204260Y-101231000D01*
X137115740Y-101231000D01*
X137049558Y-101224482D01*
X136983373Y-101217963D01*
X136813534Y-101166443D01*
X136657009Y-101082778D01*
X136621271Y-101053448D01*
X136519814Y-100970186D01*
X136436552Y-100868729D01*
X136407222Y-100832991D01*
X136323557Y-100676466D01*
X136272037Y-100506627D01*
X136254641Y-100330000D01*
X136272037Y-100153373D01*
X136323557Y-99983534D01*
X136407222Y-99827009D01*
X136436552Y-99791271D01*
X136519814Y-99689814D01*
X136621271Y-99606552D01*
X136657009Y-99577222D01*
X136813534Y-99493557D01*
X136983373Y-99442037D01*
X137049558Y-99435518D01*
X137115740Y-99429000D01*
X137204260Y-99429000D01*
X137270443Y-99435519D01*
X137270443Y-99435519D01*
G37*
G36*
X134730443Y-99435519D02*
G01*
X134796627Y-99442037D01*
X134966466Y-99493557D01*
X135122991Y-99577222D01*
X135158729Y-99606552D01*
X135260186Y-99689814D01*
X135343448Y-99791271D01*
X135372778Y-99827009D01*
X135456443Y-99983534D01*
X135507963Y-100153373D01*
X135525359Y-100330000D01*
X135507963Y-100506627D01*
X135456443Y-100676466D01*
X135372778Y-100832991D01*
X135343448Y-100868729D01*
X135260186Y-100970186D01*
X135158729Y-101053448D01*
X135122991Y-101082778D01*
X134966466Y-101166443D01*
X134796627Y-101217963D01*
X134730443Y-101224481D01*
X134664260Y-101231000D01*
X134575740Y-101231000D01*
X134509558Y-101224482D01*
X134443373Y-101217963D01*
X134273534Y-101166443D01*
X134117009Y-101082778D01*
X134081271Y-101053448D01*
X133979814Y-100970186D01*
X133896552Y-100868729D01*
X133867222Y-100832991D01*
X133783557Y-100676466D01*
X133732037Y-100506627D01*
X133714641Y-100330000D01*
X133732037Y-100153373D01*
X133783557Y-99983534D01*
X133867222Y-99827009D01*
X133896552Y-99791271D01*
X133979814Y-99689814D01*
X134081271Y-99606552D01*
X134117009Y-99577222D01*
X134273534Y-99493557D01*
X134443373Y-99442037D01*
X134509558Y-99435518D01*
X134575740Y-99429000D01*
X134664260Y-99429000D01*
X134730443Y-99435519D01*
X134730443Y-99435519D01*
G37*
G36*
X167750443Y-99435519D02*
G01*
X167816627Y-99442037D01*
X167986466Y-99493557D01*
X168142991Y-99577222D01*
X168178729Y-99606552D01*
X168280186Y-99689814D01*
X168363448Y-99791271D01*
X168392778Y-99827009D01*
X168476443Y-99983534D01*
X168527963Y-100153373D01*
X168545359Y-100330000D01*
X168527963Y-100506627D01*
X168476443Y-100676466D01*
X168392778Y-100832991D01*
X168363448Y-100868729D01*
X168280186Y-100970186D01*
X168178729Y-101053448D01*
X168142991Y-101082778D01*
X167986466Y-101166443D01*
X167816627Y-101217963D01*
X167750443Y-101224481D01*
X167684260Y-101231000D01*
X167595740Y-101231000D01*
X167529558Y-101224482D01*
X167463373Y-101217963D01*
X167293534Y-101166443D01*
X167137009Y-101082778D01*
X167101271Y-101053448D01*
X166999814Y-100970186D01*
X166916552Y-100868729D01*
X166887222Y-100832991D01*
X166803557Y-100676466D01*
X166752037Y-100506627D01*
X166734641Y-100330000D01*
X166752037Y-100153373D01*
X166803557Y-99983534D01*
X166887222Y-99827009D01*
X166916552Y-99791271D01*
X166999814Y-99689814D01*
X167101271Y-99606552D01*
X167137009Y-99577222D01*
X167293534Y-99493557D01*
X167463373Y-99442037D01*
X167529558Y-99435518D01*
X167595740Y-99429000D01*
X167684260Y-99429000D01*
X167750443Y-99435519D01*
X167750443Y-99435519D01*
G37*
G36*
X165210443Y-99435519D02*
G01*
X165276627Y-99442037D01*
X165446466Y-99493557D01*
X165602991Y-99577222D01*
X165638729Y-99606552D01*
X165740186Y-99689814D01*
X165823448Y-99791271D01*
X165852778Y-99827009D01*
X165936443Y-99983534D01*
X165987963Y-100153373D01*
X166005359Y-100330000D01*
X165987963Y-100506627D01*
X165936443Y-100676466D01*
X165852778Y-100832991D01*
X165823448Y-100868729D01*
X165740186Y-100970186D01*
X165638729Y-101053448D01*
X165602991Y-101082778D01*
X165446466Y-101166443D01*
X165276627Y-101217963D01*
X165210443Y-101224481D01*
X165144260Y-101231000D01*
X165055740Y-101231000D01*
X164989558Y-101224482D01*
X164923373Y-101217963D01*
X164753534Y-101166443D01*
X164597009Y-101082778D01*
X164561271Y-101053448D01*
X164459814Y-100970186D01*
X164376552Y-100868729D01*
X164347222Y-100832991D01*
X164263557Y-100676466D01*
X164212037Y-100506627D01*
X164194641Y-100330000D01*
X164212037Y-100153373D01*
X164263557Y-99983534D01*
X164347222Y-99827009D01*
X164376552Y-99791271D01*
X164459814Y-99689814D01*
X164561271Y-99606552D01*
X164597009Y-99577222D01*
X164753534Y-99493557D01*
X164923373Y-99442037D01*
X164989558Y-99435518D01*
X165055740Y-99429000D01*
X165144260Y-99429000D01*
X165210443Y-99435519D01*
X165210443Y-99435519D01*
G37*
G36*
X137270442Y-96895518D02*
G01*
X137336627Y-96902037D01*
X137506466Y-96953557D01*
X137662991Y-97037222D01*
X137698729Y-97066552D01*
X137800186Y-97149814D01*
X137880369Y-97247519D01*
X137912778Y-97287009D01*
X137996443Y-97443534D01*
X138047963Y-97613373D01*
X138065359Y-97790000D01*
X138047963Y-97966627D01*
X137996443Y-98136466D01*
X137912778Y-98292991D01*
X137883448Y-98328729D01*
X137800186Y-98430186D01*
X137698729Y-98513448D01*
X137662991Y-98542778D01*
X137506466Y-98626443D01*
X137336627Y-98677963D01*
X137270442Y-98684482D01*
X137204260Y-98691000D01*
X137115740Y-98691000D01*
X137049558Y-98684482D01*
X136983373Y-98677963D01*
X136813534Y-98626443D01*
X136657009Y-98542778D01*
X136621271Y-98513448D01*
X136519814Y-98430186D01*
X136436552Y-98328729D01*
X136407222Y-98292991D01*
X136323557Y-98136466D01*
X136272037Y-97966627D01*
X136254641Y-97790000D01*
X136272037Y-97613373D01*
X136323557Y-97443534D01*
X136407222Y-97287009D01*
X136439631Y-97247519D01*
X136519814Y-97149814D01*
X136621271Y-97066552D01*
X136657009Y-97037222D01*
X136813534Y-96953557D01*
X136983373Y-96902037D01*
X137049558Y-96895518D01*
X137115740Y-96889000D01*
X137204260Y-96889000D01*
X137270442Y-96895518D01*
X137270442Y-96895518D01*
G37*
G36*
X135521000Y-98691000D02*
G01*
X133719000Y-98691000D01*
X133719000Y-96889000D01*
X135521000Y-96889000D01*
X135521000Y-98691000D01*
X135521000Y-98691000D01*
G37*
G36*
X165210442Y-96895518D02*
G01*
X165276627Y-96902037D01*
X165446466Y-96953557D01*
X165602991Y-97037222D01*
X165638729Y-97066552D01*
X165740186Y-97149814D01*
X165820369Y-97247519D01*
X165852778Y-97287009D01*
X165936443Y-97443534D01*
X165987963Y-97613373D01*
X166005359Y-97790000D01*
X165987963Y-97966627D01*
X165936443Y-98136466D01*
X165852778Y-98292991D01*
X165823448Y-98328729D01*
X165740186Y-98430186D01*
X165638729Y-98513448D01*
X165602991Y-98542778D01*
X165446466Y-98626443D01*
X165276627Y-98677963D01*
X165210442Y-98684482D01*
X165144260Y-98691000D01*
X165055740Y-98691000D01*
X164989558Y-98684482D01*
X164923373Y-98677963D01*
X164753534Y-98626443D01*
X164597009Y-98542778D01*
X164561271Y-98513448D01*
X164459814Y-98430186D01*
X164376552Y-98328729D01*
X164347222Y-98292991D01*
X164263557Y-98136466D01*
X164212037Y-97966627D01*
X164194641Y-97790000D01*
X164212037Y-97613373D01*
X164263557Y-97443534D01*
X164347222Y-97287009D01*
X164379631Y-97247519D01*
X164459814Y-97149814D01*
X164561271Y-97066552D01*
X164597009Y-97037222D01*
X164753534Y-96953557D01*
X164923373Y-96902037D01*
X164989558Y-96895518D01*
X165055740Y-96889000D01*
X165144260Y-96889000D01*
X165210442Y-96895518D01*
X165210442Y-96895518D01*
G37*
G36*
X167750442Y-96895518D02*
G01*
X167816627Y-96902037D01*
X167986466Y-96953557D01*
X168142991Y-97037222D01*
X168178729Y-97066552D01*
X168280186Y-97149814D01*
X168360369Y-97247519D01*
X168392778Y-97287009D01*
X168476443Y-97443534D01*
X168527963Y-97613373D01*
X168545359Y-97790000D01*
X168527963Y-97966627D01*
X168476443Y-98136466D01*
X168392778Y-98292991D01*
X168363448Y-98328729D01*
X168280186Y-98430186D01*
X168178729Y-98513448D01*
X168142991Y-98542778D01*
X167986466Y-98626443D01*
X167816627Y-98677963D01*
X167750442Y-98684482D01*
X167684260Y-98691000D01*
X167595740Y-98691000D01*
X167529558Y-98684482D01*
X167463373Y-98677963D01*
X167293534Y-98626443D01*
X167137009Y-98542778D01*
X167101271Y-98513448D01*
X166999814Y-98430186D01*
X166916552Y-98328729D01*
X166887222Y-98292991D01*
X166803557Y-98136466D01*
X166752037Y-97966627D01*
X166734641Y-97790000D01*
X166752037Y-97613373D01*
X166803557Y-97443534D01*
X166887222Y-97287009D01*
X166919631Y-97247519D01*
X166999814Y-97149814D01*
X167101271Y-97066552D01*
X167137009Y-97037222D01*
X167293534Y-96953557D01*
X167463373Y-96902037D01*
X167529558Y-96895518D01*
X167595740Y-96889000D01*
X167684260Y-96889000D01*
X167750442Y-96895518D01*
X167750442Y-96895518D01*
G37*
G36*
X144946823Y-96951313D02*
G01*
X145107242Y-96999976D01*
X145174361Y-97035852D01*
X145255078Y-97078996D01*
X145384659Y-97185341D01*
X145491004Y-97314922D01*
X145491005Y-97314924D01*
X145570024Y-97462758D01*
X145618687Y-97623177D01*
X145635117Y-97790000D01*
X145618687Y-97956823D01*
X145570024Y-98117242D01*
X145529477Y-98193100D01*
X145491004Y-98265078D01*
X145384659Y-98394659D01*
X145255078Y-98501004D01*
X145255076Y-98501005D01*
X145107242Y-98580024D01*
X144946823Y-98628687D01*
X144821804Y-98641000D01*
X144738196Y-98641000D01*
X144613177Y-98628687D01*
X144452758Y-98580024D01*
X144304924Y-98501005D01*
X144304922Y-98501004D01*
X144175341Y-98394659D01*
X144068996Y-98265078D01*
X144030523Y-98193100D01*
X143989976Y-98117242D01*
X143941313Y-97956823D01*
X143924883Y-97790000D01*
X143941313Y-97623177D01*
X143989976Y-97462758D01*
X144068995Y-97314924D01*
X144068996Y-97314922D01*
X144175341Y-97185341D01*
X144304922Y-97078996D01*
X144385639Y-97035852D01*
X144452758Y-96999976D01*
X144613177Y-96951313D01*
X144738196Y-96939000D01*
X144821804Y-96939000D01*
X144946823Y-96951313D01*
X144946823Y-96951313D01*
G37*
G36*
X155188228Y-96971703D02*
G01*
X155343100Y-97035853D01*
X155482481Y-97128985D01*
X155601015Y-97247519D01*
X155694147Y-97386900D01*
X155758297Y-97541772D01*
X155791000Y-97706184D01*
X155791000Y-97873816D01*
X155758297Y-98038228D01*
X155694147Y-98193100D01*
X155601015Y-98332481D01*
X155482481Y-98451015D01*
X155343100Y-98544147D01*
X155188228Y-98608297D01*
X155023816Y-98641000D01*
X154856184Y-98641000D01*
X154691772Y-98608297D01*
X154536900Y-98544147D01*
X154397519Y-98451015D01*
X154278985Y-98332481D01*
X154185853Y-98193100D01*
X154121703Y-98038228D01*
X154089000Y-97873816D01*
X154089000Y-97706184D01*
X154121703Y-97541772D01*
X154185853Y-97386900D01*
X154278985Y-97247519D01*
X154397519Y-97128985D01*
X154536900Y-97035853D01*
X154691772Y-96971703D01*
X154856184Y-96939000D01*
X155023816Y-96939000D01*
X155188228Y-96971703D01*
X155188228Y-96971703D01*
G37*
G36*
X160186823Y-96951313D02*
G01*
X160347242Y-96999976D01*
X160414361Y-97035852D01*
X160495078Y-97078996D01*
X160624659Y-97185341D01*
X160731004Y-97314922D01*
X160731005Y-97314924D01*
X160810024Y-97462758D01*
X160858687Y-97623177D01*
X160875117Y-97790000D01*
X160858687Y-97956823D01*
X160810024Y-98117242D01*
X160769477Y-98193100D01*
X160731004Y-98265078D01*
X160624659Y-98394659D01*
X160495078Y-98501004D01*
X160495076Y-98501005D01*
X160347242Y-98580024D01*
X160186823Y-98628687D01*
X160061804Y-98641000D01*
X159978196Y-98641000D01*
X159853177Y-98628687D01*
X159692758Y-98580024D01*
X159544924Y-98501005D01*
X159544922Y-98501004D01*
X159415341Y-98394659D01*
X159308996Y-98265078D01*
X159270523Y-98193100D01*
X159229976Y-98117242D01*
X159181313Y-97956823D01*
X159164883Y-97790000D01*
X159181313Y-97623177D01*
X159229976Y-97462758D01*
X159308995Y-97314924D01*
X159308996Y-97314922D01*
X159415341Y-97185341D01*
X159544922Y-97078996D01*
X159625639Y-97035852D01*
X159692758Y-96999976D01*
X159853177Y-96951313D01*
X159978196Y-96939000D01*
X160061804Y-96939000D01*
X160186823Y-96951313D01*
X160186823Y-96951313D01*
G37*
G36*
X167750442Y-94355518D02*
G01*
X167816627Y-94362037D01*
X167986466Y-94413557D01*
X168142991Y-94497222D01*
X168178729Y-94526552D01*
X168280186Y-94609814D01*
X168363448Y-94711271D01*
X168392778Y-94747009D01*
X168476443Y-94903534D01*
X168527963Y-95073373D01*
X168545359Y-95250000D01*
X168527963Y-95426627D01*
X168476443Y-95596466D01*
X168392778Y-95752991D01*
X168363448Y-95788729D01*
X168280186Y-95890186D01*
X168178729Y-95973448D01*
X168142991Y-96002778D01*
X167986466Y-96086443D01*
X167816627Y-96137963D01*
X167750443Y-96144481D01*
X167684260Y-96151000D01*
X167595740Y-96151000D01*
X167529558Y-96144482D01*
X167463373Y-96137963D01*
X167293534Y-96086443D01*
X167137009Y-96002778D01*
X167101271Y-95973448D01*
X166999814Y-95890186D01*
X166916552Y-95788729D01*
X166887222Y-95752991D01*
X166803557Y-95596466D01*
X166752037Y-95426627D01*
X166734641Y-95250000D01*
X166752037Y-95073373D01*
X166803557Y-94903534D01*
X166887222Y-94747009D01*
X166916552Y-94711271D01*
X166999814Y-94609814D01*
X167101271Y-94526552D01*
X167137009Y-94497222D01*
X167293534Y-94413557D01*
X167463373Y-94362037D01*
X167529557Y-94355519D01*
X167595740Y-94349000D01*
X167684260Y-94349000D01*
X167750442Y-94355518D01*
X167750442Y-94355518D01*
G37*
G36*
X165210442Y-94355518D02*
G01*
X165276627Y-94362037D01*
X165446466Y-94413557D01*
X165602991Y-94497222D01*
X165638729Y-94526552D01*
X165740186Y-94609814D01*
X165823448Y-94711271D01*
X165852778Y-94747009D01*
X165936443Y-94903534D01*
X165987963Y-95073373D01*
X166005359Y-95250000D01*
X165987963Y-95426627D01*
X165936443Y-95596466D01*
X165852778Y-95752991D01*
X165823448Y-95788729D01*
X165740186Y-95890186D01*
X165638729Y-95973448D01*
X165602991Y-96002778D01*
X165446466Y-96086443D01*
X165276627Y-96137963D01*
X165210443Y-96144481D01*
X165144260Y-96151000D01*
X165055740Y-96151000D01*
X164989558Y-96144482D01*
X164923373Y-96137963D01*
X164753534Y-96086443D01*
X164597009Y-96002778D01*
X164561271Y-95973448D01*
X164459814Y-95890186D01*
X164376552Y-95788729D01*
X164347222Y-95752991D01*
X164263557Y-95596466D01*
X164212037Y-95426627D01*
X164194641Y-95250000D01*
X164212037Y-95073373D01*
X164263557Y-94903534D01*
X164347222Y-94747009D01*
X164376552Y-94711271D01*
X164459814Y-94609814D01*
X164561271Y-94526552D01*
X164597009Y-94497222D01*
X164753534Y-94413557D01*
X164923373Y-94362037D01*
X164989557Y-94355519D01*
X165055740Y-94349000D01*
X165144260Y-94349000D01*
X165210442Y-94355518D01*
X165210442Y-94355518D01*
G37*
G36*
X137270442Y-91815518D02*
G01*
X137336627Y-91822037D01*
X137506466Y-91873557D01*
X137662991Y-91957222D01*
X137698729Y-91986552D01*
X137800186Y-92069814D01*
X137880369Y-92167519D01*
X137912778Y-92207009D01*
X137996443Y-92363534D01*
X138047963Y-92533373D01*
X138065359Y-92710000D01*
X138047963Y-92886627D01*
X137996443Y-93056466D01*
X137912778Y-93212991D01*
X137883448Y-93248729D01*
X137800186Y-93350186D01*
X137698729Y-93433448D01*
X137662991Y-93462778D01*
X137506466Y-93546443D01*
X137336627Y-93597963D01*
X137270442Y-93604482D01*
X137204260Y-93611000D01*
X137115740Y-93611000D01*
X137049557Y-93604481D01*
X136983373Y-93597963D01*
X136813534Y-93546443D01*
X136657009Y-93462778D01*
X136621271Y-93433448D01*
X136519814Y-93350186D01*
X136436552Y-93248729D01*
X136407222Y-93212991D01*
X136323557Y-93056466D01*
X136272037Y-92886627D01*
X136254641Y-92710000D01*
X136272037Y-92533373D01*
X136323557Y-92363534D01*
X136407222Y-92207009D01*
X136439631Y-92167519D01*
X136519814Y-92069814D01*
X136621271Y-91986552D01*
X136657009Y-91957222D01*
X136813534Y-91873557D01*
X136983373Y-91822037D01*
X137049558Y-91815518D01*
X137115740Y-91809000D01*
X137204260Y-91809000D01*
X137270442Y-91815518D01*
X137270442Y-91815518D01*
G37*
G36*
X167750442Y-91815518D02*
G01*
X167816627Y-91822037D01*
X167986466Y-91873557D01*
X168142991Y-91957222D01*
X168178729Y-91986552D01*
X168280186Y-92069814D01*
X168360369Y-92167519D01*
X168392778Y-92207009D01*
X168476443Y-92363534D01*
X168527963Y-92533373D01*
X168545359Y-92710000D01*
X168527963Y-92886627D01*
X168476443Y-93056466D01*
X168392778Y-93212991D01*
X168363448Y-93248729D01*
X168280186Y-93350186D01*
X168178729Y-93433448D01*
X168142991Y-93462778D01*
X167986466Y-93546443D01*
X167816627Y-93597963D01*
X167750442Y-93604482D01*
X167684260Y-93611000D01*
X167595740Y-93611000D01*
X167529557Y-93604481D01*
X167463373Y-93597963D01*
X167293534Y-93546443D01*
X167137009Y-93462778D01*
X167101271Y-93433448D01*
X166999814Y-93350186D01*
X166916552Y-93248729D01*
X166887222Y-93212991D01*
X166803557Y-93056466D01*
X166752037Y-92886627D01*
X166734641Y-92710000D01*
X166752037Y-92533373D01*
X166803557Y-92363534D01*
X166887222Y-92207009D01*
X166919631Y-92167519D01*
X166999814Y-92069814D01*
X167101271Y-91986552D01*
X167137009Y-91957222D01*
X167293534Y-91873557D01*
X167463373Y-91822037D01*
X167529558Y-91815518D01*
X167595740Y-91809000D01*
X167684260Y-91809000D01*
X167750442Y-91815518D01*
X167750442Y-91815518D01*
G37*
G36*
X165210442Y-91815518D02*
G01*
X165276627Y-91822037D01*
X165446466Y-91873557D01*
X165602991Y-91957222D01*
X165638729Y-91986552D01*
X165740186Y-92069814D01*
X165820369Y-92167519D01*
X165852778Y-92207009D01*
X165936443Y-92363534D01*
X165987963Y-92533373D01*
X166005359Y-92710000D01*
X165987963Y-92886627D01*
X165936443Y-93056466D01*
X165852778Y-93212991D01*
X165823448Y-93248729D01*
X165740186Y-93350186D01*
X165638729Y-93433448D01*
X165602991Y-93462778D01*
X165446466Y-93546443D01*
X165276627Y-93597963D01*
X165210442Y-93604482D01*
X165144260Y-93611000D01*
X165055740Y-93611000D01*
X164989557Y-93604481D01*
X164923373Y-93597963D01*
X164753534Y-93546443D01*
X164597009Y-93462778D01*
X164561271Y-93433448D01*
X164459814Y-93350186D01*
X164376552Y-93248729D01*
X164347222Y-93212991D01*
X164263557Y-93056466D01*
X164212037Y-92886627D01*
X164194641Y-92710000D01*
X164212037Y-92533373D01*
X164263557Y-92363534D01*
X164347222Y-92207009D01*
X164379631Y-92167519D01*
X164459814Y-92069814D01*
X164561271Y-91986552D01*
X164597009Y-91957222D01*
X164753534Y-91873557D01*
X164923373Y-91822037D01*
X164989558Y-91815518D01*
X165055740Y-91809000D01*
X165144260Y-91809000D01*
X165210442Y-91815518D01*
X165210442Y-91815518D01*
G37*
G36*
X134730442Y-91815518D02*
G01*
X134796627Y-91822037D01*
X134966466Y-91873557D01*
X135122991Y-91957222D01*
X135158729Y-91986552D01*
X135260186Y-92069814D01*
X135340369Y-92167519D01*
X135372778Y-92207009D01*
X135456443Y-92363534D01*
X135507963Y-92533373D01*
X135525359Y-92710000D01*
X135507963Y-92886627D01*
X135456443Y-93056466D01*
X135372778Y-93212991D01*
X135343448Y-93248729D01*
X135260186Y-93350186D01*
X135158729Y-93433448D01*
X135122991Y-93462778D01*
X134966466Y-93546443D01*
X134796627Y-93597963D01*
X134730442Y-93604482D01*
X134664260Y-93611000D01*
X134575740Y-93611000D01*
X134509557Y-93604481D01*
X134443373Y-93597963D01*
X134273534Y-93546443D01*
X134117009Y-93462778D01*
X134081271Y-93433448D01*
X133979814Y-93350186D01*
X133896552Y-93248729D01*
X133867222Y-93212991D01*
X133783557Y-93056466D01*
X133732037Y-92886627D01*
X133714641Y-92710000D01*
X133732037Y-92533373D01*
X133783557Y-92363534D01*
X133867222Y-92207009D01*
X133899631Y-92167519D01*
X133979814Y-92069814D01*
X134081271Y-91986552D01*
X134117009Y-91957222D01*
X134273534Y-91873557D01*
X134443373Y-91822037D01*
X134509558Y-91815518D01*
X134575740Y-91809000D01*
X134664260Y-91809000D01*
X134730442Y-91815518D01*
X134730442Y-91815518D01*
G37*
G36*
X154521000Y-93561000D02*
G01*
X152819000Y-93561000D01*
X152819000Y-91859000D01*
X154521000Y-91859000D01*
X154521000Y-93561000D01*
X154521000Y-93561000D01*
G37*
G36*
X146216823Y-91871313D02*
G01*
X146377242Y-91919976D01*
X146444361Y-91955852D01*
X146525078Y-91998996D01*
X146654659Y-92105341D01*
X146761004Y-92234922D01*
X146761005Y-92234924D01*
X146840024Y-92382758D01*
X146888687Y-92543177D01*
X146905117Y-92710000D01*
X146888687Y-92876823D01*
X146840024Y-93037242D01*
X146799477Y-93113100D01*
X146761004Y-93185078D01*
X146654659Y-93314659D01*
X146525078Y-93421004D01*
X146525076Y-93421005D01*
X146377242Y-93500024D01*
X146216823Y-93548687D01*
X146091804Y-93561000D01*
X146008196Y-93561000D01*
X145883177Y-93548687D01*
X145722758Y-93500024D01*
X145574924Y-93421005D01*
X145574922Y-93421004D01*
X145445341Y-93314659D01*
X145338996Y-93185078D01*
X145300523Y-93113100D01*
X145259976Y-93037242D01*
X145211313Y-92876823D01*
X145194883Y-92710000D01*
X145211313Y-92543177D01*
X145259976Y-92382758D01*
X145338995Y-92234924D01*
X145338996Y-92234922D01*
X145445341Y-92105341D01*
X145574922Y-91998996D01*
X145655639Y-91955852D01*
X145722758Y-91919976D01*
X145883177Y-91871313D01*
X146008196Y-91859000D01*
X146091804Y-91859000D01*
X146216823Y-91871313D01*
X146216823Y-91871313D01*
G37*
G36*
X160268228Y-91891703D02*
G01*
X160423100Y-91955853D01*
X160562481Y-92048985D01*
X160681015Y-92167519D01*
X160774147Y-92306900D01*
X160838297Y-92461772D01*
X160871000Y-92626184D01*
X160871000Y-92793816D01*
X160838297Y-92958228D01*
X160774147Y-93113100D01*
X160681015Y-93252481D01*
X160562481Y-93371015D01*
X160423100Y-93464147D01*
X160268228Y-93528297D01*
X160103816Y-93561000D01*
X159936184Y-93561000D01*
X159771772Y-93528297D01*
X159616900Y-93464147D01*
X159477519Y-93371015D01*
X159358985Y-93252481D01*
X159265853Y-93113100D01*
X159201703Y-92958228D01*
X159169000Y-92793816D01*
X159169000Y-92626184D01*
X159201703Y-92461772D01*
X159265853Y-92306900D01*
X159358985Y-92167519D01*
X159477519Y-92048985D01*
X159616900Y-91955853D01*
X159771772Y-91891703D01*
X159936184Y-91859000D01*
X160103816Y-91859000D01*
X160268228Y-91891703D01*
X160268228Y-91891703D01*
G37*
G36*
X167750443Y-89275519D02*
G01*
X167816627Y-89282037D01*
X167986466Y-89333557D01*
X168142991Y-89417222D01*
X168178729Y-89446552D01*
X168280186Y-89529814D01*
X168363448Y-89631271D01*
X168392778Y-89667009D01*
X168476443Y-89823534D01*
X168527963Y-89993373D01*
X168545359Y-90170000D01*
X168527963Y-90346627D01*
X168476443Y-90516466D01*
X168392778Y-90672991D01*
X168363448Y-90708729D01*
X168280186Y-90810186D01*
X168178729Y-90893448D01*
X168142991Y-90922778D01*
X167986466Y-91006443D01*
X167816627Y-91057963D01*
X167750442Y-91064482D01*
X167684260Y-91071000D01*
X167595740Y-91071000D01*
X167529558Y-91064482D01*
X167463373Y-91057963D01*
X167293534Y-91006443D01*
X167137009Y-90922778D01*
X167101271Y-90893448D01*
X166999814Y-90810186D01*
X166916552Y-90708729D01*
X166887222Y-90672991D01*
X166803557Y-90516466D01*
X166752037Y-90346627D01*
X166734641Y-90170000D01*
X166752037Y-89993373D01*
X166803557Y-89823534D01*
X166887222Y-89667009D01*
X166916552Y-89631271D01*
X166999814Y-89529814D01*
X167101271Y-89446552D01*
X167137009Y-89417222D01*
X167293534Y-89333557D01*
X167463373Y-89282037D01*
X167529557Y-89275519D01*
X167595740Y-89269000D01*
X167684260Y-89269000D01*
X167750443Y-89275519D01*
X167750443Y-89275519D01*
G37*
G36*
X165210443Y-89275519D02*
G01*
X165276627Y-89282037D01*
X165446466Y-89333557D01*
X165602991Y-89417222D01*
X165638729Y-89446552D01*
X165740186Y-89529814D01*
X165823448Y-89631271D01*
X165852778Y-89667009D01*
X165936443Y-89823534D01*
X165987963Y-89993373D01*
X166005359Y-90170000D01*
X165987963Y-90346627D01*
X165936443Y-90516466D01*
X165852778Y-90672991D01*
X165823448Y-90708729D01*
X165740186Y-90810186D01*
X165638729Y-90893448D01*
X165602991Y-90922778D01*
X165446466Y-91006443D01*
X165276627Y-91057963D01*
X165210442Y-91064482D01*
X165144260Y-91071000D01*
X165055740Y-91071000D01*
X164989558Y-91064482D01*
X164923373Y-91057963D01*
X164753534Y-91006443D01*
X164597009Y-90922778D01*
X164561271Y-90893448D01*
X164459814Y-90810186D01*
X164376552Y-90708729D01*
X164347222Y-90672991D01*
X164263557Y-90516466D01*
X164212037Y-90346627D01*
X164194641Y-90170000D01*
X164212037Y-89993373D01*
X164263557Y-89823534D01*
X164347222Y-89667009D01*
X164376552Y-89631271D01*
X164459814Y-89529814D01*
X164561271Y-89446552D01*
X164597009Y-89417222D01*
X164753534Y-89333557D01*
X164923373Y-89282037D01*
X164989557Y-89275519D01*
X165055740Y-89269000D01*
X165144260Y-89269000D01*
X165210443Y-89275519D01*
X165210443Y-89275519D01*
G37*
G36*
X137270443Y-89275519D02*
G01*
X137336627Y-89282037D01*
X137506466Y-89333557D01*
X137662991Y-89417222D01*
X137698729Y-89446552D01*
X137800186Y-89529814D01*
X137883448Y-89631271D01*
X137912778Y-89667009D01*
X137996443Y-89823534D01*
X138047963Y-89993373D01*
X138065359Y-90170000D01*
X138047963Y-90346627D01*
X137996443Y-90516466D01*
X137912778Y-90672991D01*
X137883448Y-90708729D01*
X137800186Y-90810186D01*
X137698729Y-90893448D01*
X137662991Y-90922778D01*
X137506466Y-91006443D01*
X137336627Y-91057963D01*
X137270442Y-91064482D01*
X137204260Y-91071000D01*
X137115740Y-91071000D01*
X137049558Y-91064482D01*
X136983373Y-91057963D01*
X136813534Y-91006443D01*
X136657009Y-90922778D01*
X136621271Y-90893448D01*
X136519814Y-90810186D01*
X136436552Y-90708729D01*
X136407222Y-90672991D01*
X136323557Y-90516466D01*
X136272037Y-90346627D01*
X136254641Y-90170000D01*
X136272037Y-89993373D01*
X136323557Y-89823534D01*
X136407222Y-89667009D01*
X136436552Y-89631271D01*
X136519814Y-89529814D01*
X136621271Y-89446552D01*
X136657009Y-89417222D01*
X136813534Y-89333557D01*
X136983373Y-89282037D01*
X137049557Y-89275519D01*
X137115740Y-89269000D01*
X137204260Y-89269000D01*
X137270443Y-89275519D01*
X137270443Y-89275519D01*
G37*
G36*
X135521000Y-91071000D02*
G01*
X133719000Y-91071000D01*
X133719000Y-89269000D01*
X135521000Y-89269000D01*
X135521000Y-91071000D01*
X135521000Y-91071000D01*
G37*
G36*
X153836823Y-89331313D02*
G01*
X153997242Y-89379976D01*
X154066922Y-89417221D01*
X154145078Y-89458996D01*
X154274659Y-89565341D01*
X154381004Y-89694922D01*
X154381005Y-89694924D01*
X154460024Y-89842758D01*
X154508687Y-90003177D01*
X154525117Y-90170000D01*
X154508687Y-90336823D01*
X154460024Y-90497242D01*
X154449747Y-90516468D01*
X154381004Y-90645078D01*
X154274659Y-90774659D01*
X154145078Y-90881004D01*
X154145076Y-90881005D01*
X153997242Y-90960024D01*
X153836823Y-91008687D01*
X153711804Y-91021000D01*
X153628196Y-91021000D01*
X153503177Y-91008687D01*
X153342758Y-90960024D01*
X153194924Y-90881005D01*
X153194922Y-90881004D01*
X153065341Y-90774659D01*
X152958996Y-90645078D01*
X152890253Y-90516468D01*
X152879976Y-90497242D01*
X152831313Y-90336823D01*
X152814883Y-90170000D01*
X152831313Y-90003177D01*
X152879976Y-89842758D01*
X152958995Y-89694924D01*
X152958996Y-89694922D01*
X153065341Y-89565341D01*
X153194922Y-89458996D01*
X153273078Y-89417221D01*
X153342758Y-89379976D01*
X153503177Y-89331313D01*
X153628196Y-89319000D01*
X153711804Y-89319000D01*
X153836823Y-89331313D01*
X153836823Y-89331313D01*
G37*
G36*
X146216823Y-89331313D02*
G01*
X146377242Y-89379976D01*
X146446922Y-89417221D01*
X146525078Y-89458996D01*
X146654659Y-89565341D01*
X146761004Y-89694922D01*
X146761005Y-89694924D01*
X146840024Y-89842758D01*
X146888687Y-90003177D01*
X146905117Y-90170000D01*
X146888687Y-90336823D01*
X146840024Y-90497242D01*
X146829747Y-90516468D01*
X146761004Y-90645078D01*
X146654659Y-90774659D01*
X146525078Y-90881004D01*
X146525076Y-90881005D01*
X146377242Y-90960024D01*
X146216823Y-91008687D01*
X146091804Y-91021000D01*
X146008196Y-91021000D01*
X145883177Y-91008687D01*
X145722758Y-90960024D01*
X145574924Y-90881005D01*
X145574922Y-90881004D01*
X145445341Y-90774659D01*
X145338996Y-90645078D01*
X145270253Y-90516468D01*
X145259976Y-90497242D01*
X145211313Y-90336823D01*
X145194883Y-90170000D01*
X145211313Y-90003177D01*
X145259976Y-89842758D01*
X145338995Y-89694924D01*
X145338996Y-89694922D01*
X145445341Y-89565341D01*
X145574922Y-89458996D01*
X145653078Y-89417221D01*
X145722758Y-89379976D01*
X145883177Y-89331313D01*
X146008196Y-89319000D01*
X146091804Y-89319000D01*
X146216823Y-89331313D01*
X146216823Y-89331313D01*
G37*
G36*
X165210442Y-86735518D02*
G01*
X165276627Y-86742037D01*
X165446466Y-86793557D01*
X165602991Y-86877222D01*
X165638729Y-86906552D01*
X165740186Y-86989814D01*
X165823448Y-87091271D01*
X165852778Y-87127009D01*
X165936443Y-87283534D01*
X165987963Y-87453373D01*
X166005359Y-87630000D01*
X165987963Y-87806627D01*
X165936443Y-87976466D01*
X165852778Y-88132991D01*
X165823448Y-88168729D01*
X165740186Y-88270186D01*
X165638729Y-88353448D01*
X165602991Y-88382778D01*
X165446466Y-88466443D01*
X165276627Y-88517963D01*
X165210442Y-88524482D01*
X165144260Y-88531000D01*
X165055740Y-88531000D01*
X164989558Y-88524482D01*
X164923373Y-88517963D01*
X164753534Y-88466443D01*
X164597009Y-88382778D01*
X164561271Y-88353448D01*
X164459814Y-88270186D01*
X164376552Y-88168729D01*
X164347222Y-88132991D01*
X164263557Y-87976466D01*
X164212037Y-87806627D01*
X164194641Y-87630000D01*
X164212037Y-87453373D01*
X164263557Y-87283534D01*
X164347222Y-87127009D01*
X164376552Y-87091271D01*
X164459814Y-86989814D01*
X164561271Y-86906552D01*
X164597009Y-86877222D01*
X164753534Y-86793557D01*
X164923373Y-86742037D01*
X164989558Y-86735518D01*
X165055740Y-86729000D01*
X165144260Y-86729000D01*
X165210442Y-86735518D01*
X165210442Y-86735518D01*
G37*
G36*
X167750442Y-86735518D02*
G01*
X167816627Y-86742037D01*
X167986466Y-86793557D01*
X168142991Y-86877222D01*
X168178729Y-86906552D01*
X168280186Y-86989814D01*
X168363448Y-87091271D01*
X168392778Y-87127009D01*
X168476443Y-87283534D01*
X168527963Y-87453373D01*
X168545359Y-87630000D01*
X168527963Y-87806627D01*
X168476443Y-87976466D01*
X168392778Y-88132991D01*
X168363448Y-88168729D01*
X168280186Y-88270186D01*
X168178729Y-88353448D01*
X168142991Y-88382778D01*
X167986466Y-88466443D01*
X167816627Y-88517963D01*
X167750442Y-88524482D01*
X167684260Y-88531000D01*
X167595740Y-88531000D01*
X167529558Y-88524482D01*
X167463373Y-88517963D01*
X167293534Y-88466443D01*
X167137009Y-88382778D01*
X167101271Y-88353448D01*
X166999814Y-88270186D01*
X166916552Y-88168729D01*
X166887222Y-88132991D01*
X166803557Y-87976466D01*
X166752037Y-87806627D01*
X166734641Y-87630000D01*
X166752037Y-87453373D01*
X166803557Y-87283534D01*
X166887222Y-87127009D01*
X166916552Y-87091271D01*
X166999814Y-86989814D01*
X167101271Y-86906552D01*
X167137009Y-86877222D01*
X167293534Y-86793557D01*
X167463373Y-86742037D01*
X167529558Y-86735518D01*
X167595740Y-86729000D01*
X167684260Y-86729000D01*
X167750442Y-86735518D01*
X167750442Y-86735518D01*
G37*
G36*
X153836823Y-86791313D02*
G01*
X153997242Y-86839976D01*
X154066922Y-86877221D01*
X154145078Y-86918996D01*
X154274659Y-87025341D01*
X154381004Y-87154922D01*
X154381005Y-87154924D01*
X154460024Y-87302758D01*
X154508687Y-87463177D01*
X154525117Y-87630000D01*
X154508687Y-87796823D01*
X154460024Y-87957242D01*
X154449747Y-87976468D01*
X154381004Y-88105078D01*
X154274659Y-88234659D01*
X154145078Y-88341004D01*
X154145076Y-88341005D01*
X153997242Y-88420024D01*
X153836823Y-88468687D01*
X153711804Y-88481000D01*
X153628196Y-88481000D01*
X153503177Y-88468687D01*
X153342758Y-88420024D01*
X153194924Y-88341005D01*
X153194922Y-88341004D01*
X153065341Y-88234659D01*
X152958996Y-88105078D01*
X152890253Y-87976468D01*
X152879976Y-87957242D01*
X152831313Y-87796823D01*
X152814883Y-87630000D01*
X152831313Y-87463177D01*
X152879976Y-87302758D01*
X152958995Y-87154924D01*
X152958996Y-87154922D01*
X153065341Y-87025341D01*
X153194922Y-86918996D01*
X153273078Y-86877221D01*
X153342758Y-86839976D01*
X153503177Y-86791313D01*
X153628196Y-86779000D01*
X153711804Y-86779000D01*
X153836823Y-86791313D01*
X153836823Y-86791313D01*
G37*
G36*
X146216823Y-86791313D02*
G01*
X146377242Y-86839976D01*
X146446922Y-86877221D01*
X146525078Y-86918996D01*
X146654659Y-87025341D01*
X146761004Y-87154922D01*
X146761005Y-87154924D01*
X146840024Y-87302758D01*
X146888687Y-87463177D01*
X146905117Y-87630000D01*
X146888687Y-87796823D01*
X146840024Y-87957242D01*
X146829747Y-87976468D01*
X146761004Y-88105078D01*
X146654659Y-88234659D01*
X146525078Y-88341004D01*
X146525076Y-88341005D01*
X146377242Y-88420024D01*
X146216823Y-88468687D01*
X146091804Y-88481000D01*
X146008196Y-88481000D01*
X145883177Y-88468687D01*
X145722758Y-88420024D01*
X145574924Y-88341005D01*
X145574922Y-88341004D01*
X145445341Y-88234659D01*
X145338996Y-88105078D01*
X145270253Y-87976468D01*
X145259976Y-87957242D01*
X145211313Y-87796823D01*
X145194883Y-87630000D01*
X145211313Y-87463177D01*
X145259976Y-87302758D01*
X145338995Y-87154924D01*
X145338996Y-87154922D01*
X145445341Y-87025341D01*
X145574922Y-86918996D01*
X145653078Y-86877221D01*
X145722758Y-86839976D01*
X145883177Y-86791313D01*
X146008196Y-86779000D01*
X146091804Y-86779000D01*
X146216823Y-86791313D01*
X146216823Y-86791313D01*
G37*
G36*
X134730442Y-84195518D02*
G01*
X134796627Y-84202037D01*
X134966466Y-84253557D01*
X135122991Y-84337222D01*
X135158729Y-84366552D01*
X135260186Y-84449814D01*
X135343448Y-84551271D01*
X135372778Y-84587009D01*
X135456443Y-84743534D01*
X135507963Y-84913373D01*
X135525359Y-85090000D01*
X135507963Y-85266627D01*
X135456443Y-85436466D01*
X135372778Y-85592991D01*
X135343448Y-85628729D01*
X135260186Y-85730186D01*
X135158729Y-85813448D01*
X135122991Y-85842778D01*
X134966466Y-85926443D01*
X134796627Y-85977963D01*
X134730442Y-85984482D01*
X134664260Y-85991000D01*
X134575740Y-85991000D01*
X134509558Y-85984482D01*
X134443373Y-85977963D01*
X134273534Y-85926443D01*
X134117009Y-85842778D01*
X134081271Y-85813448D01*
X133979814Y-85730186D01*
X133896552Y-85628729D01*
X133867222Y-85592991D01*
X133783557Y-85436466D01*
X133732037Y-85266627D01*
X133714641Y-85090000D01*
X133732037Y-84913373D01*
X133783557Y-84743534D01*
X133867222Y-84587009D01*
X133896552Y-84551271D01*
X133979814Y-84449814D01*
X134081271Y-84366552D01*
X134117009Y-84337222D01*
X134273534Y-84253557D01*
X134443373Y-84202037D01*
X134509558Y-84195518D01*
X134575740Y-84189000D01*
X134664260Y-84189000D01*
X134730442Y-84195518D01*
X134730442Y-84195518D01*
G37*
G36*
X167750442Y-84195518D02*
G01*
X167816627Y-84202037D01*
X167986466Y-84253557D01*
X168142991Y-84337222D01*
X168178729Y-84366552D01*
X168280186Y-84449814D01*
X168363448Y-84551271D01*
X168392778Y-84587009D01*
X168476443Y-84743534D01*
X168527963Y-84913373D01*
X168545359Y-85090000D01*
X168527963Y-85266627D01*
X168476443Y-85436466D01*
X168392778Y-85592991D01*
X168363448Y-85628729D01*
X168280186Y-85730186D01*
X168178729Y-85813448D01*
X168142991Y-85842778D01*
X167986466Y-85926443D01*
X167816627Y-85977963D01*
X167750442Y-85984482D01*
X167684260Y-85991000D01*
X167595740Y-85991000D01*
X167529558Y-85984482D01*
X167463373Y-85977963D01*
X167293534Y-85926443D01*
X167137009Y-85842778D01*
X167101271Y-85813448D01*
X166999814Y-85730186D01*
X166916552Y-85628729D01*
X166887222Y-85592991D01*
X166803557Y-85436466D01*
X166752037Y-85266627D01*
X166734641Y-85090000D01*
X166752037Y-84913373D01*
X166803557Y-84743534D01*
X166887222Y-84587009D01*
X166916552Y-84551271D01*
X166999814Y-84449814D01*
X167101271Y-84366552D01*
X167137009Y-84337222D01*
X167293534Y-84253557D01*
X167463373Y-84202037D01*
X167529558Y-84195518D01*
X167595740Y-84189000D01*
X167684260Y-84189000D01*
X167750442Y-84195518D01*
X167750442Y-84195518D01*
G37*
G36*
X165210442Y-84195518D02*
G01*
X165276627Y-84202037D01*
X165446466Y-84253557D01*
X165602991Y-84337222D01*
X165638729Y-84366552D01*
X165740186Y-84449814D01*
X165823448Y-84551271D01*
X165852778Y-84587009D01*
X165936443Y-84743534D01*
X165987963Y-84913373D01*
X166005359Y-85090000D01*
X165987963Y-85266627D01*
X165936443Y-85436466D01*
X165852778Y-85592991D01*
X165823448Y-85628729D01*
X165740186Y-85730186D01*
X165638729Y-85813448D01*
X165602991Y-85842778D01*
X165446466Y-85926443D01*
X165276627Y-85977963D01*
X165210442Y-85984482D01*
X165144260Y-85991000D01*
X165055740Y-85991000D01*
X164989558Y-85984482D01*
X164923373Y-85977963D01*
X164753534Y-85926443D01*
X164597009Y-85842778D01*
X164561271Y-85813448D01*
X164459814Y-85730186D01*
X164376552Y-85628729D01*
X164347222Y-85592991D01*
X164263557Y-85436466D01*
X164212037Y-85266627D01*
X164194641Y-85090000D01*
X164212037Y-84913373D01*
X164263557Y-84743534D01*
X164347222Y-84587009D01*
X164376552Y-84551271D01*
X164459814Y-84449814D01*
X164561271Y-84366552D01*
X164597009Y-84337222D01*
X164753534Y-84253557D01*
X164923373Y-84202037D01*
X164989558Y-84195518D01*
X165055740Y-84189000D01*
X165144260Y-84189000D01*
X165210442Y-84195518D01*
X165210442Y-84195518D01*
G37*
G36*
X137270442Y-84195518D02*
G01*
X137336627Y-84202037D01*
X137506466Y-84253557D01*
X137662991Y-84337222D01*
X137698729Y-84366552D01*
X137800186Y-84449814D01*
X137883448Y-84551271D01*
X137912778Y-84587009D01*
X137996443Y-84743534D01*
X138047963Y-84913373D01*
X138065359Y-85090000D01*
X138047963Y-85266627D01*
X137996443Y-85436466D01*
X137912778Y-85592991D01*
X137883448Y-85628729D01*
X137800186Y-85730186D01*
X137698729Y-85813448D01*
X137662991Y-85842778D01*
X137506466Y-85926443D01*
X137336627Y-85977963D01*
X137270442Y-85984482D01*
X137204260Y-85991000D01*
X137115740Y-85991000D01*
X137049558Y-85984482D01*
X136983373Y-85977963D01*
X136813534Y-85926443D01*
X136657009Y-85842778D01*
X136621271Y-85813448D01*
X136519814Y-85730186D01*
X136436552Y-85628729D01*
X136407222Y-85592991D01*
X136323557Y-85436466D01*
X136272037Y-85266627D01*
X136254641Y-85090000D01*
X136272037Y-84913373D01*
X136323557Y-84743534D01*
X136407222Y-84587009D01*
X136436552Y-84551271D01*
X136519814Y-84449814D01*
X136621271Y-84366552D01*
X136657009Y-84337222D01*
X136813534Y-84253557D01*
X136983373Y-84202037D01*
X137049558Y-84195518D01*
X137115740Y-84189000D01*
X137204260Y-84189000D01*
X137270442Y-84195518D01*
X137270442Y-84195518D01*
G37*
G36*
X166001000Y-83451000D02*
G01*
X164199000Y-83451000D01*
X164199000Y-81649000D01*
X166001000Y-81649000D01*
X166001000Y-83451000D01*
X166001000Y-83451000D01*
G37*
G36*
X167750443Y-81655519D02*
G01*
X167816627Y-81662037D01*
X167986466Y-81713557D01*
X168142991Y-81797222D01*
X168178729Y-81826552D01*
X168280186Y-81909814D01*
X168360369Y-82007519D01*
X168392778Y-82047009D01*
X168476443Y-82203534D01*
X168527963Y-82373373D01*
X168545359Y-82550000D01*
X168527963Y-82726627D01*
X168476443Y-82896466D01*
X168392778Y-83052991D01*
X168363448Y-83088729D01*
X168280186Y-83190186D01*
X168178729Y-83273448D01*
X168142991Y-83302778D01*
X167986466Y-83386443D01*
X167816627Y-83437963D01*
X167750443Y-83444481D01*
X167684260Y-83451000D01*
X167595740Y-83451000D01*
X167529557Y-83444481D01*
X167463373Y-83437963D01*
X167293534Y-83386443D01*
X167137009Y-83302778D01*
X167101271Y-83273448D01*
X166999814Y-83190186D01*
X166916552Y-83088729D01*
X166887222Y-83052991D01*
X166803557Y-82896466D01*
X166752037Y-82726627D01*
X166734641Y-82550000D01*
X166752037Y-82373373D01*
X166803557Y-82203534D01*
X166887222Y-82047009D01*
X166919631Y-82007519D01*
X166999814Y-81909814D01*
X167101271Y-81826552D01*
X167137009Y-81797222D01*
X167293534Y-81713557D01*
X167463373Y-81662037D01*
X167529557Y-81655519D01*
X167595740Y-81649000D01*
X167684260Y-81649000D01*
X167750443Y-81655519D01*
X167750443Y-81655519D01*
G37*
G36*
X137270443Y-81655519D02*
G01*
X137336627Y-81662037D01*
X137506466Y-81713557D01*
X137662991Y-81797222D01*
X137698729Y-81826552D01*
X137800186Y-81909814D01*
X137880369Y-82007519D01*
X137912778Y-82047009D01*
X137996443Y-82203534D01*
X138047963Y-82373373D01*
X138065359Y-82550000D01*
X138047963Y-82726627D01*
X137996443Y-82896466D01*
X137912778Y-83052991D01*
X137883448Y-83088729D01*
X137800186Y-83190186D01*
X137698729Y-83273448D01*
X137662991Y-83302778D01*
X137506466Y-83386443D01*
X137336627Y-83437963D01*
X137270443Y-83444481D01*
X137204260Y-83451000D01*
X137115740Y-83451000D01*
X137049557Y-83444481D01*
X136983373Y-83437963D01*
X136813534Y-83386443D01*
X136657009Y-83302778D01*
X136621271Y-83273448D01*
X136519814Y-83190186D01*
X136436552Y-83088729D01*
X136407222Y-83052991D01*
X136323557Y-82896466D01*
X136272037Y-82726627D01*
X136254641Y-82550000D01*
X136272037Y-82373373D01*
X136323557Y-82203534D01*
X136407222Y-82047009D01*
X136439631Y-82007519D01*
X136519814Y-81909814D01*
X136621271Y-81826552D01*
X136657009Y-81797222D01*
X136813534Y-81713557D01*
X136983373Y-81662037D01*
X137049557Y-81655519D01*
X137115740Y-81649000D01*
X137204260Y-81649000D01*
X137270443Y-81655519D01*
X137270443Y-81655519D01*
G37*
G36*
X135521000Y-83451000D02*
G01*
X133719000Y-83451000D01*
X133719000Y-81649000D01*
X135521000Y-81649000D01*
X135521000Y-83451000D01*
X135521000Y-83451000D01*
G37*
G36*
X144946823Y-81711313D02*
G01*
X145107242Y-81759976D01*
X145174361Y-81795852D01*
X145255078Y-81838996D01*
X145384659Y-81945341D01*
X145491004Y-82074922D01*
X145491005Y-82074924D01*
X145570024Y-82222758D01*
X145618687Y-82383177D01*
X145635117Y-82550000D01*
X145618687Y-82716823D01*
X145570024Y-82877242D01*
X145529477Y-82953100D01*
X145491004Y-83025078D01*
X145384659Y-83154659D01*
X145255078Y-83261004D01*
X145255076Y-83261005D01*
X145107242Y-83340024D01*
X144946823Y-83388687D01*
X144821804Y-83401000D01*
X144738196Y-83401000D01*
X144613177Y-83388687D01*
X144452758Y-83340024D01*
X144304924Y-83261005D01*
X144304922Y-83261004D01*
X144175341Y-83154659D01*
X144068996Y-83025078D01*
X144030523Y-82953100D01*
X143989976Y-82877242D01*
X143941313Y-82716823D01*
X143924883Y-82550000D01*
X143941313Y-82383177D01*
X143989976Y-82222758D01*
X144068995Y-82074924D01*
X144068996Y-82074922D01*
X144175341Y-81945341D01*
X144304922Y-81838996D01*
X144385639Y-81795852D01*
X144452758Y-81759976D01*
X144613177Y-81711313D01*
X144738196Y-81699000D01*
X144821804Y-81699000D01*
X144946823Y-81711313D01*
X144946823Y-81711313D01*
G37*
G36*
X155188228Y-81731703D02*
G01*
X155343100Y-81795853D01*
X155482481Y-81888985D01*
X155601015Y-82007519D01*
X155694147Y-82146900D01*
X155758297Y-82301772D01*
X155791000Y-82466184D01*
X155791000Y-82633816D01*
X155758297Y-82798228D01*
X155694147Y-82953100D01*
X155601015Y-83092481D01*
X155482481Y-83211015D01*
X155343100Y-83304147D01*
X155188228Y-83368297D01*
X155023816Y-83401000D01*
X154856184Y-83401000D01*
X154691772Y-83368297D01*
X154536900Y-83304147D01*
X154397519Y-83211015D01*
X154278985Y-83092481D01*
X154185853Y-82953100D01*
X154121703Y-82798228D01*
X154089000Y-82633816D01*
X154089000Y-82466184D01*
X154121703Y-82301772D01*
X154185853Y-82146900D01*
X154278985Y-82007519D01*
X154397519Y-81888985D01*
X154536900Y-81795853D01*
X154691772Y-81731703D01*
X154856184Y-81699000D01*
X155023816Y-81699000D01*
X155188228Y-81731703D01*
X155188228Y-81731703D01*
G37*
G36*
X160186823Y-81711313D02*
G01*
X160347242Y-81759976D01*
X160414361Y-81795852D01*
X160495078Y-81838996D01*
X160624659Y-81945341D01*
X160731004Y-82074922D01*
X160731005Y-82074924D01*
X160810024Y-82222758D01*
X160858687Y-82383177D01*
X160875117Y-82550000D01*
X160858687Y-82716823D01*
X160810024Y-82877242D01*
X160769477Y-82953100D01*
X160731004Y-83025078D01*
X160624659Y-83154659D01*
X160495078Y-83261004D01*
X160495076Y-83261005D01*
X160347242Y-83340024D01*
X160186823Y-83388687D01*
X160061804Y-83401000D01*
X159978196Y-83401000D01*
X159853177Y-83388687D01*
X159692758Y-83340024D01*
X159544924Y-83261005D01*
X159544922Y-83261004D01*
X159415341Y-83154659D01*
X159308996Y-83025078D01*
X159270523Y-82953100D01*
X159229976Y-82877242D01*
X159181313Y-82716823D01*
X159164883Y-82550000D01*
X159181313Y-82383177D01*
X159229976Y-82222758D01*
X159308995Y-82074924D01*
X159308996Y-82074922D01*
X159415341Y-81945341D01*
X159544922Y-81838996D01*
X159625639Y-81795852D01*
X159692758Y-81759976D01*
X159853177Y-81711313D01*
X159978196Y-81699000D01*
X160061804Y-81699000D01*
X160186823Y-81711313D01*
X160186823Y-81711313D01*
G37*
M02*
