G04 #@! TF.GenerationSoftware,KiCad,Pcbnew,(5.1.4)-1*
G04 #@! TF.CreationDate,2019-10-23T00:51:14+02:00*
G04 #@! TF.ProjectId,rpi_rpm,7270695f-7270-46d2-9e6b-696361645f70,rev?*
G04 #@! TF.SameCoordinates,Original*
G04 #@! TF.FileFunction,Soldermask,Bot*
G04 #@! TF.FilePolarity,Negative*
%FSLAX46Y46*%
G04 Gerber Fmt 4.6, Leading zero omitted, Abs format (unit mm)*
G04 Created by KiCad (PCBNEW (5.1.4)-1) date 2019-10-23 00:51:14*
%MOMM*%
%LPD*%
G04 APERTURE LIST*
%ADD10C,0.150000*%
G04 APERTURE END LIST*
D10*
G36*
X142488228Y-98241703D02*
G01*
X142643100Y-98305853D01*
X142782481Y-98398985D01*
X142901015Y-98517519D01*
X142994147Y-98656900D01*
X143058297Y-98811772D01*
X143091000Y-98976184D01*
X143091000Y-99143816D01*
X143058297Y-99308228D01*
X142994147Y-99463100D01*
X142901015Y-99602481D01*
X142782481Y-99721015D01*
X142643100Y-99814147D01*
X142488228Y-99878297D01*
X142323816Y-99911000D01*
X142156184Y-99911000D01*
X141991772Y-99878297D01*
X141836900Y-99814147D01*
X141697519Y-99721015D01*
X141578985Y-99602481D01*
X141485853Y-99463100D01*
X141421703Y-99308228D01*
X141389000Y-99143816D01*
X141389000Y-98976184D01*
X141421703Y-98811772D01*
X141485853Y-98656900D01*
X141578985Y-98517519D01*
X141697519Y-98398985D01*
X141836900Y-98305853D01*
X141991772Y-98241703D01*
X142156184Y-98209000D01*
X142323816Y-98209000D01*
X142488228Y-98241703D01*
X142488228Y-98241703D01*
G37*
G36*
X137408228Y-98241703D02*
G01*
X137563100Y-98305853D01*
X137702481Y-98398985D01*
X137821015Y-98517519D01*
X137914147Y-98656900D01*
X137978297Y-98811772D01*
X138011000Y-98976184D01*
X138011000Y-99143816D01*
X137978297Y-99308228D01*
X137914147Y-99463100D01*
X137821015Y-99602481D01*
X137702481Y-99721015D01*
X137563100Y-99814147D01*
X137408228Y-99878297D01*
X137243816Y-99911000D01*
X137076184Y-99911000D01*
X136911772Y-99878297D01*
X136756900Y-99814147D01*
X136617519Y-99721015D01*
X136498985Y-99602481D01*
X136405853Y-99463100D01*
X136341703Y-99308228D01*
X136309000Y-99143816D01*
X136309000Y-98976184D01*
X136341703Y-98811772D01*
X136405853Y-98656900D01*
X136498985Y-98517519D01*
X136617519Y-98398985D01*
X136756900Y-98305853D01*
X136911772Y-98241703D01*
X137076184Y-98209000D01*
X137243816Y-98209000D01*
X137408228Y-98241703D01*
X137408228Y-98241703D01*
G37*
G36*
X170290442Y-96895518D02*
G01*
X170356627Y-96902037D01*
X170526466Y-96953557D01*
X170682991Y-97037222D01*
X170718729Y-97066552D01*
X170820186Y-97149814D01*
X170903448Y-97251271D01*
X170932778Y-97287009D01*
X171016443Y-97443534D01*
X171067963Y-97613373D01*
X171085359Y-97790000D01*
X171067963Y-97966627D01*
X171016443Y-98136466D01*
X170932778Y-98292991D01*
X170922223Y-98305852D01*
X170820186Y-98430186D01*
X170718729Y-98513448D01*
X170682991Y-98542778D01*
X170526466Y-98626443D01*
X170356627Y-98677963D01*
X170290442Y-98684482D01*
X170224260Y-98691000D01*
X170135740Y-98691000D01*
X170069558Y-98684482D01*
X170003373Y-98677963D01*
X169833534Y-98626443D01*
X169677009Y-98542778D01*
X169641271Y-98513448D01*
X169539814Y-98430186D01*
X169437777Y-98305852D01*
X169427222Y-98292991D01*
X169343557Y-98136466D01*
X169292037Y-97966627D01*
X169274641Y-97790000D01*
X169292037Y-97613373D01*
X169343557Y-97443534D01*
X169427222Y-97287009D01*
X169456552Y-97251271D01*
X169539814Y-97149814D01*
X169641271Y-97066552D01*
X169677009Y-97037222D01*
X169833534Y-96953557D01*
X170003373Y-96902037D01*
X170069558Y-96895518D01*
X170135740Y-96889000D01*
X170224260Y-96889000D01*
X170290442Y-96895518D01*
X170290442Y-96895518D01*
G37*
G36*
X167750442Y-96895518D02*
G01*
X167816627Y-96902037D01*
X167986466Y-96953557D01*
X168142991Y-97037222D01*
X168178729Y-97066552D01*
X168280186Y-97149814D01*
X168363448Y-97251271D01*
X168392778Y-97287009D01*
X168476443Y-97443534D01*
X168527963Y-97613373D01*
X168545359Y-97790000D01*
X168527963Y-97966627D01*
X168476443Y-98136466D01*
X168392778Y-98292991D01*
X168382223Y-98305852D01*
X168280186Y-98430186D01*
X168178729Y-98513448D01*
X168142991Y-98542778D01*
X167986466Y-98626443D01*
X167816627Y-98677963D01*
X167750442Y-98684482D01*
X167684260Y-98691000D01*
X167595740Y-98691000D01*
X167529558Y-98684482D01*
X167463373Y-98677963D01*
X167293534Y-98626443D01*
X167137009Y-98542778D01*
X167101271Y-98513448D01*
X166999814Y-98430186D01*
X166897777Y-98305852D01*
X166887222Y-98292991D01*
X166803557Y-98136466D01*
X166752037Y-97966627D01*
X166734641Y-97790000D01*
X166752037Y-97613373D01*
X166803557Y-97443534D01*
X166887222Y-97287009D01*
X166916552Y-97251271D01*
X166999814Y-97149814D01*
X167101271Y-97066552D01*
X167137009Y-97037222D01*
X167293534Y-96953557D01*
X167463373Y-96902037D01*
X167529558Y-96895518D01*
X167595740Y-96889000D01*
X167684260Y-96889000D01*
X167750442Y-96895518D01*
X167750442Y-96895518D01*
G37*
G36*
X170290442Y-94355518D02*
G01*
X170356627Y-94362037D01*
X170526466Y-94413557D01*
X170682991Y-94497222D01*
X170718729Y-94526552D01*
X170820186Y-94609814D01*
X170903448Y-94711271D01*
X170932778Y-94747009D01*
X171016443Y-94903534D01*
X171067963Y-95073373D01*
X171085359Y-95250000D01*
X171067963Y-95426627D01*
X171016443Y-95596466D01*
X170932778Y-95752991D01*
X170903448Y-95788729D01*
X170820186Y-95890186D01*
X170718729Y-95973448D01*
X170682991Y-96002778D01*
X170526466Y-96086443D01*
X170356627Y-96137963D01*
X170290443Y-96144481D01*
X170224260Y-96151000D01*
X170135740Y-96151000D01*
X170069558Y-96144482D01*
X170003373Y-96137963D01*
X169833534Y-96086443D01*
X169677009Y-96002778D01*
X169641271Y-95973448D01*
X169539814Y-95890186D01*
X169456552Y-95788729D01*
X169427222Y-95752991D01*
X169343557Y-95596466D01*
X169292037Y-95426627D01*
X169274641Y-95250000D01*
X169292037Y-95073373D01*
X169343557Y-94903534D01*
X169427222Y-94747009D01*
X169456552Y-94711271D01*
X169539814Y-94609814D01*
X169641271Y-94526552D01*
X169677009Y-94497222D01*
X169833534Y-94413557D01*
X170003373Y-94362037D01*
X170069557Y-94355519D01*
X170135740Y-94349000D01*
X170224260Y-94349000D01*
X170290442Y-94355518D01*
X170290442Y-94355518D01*
G37*
G36*
X167750442Y-94355518D02*
G01*
X167816627Y-94362037D01*
X167986466Y-94413557D01*
X168142991Y-94497222D01*
X168178729Y-94526552D01*
X168280186Y-94609814D01*
X168363448Y-94711271D01*
X168392778Y-94747009D01*
X168476443Y-94903534D01*
X168527963Y-95073373D01*
X168545359Y-95250000D01*
X168527963Y-95426627D01*
X168476443Y-95596466D01*
X168392778Y-95752991D01*
X168363448Y-95788729D01*
X168280186Y-95890186D01*
X168178729Y-95973448D01*
X168142991Y-96002778D01*
X167986466Y-96086443D01*
X167816627Y-96137963D01*
X167750443Y-96144481D01*
X167684260Y-96151000D01*
X167595740Y-96151000D01*
X167529558Y-96144482D01*
X167463373Y-96137963D01*
X167293534Y-96086443D01*
X167137009Y-96002778D01*
X167101271Y-95973448D01*
X166999814Y-95890186D01*
X166916552Y-95788729D01*
X166887222Y-95752991D01*
X166803557Y-95596466D01*
X166752037Y-95426627D01*
X166734641Y-95250000D01*
X166752037Y-95073373D01*
X166803557Y-94903534D01*
X166887222Y-94747009D01*
X166916552Y-94711271D01*
X166999814Y-94609814D01*
X167101271Y-94526552D01*
X167137009Y-94497222D01*
X167293534Y-94413557D01*
X167463373Y-94362037D01*
X167529557Y-94355519D01*
X167595740Y-94349000D01*
X167684260Y-94349000D01*
X167750442Y-94355518D01*
X167750442Y-94355518D01*
G37*
G36*
X170290442Y-91815518D02*
G01*
X170356627Y-91822037D01*
X170526466Y-91873557D01*
X170682991Y-91957222D01*
X170718729Y-91986552D01*
X170820186Y-92069814D01*
X170900369Y-92167519D01*
X170932778Y-92207009D01*
X171016443Y-92363534D01*
X171067963Y-92533373D01*
X171085359Y-92710000D01*
X171067963Y-92886627D01*
X171016443Y-93056466D01*
X170932778Y-93212991D01*
X170903448Y-93248729D01*
X170820186Y-93350186D01*
X170718729Y-93433448D01*
X170682991Y-93462778D01*
X170526466Y-93546443D01*
X170356627Y-93597963D01*
X170290442Y-93604482D01*
X170224260Y-93611000D01*
X170135740Y-93611000D01*
X170069557Y-93604481D01*
X170003373Y-93597963D01*
X169833534Y-93546443D01*
X169677009Y-93462778D01*
X169641271Y-93433448D01*
X169539814Y-93350186D01*
X169456552Y-93248729D01*
X169427222Y-93212991D01*
X169343557Y-93056466D01*
X169292037Y-92886627D01*
X169274641Y-92710000D01*
X169292037Y-92533373D01*
X169343557Y-92363534D01*
X169427222Y-92207009D01*
X169459631Y-92167519D01*
X169539814Y-92069814D01*
X169641271Y-91986552D01*
X169677009Y-91957222D01*
X169833534Y-91873557D01*
X170003373Y-91822037D01*
X170069558Y-91815518D01*
X170135740Y-91809000D01*
X170224260Y-91809000D01*
X170290442Y-91815518D01*
X170290442Y-91815518D01*
G37*
G36*
X167750442Y-91815518D02*
G01*
X167816627Y-91822037D01*
X167986466Y-91873557D01*
X168142991Y-91957222D01*
X168178729Y-91986552D01*
X168280186Y-92069814D01*
X168360369Y-92167519D01*
X168392778Y-92207009D01*
X168476443Y-92363534D01*
X168527963Y-92533373D01*
X168545359Y-92710000D01*
X168527963Y-92886627D01*
X168476443Y-93056466D01*
X168392778Y-93212991D01*
X168363448Y-93248729D01*
X168280186Y-93350186D01*
X168178729Y-93433448D01*
X168142991Y-93462778D01*
X167986466Y-93546443D01*
X167816627Y-93597963D01*
X167750442Y-93604482D01*
X167684260Y-93611000D01*
X167595740Y-93611000D01*
X167529557Y-93604481D01*
X167463373Y-93597963D01*
X167293534Y-93546443D01*
X167137009Y-93462778D01*
X167101271Y-93433448D01*
X166999814Y-93350186D01*
X166916552Y-93248729D01*
X166887222Y-93212991D01*
X166803557Y-93056466D01*
X166752037Y-92886627D01*
X166734641Y-92710000D01*
X166752037Y-92533373D01*
X166803557Y-92363534D01*
X166887222Y-92207009D01*
X166919631Y-92167519D01*
X166999814Y-92069814D01*
X167101271Y-91986552D01*
X167137009Y-91957222D01*
X167293534Y-91873557D01*
X167463373Y-91822037D01*
X167529558Y-91815518D01*
X167595740Y-91809000D01*
X167684260Y-91809000D01*
X167750442Y-91815518D01*
X167750442Y-91815518D01*
G37*
G36*
X162808228Y-91891703D02*
G01*
X162963100Y-91955853D01*
X163102481Y-92048985D01*
X163221015Y-92167519D01*
X163314147Y-92306900D01*
X163378297Y-92461772D01*
X163411000Y-92626184D01*
X163411000Y-92793816D01*
X163378297Y-92958228D01*
X163314147Y-93113100D01*
X163221015Y-93252481D01*
X163102481Y-93371015D01*
X162963100Y-93464147D01*
X162808228Y-93528297D01*
X162643816Y-93561000D01*
X162476184Y-93561000D01*
X162311772Y-93528297D01*
X162156900Y-93464147D01*
X162017519Y-93371015D01*
X161898985Y-93252481D01*
X161805853Y-93113100D01*
X161741703Y-92958228D01*
X161709000Y-92793816D01*
X161709000Y-92626184D01*
X161741703Y-92461772D01*
X161805853Y-92306900D01*
X161898985Y-92167519D01*
X162017519Y-92048985D01*
X162156900Y-91955853D01*
X162311772Y-91891703D01*
X162476184Y-91859000D01*
X162643816Y-91859000D01*
X162808228Y-91891703D01*
X162808228Y-91891703D01*
G37*
G36*
X148756823Y-91871313D02*
G01*
X148917242Y-91919976D01*
X148984361Y-91955852D01*
X149065078Y-91998996D01*
X149194659Y-92105341D01*
X149301004Y-92234922D01*
X149301005Y-92234924D01*
X149380024Y-92382758D01*
X149428687Y-92543177D01*
X149445117Y-92710000D01*
X149428687Y-92876823D01*
X149380024Y-93037242D01*
X149339477Y-93113100D01*
X149301004Y-93185078D01*
X149194659Y-93314659D01*
X149065078Y-93421004D01*
X149065076Y-93421005D01*
X148917242Y-93500024D01*
X148756823Y-93548687D01*
X148631804Y-93561000D01*
X148548196Y-93561000D01*
X148423177Y-93548687D01*
X148262758Y-93500024D01*
X148114924Y-93421005D01*
X148114922Y-93421004D01*
X147985341Y-93314659D01*
X147878996Y-93185078D01*
X147840523Y-93113100D01*
X147799976Y-93037242D01*
X147751313Y-92876823D01*
X147734883Y-92710000D01*
X147751313Y-92543177D01*
X147799976Y-92382758D01*
X147878995Y-92234924D01*
X147878996Y-92234922D01*
X147985341Y-92105341D01*
X148114922Y-91998996D01*
X148195639Y-91955852D01*
X148262758Y-91919976D01*
X148423177Y-91871313D01*
X148548196Y-91859000D01*
X148631804Y-91859000D01*
X148756823Y-91871313D01*
X148756823Y-91871313D01*
G37*
G36*
X156376823Y-91871313D02*
G01*
X156537242Y-91919976D01*
X156604361Y-91955852D01*
X156685078Y-91998996D01*
X156814659Y-92105341D01*
X156921004Y-92234922D01*
X156921005Y-92234924D01*
X157000024Y-92382758D01*
X157048687Y-92543177D01*
X157065117Y-92710000D01*
X157048687Y-92876823D01*
X157000024Y-93037242D01*
X156959477Y-93113100D01*
X156921004Y-93185078D01*
X156814659Y-93314659D01*
X156685078Y-93421004D01*
X156685076Y-93421005D01*
X156537242Y-93500024D01*
X156376823Y-93548687D01*
X156251804Y-93561000D01*
X156168196Y-93561000D01*
X156043177Y-93548687D01*
X155882758Y-93500024D01*
X155734924Y-93421005D01*
X155734922Y-93421004D01*
X155605341Y-93314659D01*
X155498996Y-93185078D01*
X155460523Y-93113100D01*
X155419976Y-93037242D01*
X155371313Y-92876823D01*
X155354883Y-92710000D01*
X155371313Y-92543177D01*
X155419976Y-92382758D01*
X155498995Y-92234924D01*
X155498996Y-92234922D01*
X155605341Y-92105341D01*
X155734922Y-91998996D01*
X155815639Y-91955852D01*
X155882758Y-91919976D01*
X156043177Y-91871313D01*
X156168196Y-91859000D01*
X156251804Y-91859000D01*
X156376823Y-91871313D01*
X156376823Y-91871313D01*
G37*
G36*
X170290443Y-89275519D02*
G01*
X170356627Y-89282037D01*
X170526466Y-89333557D01*
X170682991Y-89417222D01*
X170718729Y-89446552D01*
X170820186Y-89529814D01*
X170903448Y-89631271D01*
X170932778Y-89667009D01*
X171016443Y-89823534D01*
X171067963Y-89993373D01*
X171085359Y-90170000D01*
X171067963Y-90346627D01*
X171016443Y-90516466D01*
X170932778Y-90672991D01*
X170903448Y-90708729D01*
X170820186Y-90810186D01*
X170718729Y-90893448D01*
X170682991Y-90922778D01*
X170526466Y-91006443D01*
X170356627Y-91057963D01*
X170290442Y-91064482D01*
X170224260Y-91071000D01*
X170135740Y-91071000D01*
X170069558Y-91064482D01*
X170003373Y-91057963D01*
X169833534Y-91006443D01*
X169677009Y-90922778D01*
X169641271Y-90893448D01*
X169539814Y-90810186D01*
X169456552Y-90708729D01*
X169427222Y-90672991D01*
X169343557Y-90516466D01*
X169292037Y-90346627D01*
X169274641Y-90170000D01*
X169292037Y-89993373D01*
X169343557Y-89823534D01*
X169427222Y-89667009D01*
X169456552Y-89631271D01*
X169539814Y-89529814D01*
X169641271Y-89446552D01*
X169677009Y-89417222D01*
X169833534Y-89333557D01*
X170003373Y-89282037D01*
X170069557Y-89275519D01*
X170135740Y-89269000D01*
X170224260Y-89269000D01*
X170290443Y-89275519D01*
X170290443Y-89275519D01*
G37*
G36*
X167750443Y-89275519D02*
G01*
X167816627Y-89282037D01*
X167986466Y-89333557D01*
X168142991Y-89417222D01*
X168178729Y-89446552D01*
X168280186Y-89529814D01*
X168363448Y-89631271D01*
X168392778Y-89667009D01*
X168476443Y-89823534D01*
X168527963Y-89993373D01*
X168545359Y-90170000D01*
X168527963Y-90346627D01*
X168476443Y-90516466D01*
X168392778Y-90672991D01*
X168363448Y-90708729D01*
X168280186Y-90810186D01*
X168178729Y-90893448D01*
X168142991Y-90922778D01*
X167986466Y-91006443D01*
X167816627Y-91057963D01*
X167750442Y-91064482D01*
X167684260Y-91071000D01*
X167595740Y-91071000D01*
X167529558Y-91064482D01*
X167463373Y-91057963D01*
X167293534Y-91006443D01*
X167137009Y-90922778D01*
X167101271Y-90893448D01*
X166999814Y-90810186D01*
X166916552Y-90708729D01*
X166887222Y-90672991D01*
X166803557Y-90516466D01*
X166752037Y-90346627D01*
X166734641Y-90170000D01*
X166752037Y-89993373D01*
X166803557Y-89823534D01*
X166887222Y-89667009D01*
X166916552Y-89631271D01*
X166999814Y-89529814D01*
X167101271Y-89446552D01*
X167137009Y-89417222D01*
X167293534Y-89333557D01*
X167463373Y-89282037D01*
X167529557Y-89275519D01*
X167595740Y-89269000D01*
X167684260Y-89269000D01*
X167750443Y-89275519D01*
X167750443Y-89275519D01*
G37*
G36*
X148756823Y-89331313D02*
G01*
X148917242Y-89379976D01*
X148986922Y-89417221D01*
X149065078Y-89458996D01*
X149194659Y-89565341D01*
X149301004Y-89694922D01*
X149301005Y-89694924D01*
X149380024Y-89842758D01*
X149428687Y-90003177D01*
X149445117Y-90170000D01*
X149428687Y-90336823D01*
X149380024Y-90497242D01*
X149369747Y-90516468D01*
X149301004Y-90645078D01*
X149194659Y-90774659D01*
X149065078Y-90881004D01*
X149065076Y-90881005D01*
X148917242Y-90960024D01*
X148756823Y-91008687D01*
X148631804Y-91021000D01*
X148548196Y-91021000D01*
X148423177Y-91008687D01*
X148262758Y-90960024D01*
X148114924Y-90881005D01*
X148114922Y-90881004D01*
X147985341Y-90774659D01*
X147878996Y-90645078D01*
X147810253Y-90516468D01*
X147799976Y-90497242D01*
X147751313Y-90336823D01*
X147734883Y-90170000D01*
X147751313Y-90003177D01*
X147799976Y-89842758D01*
X147878995Y-89694924D01*
X147878996Y-89694922D01*
X147985341Y-89565341D01*
X148114922Y-89458996D01*
X148193078Y-89417221D01*
X148262758Y-89379976D01*
X148423177Y-89331313D01*
X148548196Y-89319000D01*
X148631804Y-89319000D01*
X148756823Y-89331313D01*
X148756823Y-89331313D01*
G37*
G36*
X156376823Y-89331313D02*
G01*
X156537242Y-89379976D01*
X156606922Y-89417221D01*
X156685078Y-89458996D01*
X156814659Y-89565341D01*
X156921004Y-89694922D01*
X156921005Y-89694924D01*
X157000024Y-89842758D01*
X157048687Y-90003177D01*
X157065117Y-90170000D01*
X157048687Y-90336823D01*
X157000024Y-90497242D01*
X156989747Y-90516468D01*
X156921004Y-90645078D01*
X156814659Y-90774659D01*
X156685078Y-90881004D01*
X156685076Y-90881005D01*
X156537242Y-90960024D01*
X156376823Y-91008687D01*
X156251804Y-91021000D01*
X156168196Y-91021000D01*
X156043177Y-91008687D01*
X155882758Y-90960024D01*
X155734924Y-90881005D01*
X155734922Y-90881004D01*
X155605341Y-90774659D01*
X155498996Y-90645078D01*
X155430253Y-90516468D01*
X155419976Y-90497242D01*
X155371313Y-90336823D01*
X155354883Y-90170000D01*
X155371313Y-90003177D01*
X155419976Y-89842758D01*
X155498995Y-89694924D01*
X155498996Y-89694922D01*
X155605341Y-89565341D01*
X155734922Y-89458996D01*
X155813078Y-89417221D01*
X155882758Y-89379976D01*
X156043177Y-89331313D01*
X156168196Y-89319000D01*
X156251804Y-89319000D01*
X156376823Y-89331313D01*
X156376823Y-89331313D01*
G37*
G36*
X137326823Y-88061313D02*
G01*
X137487242Y-88109976D01*
X137619906Y-88180886D01*
X137635078Y-88188996D01*
X137764659Y-88295341D01*
X137871004Y-88424922D01*
X137871005Y-88424924D01*
X137950024Y-88572758D01*
X137998687Y-88733177D01*
X138015117Y-88900000D01*
X137998687Y-89066823D01*
X137950024Y-89227242D01*
X137920735Y-89282037D01*
X137871004Y-89375078D01*
X137764659Y-89504659D01*
X137635078Y-89611004D01*
X137635076Y-89611005D01*
X137487242Y-89690024D01*
X137326823Y-89738687D01*
X137201804Y-89751000D01*
X137118196Y-89751000D01*
X136993177Y-89738687D01*
X136832758Y-89690024D01*
X136684924Y-89611005D01*
X136684922Y-89611004D01*
X136555341Y-89504659D01*
X136448996Y-89375078D01*
X136399265Y-89282037D01*
X136369976Y-89227242D01*
X136321313Y-89066823D01*
X136304883Y-88900000D01*
X136321313Y-88733177D01*
X136369976Y-88572758D01*
X136448995Y-88424924D01*
X136448996Y-88424922D01*
X136555341Y-88295341D01*
X136684922Y-88188996D01*
X136700094Y-88180886D01*
X136832758Y-88109976D01*
X136993177Y-88061313D01*
X137118196Y-88049000D01*
X137201804Y-88049000D01*
X137326823Y-88061313D01*
X137326823Y-88061313D01*
G37*
G36*
X142406823Y-88061313D02*
G01*
X142567242Y-88109976D01*
X142699906Y-88180886D01*
X142715078Y-88188996D01*
X142844659Y-88295341D01*
X142951004Y-88424922D01*
X142951005Y-88424924D01*
X143030024Y-88572758D01*
X143078687Y-88733177D01*
X143095117Y-88900000D01*
X143078687Y-89066823D01*
X143030024Y-89227242D01*
X143000735Y-89282037D01*
X142951004Y-89375078D01*
X142844659Y-89504659D01*
X142715078Y-89611004D01*
X142715076Y-89611005D01*
X142567242Y-89690024D01*
X142406823Y-89738687D01*
X142281804Y-89751000D01*
X142198196Y-89751000D01*
X142073177Y-89738687D01*
X141912758Y-89690024D01*
X141764924Y-89611005D01*
X141764922Y-89611004D01*
X141635341Y-89504659D01*
X141528996Y-89375078D01*
X141479265Y-89282037D01*
X141449976Y-89227242D01*
X141401313Y-89066823D01*
X141384883Y-88900000D01*
X141401313Y-88733177D01*
X141449976Y-88572758D01*
X141528995Y-88424924D01*
X141528996Y-88424922D01*
X141635341Y-88295341D01*
X141764922Y-88188996D01*
X141780094Y-88180886D01*
X141912758Y-88109976D01*
X142073177Y-88061313D01*
X142198196Y-88049000D01*
X142281804Y-88049000D01*
X142406823Y-88061313D01*
X142406823Y-88061313D01*
G37*
G36*
X167750442Y-86735518D02*
G01*
X167816627Y-86742037D01*
X167986466Y-86793557D01*
X168142991Y-86877222D01*
X168178729Y-86906552D01*
X168280186Y-86989814D01*
X168363448Y-87091271D01*
X168392778Y-87127009D01*
X168476443Y-87283534D01*
X168527963Y-87453373D01*
X168545359Y-87630000D01*
X168527963Y-87806627D01*
X168476443Y-87976466D01*
X168392778Y-88132991D01*
X168363448Y-88168729D01*
X168280186Y-88270186D01*
X168178729Y-88353448D01*
X168142991Y-88382778D01*
X167986466Y-88466443D01*
X167816627Y-88517963D01*
X167750442Y-88524482D01*
X167684260Y-88531000D01*
X167595740Y-88531000D01*
X167529558Y-88524482D01*
X167463373Y-88517963D01*
X167293534Y-88466443D01*
X167137009Y-88382778D01*
X167101271Y-88353448D01*
X166999814Y-88270186D01*
X166916552Y-88168729D01*
X166887222Y-88132991D01*
X166803557Y-87976466D01*
X166752037Y-87806627D01*
X166734641Y-87630000D01*
X166752037Y-87453373D01*
X166803557Y-87283534D01*
X166887222Y-87127009D01*
X166916552Y-87091271D01*
X166999814Y-86989814D01*
X167101271Y-86906552D01*
X167137009Y-86877222D01*
X167293534Y-86793557D01*
X167463373Y-86742037D01*
X167529558Y-86735518D01*
X167595740Y-86729000D01*
X167684260Y-86729000D01*
X167750442Y-86735518D01*
X167750442Y-86735518D01*
G37*
G36*
X170290442Y-86735518D02*
G01*
X170356627Y-86742037D01*
X170526466Y-86793557D01*
X170682991Y-86877222D01*
X170718729Y-86906552D01*
X170820186Y-86989814D01*
X170903448Y-87091271D01*
X170932778Y-87127009D01*
X171016443Y-87283534D01*
X171067963Y-87453373D01*
X171085359Y-87630000D01*
X171067963Y-87806627D01*
X171016443Y-87976466D01*
X170932778Y-88132991D01*
X170903448Y-88168729D01*
X170820186Y-88270186D01*
X170718729Y-88353448D01*
X170682991Y-88382778D01*
X170526466Y-88466443D01*
X170356627Y-88517963D01*
X170290442Y-88524482D01*
X170224260Y-88531000D01*
X170135740Y-88531000D01*
X170069558Y-88524482D01*
X170003373Y-88517963D01*
X169833534Y-88466443D01*
X169677009Y-88382778D01*
X169641271Y-88353448D01*
X169539814Y-88270186D01*
X169456552Y-88168729D01*
X169427222Y-88132991D01*
X169343557Y-87976466D01*
X169292037Y-87806627D01*
X169274641Y-87630000D01*
X169292037Y-87453373D01*
X169343557Y-87283534D01*
X169427222Y-87127009D01*
X169456552Y-87091271D01*
X169539814Y-86989814D01*
X169641271Y-86906552D01*
X169677009Y-86877222D01*
X169833534Y-86793557D01*
X170003373Y-86742037D01*
X170069558Y-86735518D01*
X170135740Y-86729000D01*
X170224260Y-86729000D01*
X170290442Y-86735518D01*
X170290442Y-86735518D01*
G37*
G36*
X156376823Y-86791313D02*
G01*
X156537242Y-86839976D01*
X156606922Y-86877221D01*
X156685078Y-86918996D01*
X156814659Y-87025341D01*
X156921004Y-87154922D01*
X156921005Y-87154924D01*
X157000024Y-87302758D01*
X157048687Y-87463177D01*
X157065117Y-87630000D01*
X157048687Y-87796823D01*
X157000024Y-87957242D01*
X156989747Y-87976468D01*
X156921004Y-88105078D01*
X156814659Y-88234659D01*
X156685078Y-88341004D01*
X156685076Y-88341005D01*
X156537242Y-88420024D01*
X156376823Y-88468687D01*
X156251804Y-88481000D01*
X156168196Y-88481000D01*
X156043177Y-88468687D01*
X155882758Y-88420024D01*
X155734924Y-88341005D01*
X155734922Y-88341004D01*
X155605341Y-88234659D01*
X155498996Y-88105078D01*
X155430253Y-87976468D01*
X155419976Y-87957242D01*
X155371313Y-87796823D01*
X155354883Y-87630000D01*
X155371313Y-87463177D01*
X155419976Y-87302758D01*
X155498995Y-87154924D01*
X155498996Y-87154922D01*
X155605341Y-87025341D01*
X155734922Y-86918996D01*
X155813078Y-86877221D01*
X155882758Y-86839976D01*
X156043177Y-86791313D01*
X156168196Y-86779000D01*
X156251804Y-86779000D01*
X156376823Y-86791313D01*
X156376823Y-86791313D01*
G37*
G36*
X149441000Y-88481000D02*
G01*
X147739000Y-88481000D01*
X147739000Y-86779000D01*
X149441000Y-86779000D01*
X149441000Y-88481000D01*
X149441000Y-88481000D01*
G37*
G36*
X167750442Y-84195518D02*
G01*
X167816627Y-84202037D01*
X167986466Y-84253557D01*
X168142991Y-84337222D01*
X168178729Y-84366552D01*
X168280186Y-84449814D01*
X168363448Y-84551271D01*
X168392778Y-84587009D01*
X168476443Y-84743534D01*
X168527963Y-84913373D01*
X168545359Y-85090000D01*
X168527963Y-85266627D01*
X168476443Y-85436466D01*
X168392778Y-85592991D01*
X168363448Y-85628729D01*
X168280186Y-85730186D01*
X168178729Y-85813448D01*
X168142991Y-85842778D01*
X167986466Y-85926443D01*
X167816627Y-85977963D01*
X167750442Y-85984482D01*
X167684260Y-85991000D01*
X167595740Y-85991000D01*
X167529558Y-85984482D01*
X167463373Y-85977963D01*
X167293534Y-85926443D01*
X167137009Y-85842778D01*
X167101271Y-85813448D01*
X166999814Y-85730186D01*
X166916552Y-85628729D01*
X166887222Y-85592991D01*
X166803557Y-85436466D01*
X166752037Y-85266627D01*
X166734641Y-85090000D01*
X166752037Y-84913373D01*
X166803557Y-84743534D01*
X166887222Y-84587009D01*
X166916552Y-84551271D01*
X166999814Y-84449814D01*
X167101271Y-84366552D01*
X167137009Y-84337222D01*
X167293534Y-84253557D01*
X167463373Y-84202037D01*
X167529558Y-84195518D01*
X167595740Y-84189000D01*
X167684260Y-84189000D01*
X167750442Y-84195518D01*
X167750442Y-84195518D01*
G37*
G36*
X170290442Y-84195518D02*
G01*
X170356627Y-84202037D01*
X170526466Y-84253557D01*
X170682991Y-84337222D01*
X170718729Y-84366552D01*
X170820186Y-84449814D01*
X170903448Y-84551271D01*
X170932778Y-84587009D01*
X171016443Y-84743534D01*
X171067963Y-84913373D01*
X171085359Y-85090000D01*
X171067963Y-85266627D01*
X171016443Y-85436466D01*
X170932778Y-85592991D01*
X170903448Y-85628729D01*
X170820186Y-85730186D01*
X170718729Y-85813448D01*
X170682991Y-85842778D01*
X170526466Y-85926443D01*
X170356627Y-85977963D01*
X170290442Y-85984482D01*
X170224260Y-85991000D01*
X170135740Y-85991000D01*
X170069558Y-85984482D01*
X170003373Y-85977963D01*
X169833534Y-85926443D01*
X169677009Y-85842778D01*
X169641271Y-85813448D01*
X169539814Y-85730186D01*
X169456552Y-85628729D01*
X169427222Y-85592991D01*
X169343557Y-85436466D01*
X169292037Y-85266627D01*
X169274641Y-85090000D01*
X169292037Y-84913373D01*
X169343557Y-84743534D01*
X169427222Y-84587009D01*
X169456552Y-84551271D01*
X169539814Y-84449814D01*
X169641271Y-84366552D01*
X169677009Y-84337222D01*
X169833534Y-84253557D01*
X170003373Y-84202037D01*
X170069558Y-84195518D01*
X170135740Y-84189000D01*
X170224260Y-84189000D01*
X170290442Y-84195518D01*
X170290442Y-84195518D01*
G37*
G36*
X137270442Y-84195518D02*
G01*
X137336627Y-84202037D01*
X137506466Y-84253557D01*
X137662991Y-84337222D01*
X137698729Y-84366552D01*
X137800186Y-84449814D01*
X137883448Y-84551271D01*
X137912778Y-84587009D01*
X137996443Y-84743534D01*
X138047963Y-84913373D01*
X138065359Y-85090000D01*
X138047963Y-85266627D01*
X137996443Y-85436466D01*
X137912778Y-85592991D01*
X137883448Y-85628729D01*
X137800186Y-85730186D01*
X137698729Y-85813448D01*
X137662991Y-85842778D01*
X137506466Y-85926443D01*
X137336627Y-85977963D01*
X137270442Y-85984482D01*
X137204260Y-85991000D01*
X137115740Y-85991000D01*
X137049558Y-85984482D01*
X136983373Y-85977963D01*
X136813534Y-85926443D01*
X136657009Y-85842778D01*
X136621271Y-85813448D01*
X136519814Y-85730186D01*
X136436552Y-85628729D01*
X136407222Y-85592991D01*
X136323557Y-85436466D01*
X136272037Y-85266627D01*
X136254641Y-85090000D01*
X136272037Y-84913373D01*
X136323557Y-84743534D01*
X136407222Y-84587009D01*
X136436552Y-84551271D01*
X136519814Y-84449814D01*
X136621271Y-84366552D01*
X136657009Y-84337222D01*
X136813534Y-84253557D01*
X136983373Y-84202037D01*
X137049558Y-84195518D01*
X137115740Y-84189000D01*
X137204260Y-84189000D01*
X137270442Y-84195518D01*
X137270442Y-84195518D01*
G37*
G36*
X170290443Y-81655519D02*
G01*
X170356627Y-81662037D01*
X170526466Y-81713557D01*
X170682991Y-81797222D01*
X170718729Y-81826552D01*
X170820186Y-81909814D01*
X170900369Y-82007519D01*
X170932778Y-82047009D01*
X171016443Y-82203534D01*
X171067963Y-82373373D01*
X171085359Y-82550000D01*
X171067963Y-82726627D01*
X171016443Y-82896466D01*
X170932778Y-83052991D01*
X170903448Y-83088729D01*
X170820186Y-83190186D01*
X170718729Y-83273448D01*
X170682991Y-83302778D01*
X170526466Y-83386443D01*
X170356627Y-83437963D01*
X170290443Y-83444481D01*
X170224260Y-83451000D01*
X170135740Y-83451000D01*
X170069557Y-83444481D01*
X170003373Y-83437963D01*
X169833534Y-83386443D01*
X169677009Y-83302778D01*
X169641271Y-83273448D01*
X169539814Y-83190186D01*
X169456552Y-83088729D01*
X169427222Y-83052991D01*
X169343557Y-82896466D01*
X169292037Y-82726627D01*
X169274641Y-82550000D01*
X169292037Y-82373373D01*
X169343557Y-82203534D01*
X169427222Y-82047009D01*
X169459631Y-82007519D01*
X169539814Y-81909814D01*
X169641271Y-81826552D01*
X169677009Y-81797222D01*
X169833534Y-81713557D01*
X170003373Y-81662037D01*
X170069557Y-81655519D01*
X170135740Y-81649000D01*
X170224260Y-81649000D01*
X170290443Y-81655519D01*
X170290443Y-81655519D01*
G37*
G36*
X167750443Y-81655519D02*
G01*
X167816627Y-81662037D01*
X167986466Y-81713557D01*
X168142991Y-81797222D01*
X168178729Y-81826552D01*
X168280186Y-81909814D01*
X168360369Y-82007519D01*
X168392778Y-82047009D01*
X168476443Y-82203534D01*
X168527963Y-82373373D01*
X168545359Y-82550000D01*
X168527963Y-82726627D01*
X168476443Y-82896466D01*
X168392778Y-83052991D01*
X168363448Y-83088729D01*
X168280186Y-83190186D01*
X168178729Y-83273448D01*
X168142991Y-83302778D01*
X167986466Y-83386443D01*
X167816627Y-83437963D01*
X167750443Y-83444481D01*
X167684260Y-83451000D01*
X167595740Y-83451000D01*
X167529557Y-83444481D01*
X167463373Y-83437963D01*
X167293534Y-83386443D01*
X167137009Y-83302778D01*
X167101271Y-83273448D01*
X166999814Y-83190186D01*
X166916552Y-83088729D01*
X166887222Y-83052991D01*
X166803557Y-82896466D01*
X166752037Y-82726627D01*
X166734641Y-82550000D01*
X166752037Y-82373373D01*
X166803557Y-82203534D01*
X166887222Y-82047009D01*
X166919631Y-82007519D01*
X166999814Y-81909814D01*
X167101271Y-81826552D01*
X167137009Y-81797222D01*
X167293534Y-81713557D01*
X167463373Y-81662037D01*
X167529557Y-81655519D01*
X167595740Y-81649000D01*
X167684260Y-81649000D01*
X167750443Y-81655519D01*
X167750443Y-81655519D01*
G37*
G36*
X138061000Y-83451000D02*
G01*
X136259000Y-83451000D01*
X136259000Y-81649000D01*
X138061000Y-81649000D01*
X138061000Y-83451000D01*
X138061000Y-83451000D01*
G37*
G36*
X157728228Y-81731703D02*
G01*
X157883100Y-81795853D01*
X158022481Y-81888985D01*
X158141015Y-82007519D01*
X158234147Y-82146900D01*
X158298297Y-82301772D01*
X158331000Y-82466184D01*
X158331000Y-82633816D01*
X158298297Y-82798228D01*
X158234147Y-82953100D01*
X158141015Y-83092481D01*
X158022481Y-83211015D01*
X157883100Y-83304147D01*
X157728228Y-83368297D01*
X157563816Y-83401000D01*
X157396184Y-83401000D01*
X157231772Y-83368297D01*
X157076900Y-83304147D01*
X156937519Y-83211015D01*
X156818985Y-83092481D01*
X156725853Y-82953100D01*
X156661703Y-82798228D01*
X156629000Y-82633816D01*
X156629000Y-82466184D01*
X156661703Y-82301772D01*
X156725853Y-82146900D01*
X156818985Y-82007519D01*
X156937519Y-81888985D01*
X157076900Y-81795853D01*
X157231772Y-81731703D01*
X157396184Y-81699000D01*
X157563816Y-81699000D01*
X157728228Y-81731703D01*
X157728228Y-81731703D01*
G37*
G36*
X147486823Y-81711313D02*
G01*
X147647242Y-81759976D01*
X147714361Y-81795852D01*
X147795078Y-81838996D01*
X147924659Y-81945341D01*
X148031004Y-82074922D01*
X148031005Y-82074924D01*
X148110024Y-82222758D01*
X148158687Y-82383177D01*
X148175117Y-82550000D01*
X148158687Y-82716823D01*
X148110024Y-82877242D01*
X148069477Y-82953100D01*
X148031004Y-83025078D01*
X147924659Y-83154659D01*
X147795078Y-83261004D01*
X147795076Y-83261005D01*
X147647242Y-83340024D01*
X147486823Y-83388687D01*
X147361804Y-83401000D01*
X147278196Y-83401000D01*
X147153177Y-83388687D01*
X146992758Y-83340024D01*
X146844924Y-83261005D01*
X146844922Y-83261004D01*
X146715341Y-83154659D01*
X146608996Y-83025078D01*
X146570523Y-82953100D01*
X146529976Y-82877242D01*
X146481313Y-82716823D01*
X146464883Y-82550000D01*
X146481313Y-82383177D01*
X146529976Y-82222758D01*
X146608995Y-82074924D01*
X146608996Y-82074922D01*
X146715341Y-81945341D01*
X146844922Y-81838996D01*
X146925639Y-81795852D01*
X146992758Y-81759976D01*
X147153177Y-81711313D01*
X147278196Y-81699000D01*
X147361804Y-81699000D01*
X147486823Y-81711313D01*
X147486823Y-81711313D01*
G37*
G36*
X162726823Y-81711313D02*
G01*
X162887242Y-81759976D01*
X162954361Y-81795852D01*
X163035078Y-81838996D01*
X163164659Y-81945341D01*
X163271004Y-82074922D01*
X163271005Y-82074924D01*
X163350024Y-82222758D01*
X163398687Y-82383177D01*
X163415117Y-82550000D01*
X163398687Y-82716823D01*
X163350024Y-82877242D01*
X163309477Y-82953100D01*
X163271004Y-83025078D01*
X163164659Y-83154659D01*
X163035078Y-83261004D01*
X163035076Y-83261005D01*
X162887242Y-83340024D01*
X162726823Y-83388687D01*
X162601804Y-83401000D01*
X162518196Y-83401000D01*
X162393177Y-83388687D01*
X162232758Y-83340024D01*
X162084924Y-83261005D01*
X162084922Y-83261004D01*
X161955341Y-83154659D01*
X161848996Y-83025078D01*
X161810523Y-82953100D01*
X161769976Y-82877242D01*
X161721313Y-82716823D01*
X161704883Y-82550000D01*
X161721313Y-82383177D01*
X161769976Y-82222758D01*
X161848995Y-82074924D01*
X161848996Y-82074922D01*
X161955341Y-81945341D01*
X162084922Y-81838996D01*
X162165639Y-81795852D01*
X162232758Y-81759976D01*
X162393177Y-81711313D01*
X162518196Y-81699000D01*
X162601804Y-81699000D01*
X162726823Y-81711313D01*
X162726823Y-81711313D01*
G37*
G36*
X167750443Y-79115519D02*
G01*
X167816627Y-79122037D01*
X167986466Y-79173557D01*
X168142991Y-79257222D01*
X168178729Y-79286552D01*
X168280186Y-79369814D01*
X168363448Y-79471271D01*
X168392778Y-79507009D01*
X168476443Y-79663534D01*
X168527963Y-79833373D01*
X168545359Y-80010000D01*
X168527963Y-80186627D01*
X168476443Y-80356466D01*
X168392778Y-80512991D01*
X168363448Y-80548729D01*
X168280186Y-80650186D01*
X168178729Y-80733448D01*
X168142991Y-80762778D01*
X167986466Y-80846443D01*
X167816627Y-80897963D01*
X167750442Y-80904482D01*
X167684260Y-80911000D01*
X167595740Y-80911000D01*
X167529558Y-80904482D01*
X167463373Y-80897963D01*
X167293534Y-80846443D01*
X167137009Y-80762778D01*
X167101271Y-80733448D01*
X166999814Y-80650186D01*
X166916552Y-80548729D01*
X166887222Y-80512991D01*
X166803557Y-80356466D01*
X166752037Y-80186627D01*
X166734641Y-80010000D01*
X166752037Y-79833373D01*
X166803557Y-79663534D01*
X166887222Y-79507009D01*
X166916552Y-79471271D01*
X166999814Y-79369814D01*
X167101271Y-79286552D01*
X167137009Y-79257222D01*
X167293534Y-79173557D01*
X167463373Y-79122037D01*
X167529557Y-79115519D01*
X167595740Y-79109000D01*
X167684260Y-79109000D01*
X167750443Y-79115519D01*
X167750443Y-79115519D01*
G37*
G36*
X170290443Y-79115519D02*
G01*
X170356627Y-79122037D01*
X170526466Y-79173557D01*
X170682991Y-79257222D01*
X170718729Y-79286552D01*
X170820186Y-79369814D01*
X170903448Y-79471271D01*
X170932778Y-79507009D01*
X171016443Y-79663534D01*
X171067963Y-79833373D01*
X171085359Y-80010000D01*
X171067963Y-80186627D01*
X171016443Y-80356466D01*
X170932778Y-80512991D01*
X170903448Y-80548729D01*
X170820186Y-80650186D01*
X170718729Y-80733448D01*
X170682991Y-80762778D01*
X170526466Y-80846443D01*
X170356627Y-80897963D01*
X170290442Y-80904482D01*
X170224260Y-80911000D01*
X170135740Y-80911000D01*
X170069558Y-80904482D01*
X170003373Y-80897963D01*
X169833534Y-80846443D01*
X169677009Y-80762778D01*
X169641271Y-80733448D01*
X169539814Y-80650186D01*
X169456552Y-80548729D01*
X169427222Y-80512991D01*
X169343557Y-80356466D01*
X169292037Y-80186627D01*
X169274641Y-80010000D01*
X169292037Y-79833373D01*
X169343557Y-79663534D01*
X169427222Y-79507009D01*
X169456552Y-79471271D01*
X169539814Y-79369814D01*
X169641271Y-79286552D01*
X169677009Y-79257222D01*
X169833534Y-79173557D01*
X170003373Y-79122037D01*
X170069557Y-79115519D01*
X170135740Y-79109000D01*
X170224260Y-79109000D01*
X170290443Y-79115519D01*
X170290443Y-79115519D01*
G37*
G36*
X170290443Y-76575519D02*
G01*
X170356627Y-76582037D01*
X170526466Y-76633557D01*
X170682991Y-76717222D01*
X170718729Y-76746552D01*
X170820186Y-76829814D01*
X170900369Y-76927519D01*
X170932778Y-76967009D01*
X171016443Y-77123534D01*
X171067963Y-77293373D01*
X171085359Y-77470000D01*
X171067963Y-77646627D01*
X171016443Y-77816466D01*
X170932778Y-77972991D01*
X170903448Y-78008729D01*
X170820186Y-78110186D01*
X170718729Y-78193448D01*
X170682991Y-78222778D01*
X170526466Y-78306443D01*
X170356627Y-78357963D01*
X170290443Y-78364481D01*
X170224260Y-78371000D01*
X170135740Y-78371000D01*
X170069557Y-78364481D01*
X170003373Y-78357963D01*
X169833534Y-78306443D01*
X169677009Y-78222778D01*
X169641271Y-78193448D01*
X169539814Y-78110186D01*
X169456552Y-78008729D01*
X169427222Y-77972991D01*
X169343557Y-77816466D01*
X169292037Y-77646627D01*
X169274641Y-77470000D01*
X169292037Y-77293373D01*
X169343557Y-77123534D01*
X169427222Y-76967009D01*
X169459631Y-76927519D01*
X169539814Y-76829814D01*
X169641271Y-76746552D01*
X169677009Y-76717222D01*
X169833534Y-76633557D01*
X170003373Y-76582037D01*
X170069557Y-76575519D01*
X170135740Y-76569000D01*
X170224260Y-76569000D01*
X170290443Y-76575519D01*
X170290443Y-76575519D01*
G37*
G36*
X167750443Y-76575519D02*
G01*
X167816627Y-76582037D01*
X167986466Y-76633557D01*
X168142991Y-76717222D01*
X168178729Y-76746552D01*
X168280186Y-76829814D01*
X168360369Y-76927519D01*
X168392778Y-76967009D01*
X168476443Y-77123534D01*
X168527963Y-77293373D01*
X168545359Y-77470000D01*
X168527963Y-77646627D01*
X168476443Y-77816466D01*
X168392778Y-77972991D01*
X168363448Y-78008729D01*
X168280186Y-78110186D01*
X168178729Y-78193448D01*
X168142991Y-78222778D01*
X167986466Y-78306443D01*
X167816627Y-78357963D01*
X167750443Y-78364481D01*
X167684260Y-78371000D01*
X167595740Y-78371000D01*
X167529557Y-78364481D01*
X167463373Y-78357963D01*
X167293534Y-78306443D01*
X167137009Y-78222778D01*
X167101271Y-78193448D01*
X166999814Y-78110186D01*
X166916552Y-78008729D01*
X166887222Y-77972991D01*
X166803557Y-77816466D01*
X166752037Y-77646627D01*
X166734641Y-77470000D01*
X166752037Y-77293373D01*
X166803557Y-77123534D01*
X166887222Y-76967009D01*
X166919631Y-76927519D01*
X166999814Y-76829814D01*
X167101271Y-76746552D01*
X167137009Y-76717222D01*
X167293534Y-76633557D01*
X167463373Y-76582037D01*
X167529557Y-76575519D01*
X167595740Y-76569000D01*
X167684260Y-76569000D01*
X167750443Y-76575519D01*
X167750443Y-76575519D01*
G37*
G36*
X137270443Y-76575519D02*
G01*
X137336627Y-76582037D01*
X137506466Y-76633557D01*
X137662991Y-76717222D01*
X137698729Y-76746552D01*
X137800186Y-76829814D01*
X137880369Y-76927519D01*
X137912778Y-76967009D01*
X137996443Y-77123534D01*
X138047963Y-77293373D01*
X138065359Y-77470000D01*
X138047963Y-77646627D01*
X137996443Y-77816466D01*
X137912778Y-77972991D01*
X137883448Y-78008729D01*
X137800186Y-78110186D01*
X137698729Y-78193448D01*
X137662991Y-78222778D01*
X137506466Y-78306443D01*
X137336627Y-78357963D01*
X137270443Y-78364481D01*
X137204260Y-78371000D01*
X137115740Y-78371000D01*
X137049557Y-78364481D01*
X136983373Y-78357963D01*
X136813534Y-78306443D01*
X136657009Y-78222778D01*
X136621271Y-78193448D01*
X136519814Y-78110186D01*
X136436552Y-78008729D01*
X136407222Y-77972991D01*
X136323557Y-77816466D01*
X136272037Y-77646627D01*
X136254641Y-77470000D01*
X136272037Y-77293373D01*
X136323557Y-77123534D01*
X136407222Y-76967009D01*
X136439631Y-76927519D01*
X136519814Y-76829814D01*
X136621271Y-76746552D01*
X136657009Y-76717222D01*
X136813534Y-76633557D01*
X136983373Y-76582037D01*
X137049557Y-76575519D01*
X137115740Y-76569000D01*
X137204260Y-76569000D01*
X137270443Y-76575519D01*
X137270443Y-76575519D01*
G37*
G36*
X162808228Y-76651703D02*
G01*
X162963100Y-76715853D01*
X163102481Y-76808985D01*
X163221015Y-76927519D01*
X163314147Y-77066900D01*
X163378297Y-77221772D01*
X163411000Y-77386184D01*
X163411000Y-77553816D01*
X163378297Y-77718228D01*
X163314147Y-77873100D01*
X163221015Y-78012481D01*
X163102481Y-78131015D01*
X162963100Y-78224147D01*
X162808228Y-78288297D01*
X162643816Y-78321000D01*
X162476184Y-78321000D01*
X162311772Y-78288297D01*
X162156900Y-78224147D01*
X162017519Y-78131015D01*
X161898985Y-78012481D01*
X161805853Y-77873100D01*
X161741703Y-77718228D01*
X161709000Y-77553816D01*
X161709000Y-77386184D01*
X161741703Y-77221772D01*
X161805853Y-77066900D01*
X161898985Y-76927519D01*
X162017519Y-76808985D01*
X162156900Y-76715853D01*
X162311772Y-76651703D01*
X162476184Y-76619000D01*
X162643816Y-76619000D01*
X162808228Y-76651703D01*
X162808228Y-76651703D01*
G37*
G36*
X156376823Y-76631313D02*
G01*
X156537242Y-76679976D01*
X156604361Y-76715852D01*
X156685078Y-76758996D01*
X156814659Y-76865341D01*
X156921004Y-76994922D01*
X156921005Y-76994924D01*
X157000024Y-77142758D01*
X157048687Y-77303177D01*
X157065117Y-77470000D01*
X157048687Y-77636823D01*
X157000024Y-77797242D01*
X156959477Y-77873100D01*
X156921004Y-77945078D01*
X156814659Y-78074659D01*
X156685078Y-78181004D01*
X156685076Y-78181005D01*
X156537242Y-78260024D01*
X156376823Y-78308687D01*
X156251804Y-78321000D01*
X156168196Y-78321000D01*
X156043177Y-78308687D01*
X155882758Y-78260024D01*
X155734924Y-78181005D01*
X155734922Y-78181004D01*
X155605341Y-78074659D01*
X155498996Y-77945078D01*
X155460523Y-77873100D01*
X155419976Y-77797242D01*
X155371313Y-77636823D01*
X155354883Y-77470000D01*
X155371313Y-77303177D01*
X155419976Y-77142758D01*
X155498995Y-76994924D01*
X155498996Y-76994922D01*
X155605341Y-76865341D01*
X155734922Y-76758996D01*
X155815639Y-76715852D01*
X155882758Y-76679976D01*
X156043177Y-76631313D01*
X156168196Y-76619000D01*
X156251804Y-76619000D01*
X156376823Y-76631313D01*
X156376823Y-76631313D01*
G37*
G36*
X148756823Y-76631313D02*
G01*
X148917242Y-76679976D01*
X148984361Y-76715852D01*
X149065078Y-76758996D01*
X149194659Y-76865341D01*
X149301004Y-76994922D01*
X149301005Y-76994924D01*
X149380024Y-77142758D01*
X149428687Y-77303177D01*
X149445117Y-77470000D01*
X149428687Y-77636823D01*
X149380024Y-77797242D01*
X149339477Y-77873100D01*
X149301004Y-77945078D01*
X149194659Y-78074659D01*
X149065078Y-78181004D01*
X149065076Y-78181005D01*
X148917242Y-78260024D01*
X148756823Y-78308687D01*
X148631804Y-78321000D01*
X148548196Y-78321000D01*
X148423177Y-78308687D01*
X148262758Y-78260024D01*
X148114924Y-78181005D01*
X148114922Y-78181004D01*
X147985341Y-78074659D01*
X147878996Y-77945078D01*
X147840523Y-77873100D01*
X147799976Y-77797242D01*
X147751313Y-77636823D01*
X147734883Y-77470000D01*
X147751313Y-77303177D01*
X147799976Y-77142758D01*
X147878995Y-76994924D01*
X147878996Y-76994922D01*
X147985341Y-76865341D01*
X148114922Y-76758996D01*
X148195639Y-76715852D01*
X148262758Y-76679976D01*
X148423177Y-76631313D01*
X148548196Y-76619000D01*
X148631804Y-76619000D01*
X148756823Y-76631313D01*
X148756823Y-76631313D01*
G37*
G36*
X167750442Y-74035518D02*
G01*
X167816627Y-74042037D01*
X167986466Y-74093557D01*
X168142991Y-74177222D01*
X168178729Y-74206552D01*
X168280186Y-74289814D01*
X168363448Y-74391271D01*
X168392778Y-74427009D01*
X168476443Y-74583534D01*
X168527963Y-74753373D01*
X168545359Y-74930000D01*
X168527963Y-75106627D01*
X168476443Y-75276466D01*
X168392778Y-75432991D01*
X168363448Y-75468729D01*
X168280186Y-75570186D01*
X168178729Y-75653448D01*
X168142991Y-75682778D01*
X167986466Y-75766443D01*
X167816627Y-75817963D01*
X167750442Y-75824482D01*
X167684260Y-75831000D01*
X167595740Y-75831000D01*
X167529558Y-75824482D01*
X167463373Y-75817963D01*
X167293534Y-75766443D01*
X167137009Y-75682778D01*
X167101271Y-75653448D01*
X166999814Y-75570186D01*
X166916552Y-75468729D01*
X166887222Y-75432991D01*
X166803557Y-75276466D01*
X166752037Y-75106627D01*
X166734641Y-74930000D01*
X166752037Y-74753373D01*
X166803557Y-74583534D01*
X166887222Y-74427009D01*
X166916552Y-74391271D01*
X166999814Y-74289814D01*
X167101271Y-74206552D01*
X167137009Y-74177222D01*
X167293534Y-74093557D01*
X167463373Y-74042037D01*
X167529558Y-74035518D01*
X167595740Y-74029000D01*
X167684260Y-74029000D01*
X167750442Y-74035518D01*
X167750442Y-74035518D01*
G37*
G36*
X138061000Y-75831000D02*
G01*
X136259000Y-75831000D01*
X136259000Y-74029000D01*
X138061000Y-74029000D01*
X138061000Y-75831000D01*
X138061000Y-75831000D01*
G37*
G36*
X170290442Y-74035518D02*
G01*
X170356627Y-74042037D01*
X170526466Y-74093557D01*
X170682991Y-74177222D01*
X170718729Y-74206552D01*
X170820186Y-74289814D01*
X170903448Y-74391271D01*
X170932778Y-74427009D01*
X171016443Y-74583534D01*
X171067963Y-74753373D01*
X171085359Y-74930000D01*
X171067963Y-75106627D01*
X171016443Y-75276466D01*
X170932778Y-75432991D01*
X170903448Y-75468729D01*
X170820186Y-75570186D01*
X170718729Y-75653448D01*
X170682991Y-75682778D01*
X170526466Y-75766443D01*
X170356627Y-75817963D01*
X170290442Y-75824482D01*
X170224260Y-75831000D01*
X170135740Y-75831000D01*
X170069558Y-75824482D01*
X170003373Y-75817963D01*
X169833534Y-75766443D01*
X169677009Y-75682778D01*
X169641271Y-75653448D01*
X169539814Y-75570186D01*
X169456552Y-75468729D01*
X169427222Y-75432991D01*
X169343557Y-75276466D01*
X169292037Y-75106627D01*
X169274641Y-74930000D01*
X169292037Y-74753373D01*
X169343557Y-74583534D01*
X169427222Y-74427009D01*
X169456552Y-74391271D01*
X169539814Y-74289814D01*
X169641271Y-74206552D01*
X169677009Y-74177222D01*
X169833534Y-74093557D01*
X170003373Y-74042037D01*
X170069558Y-74035518D01*
X170135740Y-74029000D01*
X170224260Y-74029000D01*
X170290442Y-74035518D01*
X170290442Y-74035518D01*
G37*
G36*
X148756823Y-74091313D02*
G01*
X148917242Y-74139976D01*
X148986922Y-74177221D01*
X149065078Y-74218996D01*
X149194659Y-74325341D01*
X149301004Y-74454922D01*
X149301005Y-74454924D01*
X149380024Y-74602758D01*
X149428687Y-74763177D01*
X149445117Y-74930000D01*
X149428687Y-75096823D01*
X149380024Y-75257242D01*
X149369747Y-75276468D01*
X149301004Y-75405078D01*
X149194659Y-75534659D01*
X149065078Y-75641004D01*
X149065076Y-75641005D01*
X148917242Y-75720024D01*
X148756823Y-75768687D01*
X148631804Y-75781000D01*
X148548196Y-75781000D01*
X148423177Y-75768687D01*
X148262758Y-75720024D01*
X148114924Y-75641005D01*
X148114922Y-75641004D01*
X147985341Y-75534659D01*
X147878996Y-75405078D01*
X147810253Y-75276468D01*
X147799976Y-75257242D01*
X147751313Y-75096823D01*
X147734883Y-74930000D01*
X147751313Y-74763177D01*
X147799976Y-74602758D01*
X147878995Y-74454924D01*
X147878996Y-74454922D01*
X147985341Y-74325341D01*
X148114922Y-74218996D01*
X148193078Y-74177221D01*
X148262758Y-74139976D01*
X148423177Y-74091313D01*
X148548196Y-74079000D01*
X148631804Y-74079000D01*
X148756823Y-74091313D01*
X148756823Y-74091313D01*
G37*
G36*
X156376823Y-74091313D02*
G01*
X156537242Y-74139976D01*
X156606922Y-74177221D01*
X156685078Y-74218996D01*
X156814659Y-74325341D01*
X156921004Y-74454922D01*
X156921005Y-74454924D01*
X157000024Y-74602758D01*
X157048687Y-74763177D01*
X157065117Y-74930000D01*
X157048687Y-75096823D01*
X157000024Y-75257242D01*
X156989747Y-75276468D01*
X156921004Y-75405078D01*
X156814659Y-75534659D01*
X156685078Y-75641004D01*
X156685076Y-75641005D01*
X156537242Y-75720024D01*
X156376823Y-75768687D01*
X156251804Y-75781000D01*
X156168196Y-75781000D01*
X156043177Y-75768687D01*
X155882758Y-75720024D01*
X155734924Y-75641005D01*
X155734922Y-75641004D01*
X155605341Y-75534659D01*
X155498996Y-75405078D01*
X155430253Y-75276468D01*
X155419976Y-75257242D01*
X155371313Y-75096823D01*
X155354883Y-74930000D01*
X155371313Y-74763177D01*
X155419976Y-74602758D01*
X155498995Y-74454924D01*
X155498996Y-74454922D01*
X155605341Y-74325341D01*
X155734922Y-74218996D01*
X155813078Y-74177221D01*
X155882758Y-74139976D01*
X156043177Y-74091313D01*
X156168196Y-74079000D01*
X156251804Y-74079000D01*
X156376823Y-74091313D01*
X156376823Y-74091313D01*
G37*
G36*
X170290443Y-71495519D02*
G01*
X170356627Y-71502037D01*
X170526466Y-71553557D01*
X170682991Y-71637222D01*
X170718729Y-71666552D01*
X170820186Y-71749814D01*
X170903448Y-71851271D01*
X170932778Y-71887009D01*
X171016443Y-72043534D01*
X171067963Y-72213373D01*
X171085359Y-72390000D01*
X171067963Y-72566627D01*
X171016443Y-72736466D01*
X170932778Y-72892991D01*
X170903448Y-72928729D01*
X170820186Y-73030186D01*
X170718729Y-73113448D01*
X170682991Y-73142778D01*
X170526466Y-73226443D01*
X170356627Y-73277963D01*
X170290443Y-73284481D01*
X170224260Y-73291000D01*
X170135740Y-73291000D01*
X170069557Y-73284481D01*
X170003373Y-73277963D01*
X169833534Y-73226443D01*
X169677009Y-73142778D01*
X169641271Y-73113448D01*
X169539814Y-73030186D01*
X169456552Y-72928729D01*
X169427222Y-72892991D01*
X169343557Y-72736466D01*
X169292037Y-72566627D01*
X169274641Y-72390000D01*
X169292037Y-72213373D01*
X169343557Y-72043534D01*
X169427222Y-71887009D01*
X169456552Y-71851271D01*
X169539814Y-71749814D01*
X169641271Y-71666552D01*
X169677009Y-71637222D01*
X169833534Y-71553557D01*
X170003373Y-71502037D01*
X170069557Y-71495519D01*
X170135740Y-71489000D01*
X170224260Y-71489000D01*
X170290443Y-71495519D01*
X170290443Y-71495519D01*
G37*
G36*
X167750443Y-71495519D02*
G01*
X167816627Y-71502037D01*
X167986466Y-71553557D01*
X168142991Y-71637222D01*
X168178729Y-71666552D01*
X168280186Y-71749814D01*
X168363448Y-71851271D01*
X168392778Y-71887009D01*
X168476443Y-72043534D01*
X168527963Y-72213373D01*
X168545359Y-72390000D01*
X168527963Y-72566627D01*
X168476443Y-72736466D01*
X168392778Y-72892991D01*
X168363448Y-72928729D01*
X168280186Y-73030186D01*
X168178729Y-73113448D01*
X168142991Y-73142778D01*
X167986466Y-73226443D01*
X167816627Y-73277963D01*
X167750443Y-73284481D01*
X167684260Y-73291000D01*
X167595740Y-73291000D01*
X167529557Y-73284481D01*
X167463373Y-73277963D01*
X167293534Y-73226443D01*
X167137009Y-73142778D01*
X167101271Y-73113448D01*
X166999814Y-73030186D01*
X166916552Y-72928729D01*
X166887222Y-72892991D01*
X166803557Y-72736466D01*
X166752037Y-72566627D01*
X166734641Y-72390000D01*
X166752037Y-72213373D01*
X166803557Y-72043534D01*
X166887222Y-71887009D01*
X166916552Y-71851271D01*
X166999814Y-71749814D01*
X167101271Y-71666552D01*
X167137009Y-71637222D01*
X167293534Y-71553557D01*
X167463373Y-71502037D01*
X167529557Y-71495519D01*
X167595740Y-71489000D01*
X167684260Y-71489000D01*
X167750443Y-71495519D01*
X167750443Y-71495519D01*
G37*
G36*
X149441000Y-73241000D02*
G01*
X147739000Y-73241000D01*
X147739000Y-71539000D01*
X149441000Y-71539000D01*
X149441000Y-73241000D01*
X149441000Y-73241000D01*
G37*
G36*
X156376823Y-71551313D02*
G01*
X156537242Y-71599976D01*
X156606922Y-71637221D01*
X156685078Y-71678996D01*
X156814659Y-71785341D01*
X156921004Y-71914922D01*
X156921005Y-71914924D01*
X157000024Y-72062758D01*
X157048687Y-72223177D01*
X157065117Y-72390000D01*
X157048687Y-72556823D01*
X157000024Y-72717242D01*
X156989747Y-72736468D01*
X156921004Y-72865078D01*
X156814659Y-72994659D01*
X156685078Y-73101004D01*
X156685076Y-73101005D01*
X156537242Y-73180024D01*
X156376823Y-73228687D01*
X156251804Y-73241000D01*
X156168196Y-73241000D01*
X156043177Y-73228687D01*
X155882758Y-73180024D01*
X155734924Y-73101005D01*
X155734922Y-73101004D01*
X155605341Y-72994659D01*
X155498996Y-72865078D01*
X155430253Y-72736468D01*
X155419976Y-72717242D01*
X155371313Y-72556823D01*
X155354883Y-72390000D01*
X155371313Y-72223177D01*
X155419976Y-72062758D01*
X155498995Y-71914924D01*
X155498996Y-71914922D01*
X155605341Y-71785341D01*
X155734922Y-71678996D01*
X155813078Y-71637221D01*
X155882758Y-71599976D01*
X156043177Y-71551313D01*
X156168196Y-71539000D01*
X156251804Y-71539000D01*
X156376823Y-71551313D01*
X156376823Y-71551313D01*
G37*
G36*
X167750443Y-68955519D02*
G01*
X167816627Y-68962037D01*
X167986466Y-69013557D01*
X168142991Y-69097222D01*
X168178729Y-69126552D01*
X168280186Y-69209814D01*
X168363448Y-69311271D01*
X168392778Y-69347009D01*
X168476443Y-69503534D01*
X168527963Y-69673373D01*
X168545359Y-69850000D01*
X168527963Y-70026627D01*
X168476443Y-70196466D01*
X168392778Y-70352991D01*
X168363448Y-70388729D01*
X168280186Y-70490186D01*
X168178729Y-70573448D01*
X168142991Y-70602778D01*
X167986466Y-70686443D01*
X167816627Y-70737963D01*
X167750443Y-70744481D01*
X167684260Y-70751000D01*
X167595740Y-70751000D01*
X167529557Y-70744481D01*
X167463373Y-70737963D01*
X167293534Y-70686443D01*
X167137009Y-70602778D01*
X167101271Y-70573448D01*
X166999814Y-70490186D01*
X166916552Y-70388729D01*
X166887222Y-70352991D01*
X166803557Y-70196466D01*
X166752037Y-70026627D01*
X166734641Y-69850000D01*
X166752037Y-69673373D01*
X166803557Y-69503534D01*
X166887222Y-69347009D01*
X166916552Y-69311271D01*
X166999814Y-69209814D01*
X167101271Y-69126552D01*
X167137009Y-69097222D01*
X167293534Y-69013557D01*
X167463373Y-68962037D01*
X167529557Y-68955519D01*
X167595740Y-68949000D01*
X167684260Y-68949000D01*
X167750443Y-68955519D01*
X167750443Y-68955519D01*
G37*
G36*
X137270443Y-68955519D02*
G01*
X137336627Y-68962037D01*
X137506466Y-69013557D01*
X137662991Y-69097222D01*
X137698729Y-69126552D01*
X137800186Y-69209814D01*
X137883448Y-69311271D01*
X137912778Y-69347009D01*
X137996443Y-69503534D01*
X138047963Y-69673373D01*
X138065359Y-69850000D01*
X138047963Y-70026627D01*
X137996443Y-70196466D01*
X137912778Y-70352991D01*
X137883448Y-70388729D01*
X137800186Y-70490186D01*
X137698729Y-70573448D01*
X137662991Y-70602778D01*
X137506466Y-70686443D01*
X137336627Y-70737963D01*
X137270443Y-70744481D01*
X137204260Y-70751000D01*
X137115740Y-70751000D01*
X137049557Y-70744481D01*
X136983373Y-70737963D01*
X136813534Y-70686443D01*
X136657009Y-70602778D01*
X136621271Y-70573448D01*
X136519814Y-70490186D01*
X136436552Y-70388729D01*
X136407222Y-70352991D01*
X136323557Y-70196466D01*
X136272037Y-70026627D01*
X136254641Y-69850000D01*
X136272037Y-69673373D01*
X136323557Y-69503534D01*
X136407222Y-69347009D01*
X136436552Y-69311271D01*
X136519814Y-69209814D01*
X136621271Y-69126552D01*
X136657009Y-69097222D01*
X136813534Y-69013557D01*
X136983373Y-68962037D01*
X137049557Y-68955519D01*
X137115740Y-68949000D01*
X137204260Y-68949000D01*
X137270443Y-68955519D01*
X137270443Y-68955519D01*
G37*
G36*
X170290443Y-68955519D02*
G01*
X170356627Y-68962037D01*
X170526466Y-69013557D01*
X170682991Y-69097222D01*
X170718729Y-69126552D01*
X170820186Y-69209814D01*
X170903448Y-69311271D01*
X170932778Y-69347009D01*
X171016443Y-69503534D01*
X171067963Y-69673373D01*
X171085359Y-69850000D01*
X171067963Y-70026627D01*
X171016443Y-70196466D01*
X170932778Y-70352991D01*
X170903448Y-70388729D01*
X170820186Y-70490186D01*
X170718729Y-70573448D01*
X170682991Y-70602778D01*
X170526466Y-70686443D01*
X170356627Y-70737963D01*
X170290443Y-70744481D01*
X170224260Y-70751000D01*
X170135740Y-70751000D01*
X170069557Y-70744481D01*
X170003373Y-70737963D01*
X169833534Y-70686443D01*
X169677009Y-70602778D01*
X169641271Y-70573448D01*
X169539814Y-70490186D01*
X169456552Y-70388729D01*
X169427222Y-70352991D01*
X169343557Y-70196466D01*
X169292037Y-70026627D01*
X169274641Y-69850000D01*
X169292037Y-69673373D01*
X169343557Y-69503534D01*
X169427222Y-69347009D01*
X169456552Y-69311271D01*
X169539814Y-69209814D01*
X169641271Y-69126552D01*
X169677009Y-69097222D01*
X169833534Y-69013557D01*
X170003373Y-68962037D01*
X170069557Y-68955519D01*
X170135740Y-68949000D01*
X170224260Y-68949000D01*
X170290443Y-68955519D01*
X170290443Y-68955519D01*
G37*
G36*
X138061000Y-68211000D02*
G01*
X136259000Y-68211000D01*
X136259000Y-66409000D01*
X138061000Y-66409000D01*
X138061000Y-68211000D01*
X138061000Y-68211000D01*
G37*
G36*
X168541000Y-68211000D02*
G01*
X166739000Y-68211000D01*
X166739000Y-66409000D01*
X168541000Y-66409000D01*
X168541000Y-68211000D01*
X168541000Y-68211000D01*
G37*
G36*
X170290443Y-66415519D02*
G01*
X170356627Y-66422037D01*
X170526466Y-66473557D01*
X170682991Y-66557222D01*
X170718729Y-66586552D01*
X170820186Y-66669814D01*
X170900369Y-66767519D01*
X170932778Y-66807009D01*
X171016443Y-66963534D01*
X171067963Y-67133373D01*
X171085359Y-67310000D01*
X171067963Y-67486627D01*
X171016443Y-67656466D01*
X170932778Y-67812991D01*
X170903448Y-67848729D01*
X170820186Y-67950186D01*
X170718729Y-68033448D01*
X170682991Y-68062778D01*
X170526466Y-68146443D01*
X170356627Y-68197963D01*
X170290443Y-68204481D01*
X170224260Y-68211000D01*
X170135740Y-68211000D01*
X170069557Y-68204481D01*
X170003373Y-68197963D01*
X169833534Y-68146443D01*
X169677009Y-68062778D01*
X169641271Y-68033448D01*
X169539814Y-67950186D01*
X169456552Y-67848729D01*
X169427222Y-67812991D01*
X169343557Y-67656466D01*
X169292037Y-67486627D01*
X169274641Y-67310000D01*
X169292037Y-67133373D01*
X169343557Y-66963534D01*
X169427222Y-66807009D01*
X169459631Y-66767519D01*
X169539814Y-66669814D01*
X169641271Y-66586552D01*
X169677009Y-66557222D01*
X169833534Y-66473557D01*
X170003373Y-66422037D01*
X170069557Y-66415519D01*
X170135740Y-66409000D01*
X170224260Y-66409000D01*
X170290443Y-66415519D01*
X170290443Y-66415519D01*
G37*
G36*
X147486823Y-66471313D02*
G01*
X147647242Y-66519976D01*
X147714361Y-66555852D01*
X147795078Y-66598996D01*
X147924659Y-66705341D01*
X148031004Y-66834922D01*
X148031005Y-66834924D01*
X148110024Y-66982758D01*
X148158687Y-67143177D01*
X148175117Y-67310000D01*
X148158687Y-67476823D01*
X148110024Y-67637242D01*
X148069477Y-67713100D01*
X148031004Y-67785078D01*
X147924659Y-67914659D01*
X147795078Y-68021004D01*
X147795076Y-68021005D01*
X147647242Y-68100024D01*
X147486823Y-68148687D01*
X147361804Y-68161000D01*
X147278196Y-68161000D01*
X147153177Y-68148687D01*
X146992758Y-68100024D01*
X146844924Y-68021005D01*
X146844922Y-68021004D01*
X146715341Y-67914659D01*
X146608996Y-67785078D01*
X146570523Y-67713100D01*
X146529976Y-67637242D01*
X146481313Y-67476823D01*
X146464883Y-67310000D01*
X146481313Y-67143177D01*
X146529976Y-66982758D01*
X146608995Y-66834924D01*
X146608996Y-66834922D01*
X146715341Y-66705341D01*
X146844922Y-66598996D01*
X146925639Y-66555852D01*
X146992758Y-66519976D01*
X147153177Y-66471313D01*
X147278196Y-66459000D01*
X147361804Y-66459000D01*
X147486823Y-66471313D01*
X147486823Y-66471313D01*
G37*
G36*
X157728228Y-66491703D02*
G01*
X157883100Y-66555853D01*
X158022481Y-66648985D01*
X158141015Y-66767519D01*
X158234147Y-66906900D01*
X158298297Y-67061772D01*
X158331000Y-67226184D01*
X158331000Y-67393816D01*
X158298297Y-67558228D01*
X158234147Y-67713100D01*
X158141015Y-67852481D01*
X158022481Y-67971015D01*
X157883100Y-68064147D01*
X157728228Y-68128297D01*
X157563816Y-68161000D01*
X157396184Y-68161000D01*
X157231772Y-68128297D01*
X157076900Y-68064147D01*
X156937519Y-67971015D01*
X156818985Y-67852481D01*
X156725853Y-67713100D01*
X156661703Y-67558228D01*
X156629000Y-67393816D01*
X156629000Y-67226184D01*
X156661703Y-67061772D01*
X156725853Y-66906900D01*
X156818985Y-66767519D01*
X156937519Y-66648985D01*
X157076900Y-66555853D01*
X157231772Y-66491703D01*
X157396184Y-66459000D01*
X157563816Y-66459000D01*
X157728228Y-66491703D01*
X157728228Y-66491703D01*
G37*
G36*
X162726823Y-66471313D02*
G01*
X162887242Y-66519976D01*
X162954361Y-66555852D01*
X163035078Y-66598996D01*
X163164659Y-66705341D01*
X163271004Y-66834922D01*
X163271005Y-66834924D01*
X163350024Y-66982758D01*
X163398687Y-67143177D01*
X163415117Y-67310000D01*
X163398687Y-67476823D01*
X163350024Y-67637242D01*
X163309477Y-67713100D01*
X163271004Y-67785078D01*
X163164659Y-67914659D01*
X163035078Y-68021004D01*
X163035076Y-68021005D01*
X162887242Y-68100024D01*
X162726823Y-68148687D01*
X162601804Y-68161000D01*
X162518196Y-68161000D01*
X162393177Y-68148687D01*
X162232758Y-68100024D01*
X162084924Y-68021005D01*
X162084922Y-68021004D01*
X161955341Y-67914659D01*
X161848996Y-67785078D01*
X161810523Y-67713100D01*
X161769976Y-67637242D01*
X161721313Y-67476823D01*
X161704883Y-67310000D01*
X161721313Y-67143177D01*
X161769976Y-66982758D01*
X161848995Y-66834924D01*
X161848996Y-66834922D01*
X161955341Y-66705341D01*
X162084922Y-66598996D01*
X162165639Y-66555852D01*
X162232758Y-66519976D01*
X162393177Y-66471313D01*
X162518196Y-66459000D01*
X162601804Y-66459000D01*
X162726823Y-66471313D01*
X162726823Y-66471313D01*
G37*
M02*
