M48
; DRILL file {KiCad 5.1.4+dfsg1-2} date Fri 25 Oct 2019 11:15:07 PM SAST
; FORMAT={-:-/ absolute / inch / decimal}
; #@! TF.CreationDate,2019-10-25T23:15:07+02:00
; #@! TF.GenerationSoftware,Kicad,Pcbnew,5.1.4+dfsg1-2
; #@! TF.FileFunction,Plated,1,2,PTH
FMAT,2
INCH
T1C0.0315
T2C0.0394
%
G90
G05
T1
X6.3Y-3.85
X6.3Y-4.25
X5.75Y-3.45
X5.75Y-3.55
X5.75Y-3.65
X6.05Y-3.45
X6.05Y-3.55
X6.05Y-3.65
X5.7Y-3.25
X6.1Y-3.25
X5.5Y-4.15
X5.5Y-4.55
X5.7Y-3.85
X6.1Y-3.85
X5.75Y-4.05
X5.75Y-4.15
X5.75Y-4.25
X6.05Y-4.05
X6.05Y-4.15
X6.05Y-4.25
X5.3Y-4.15
X5.3Y-4.55
X6.3Y-3.25
X6.3Y-3.65
T2
X5.3Y-3.55
X5.3Y-3.65
X5.4Y-3.55
X5.4Y-3.65
X6.5Y-3.25
X6.5Y-3.35
X6.5Y-3.45
X6.5Y-3.55
X6.5Y-3.65
X6.5Y-3.75
X6.5Y-3.85
X6.5Y-3.95
X6.5Y-4.05
X6.5Y-4.15
X6.5Y-4.25
X6.5Y-4.35
X6.5Y-4.45
X6.6Y-3.25
X6.6Y-3.35
X6.6Y-3.45
X6.6Y-3.55
X6.6Y-3.65
X6.6Y-3.75
X6.6Y-3.85
X6.6Y-3.95
X6.6Y-4.05
X6.6Y-4.15
X6.6Y-4.25
X6.6Y-4.35
X6.6Y-4.45
X5.3Y-3.25
X5.3Y-3.35
X5.4Y-3.25
X5.4Y-3.35
X5.3Y-3.85
X5.3Y-3.95
X5.4Y-3.85
X5.4Y-3.95
T0
M30
