M48
; DRILL file {KiCad (5.1.4)-1} date 2019/10/23 00:52:58
; FORMAT={-:-/ absolute / inch / decimal}
; #@! TF.CreationDate,2019-10-23T00:52:58+02:00
; #@! TF.GenerationSoftware,Kicad,Pcbnew,(5.1.4)-1
; #@! TF.FileFunction,Plated,1,2,PTH
FMAT,2
INCH
T1C0.0315
T2C0.0394
%
G90
G05
T1
X5.6Y-3.9
X5.85Y-3.45
X6.15Y-3.45
X6.4Y-2.65
X6.4Y-3.05
X5.8Y-2.65
X6.2Y-2.65
X5.85Y-2.85
X5.85Y-2.95
X5.85Y-3.05
X6.15Y-2.85
X6.15Y-2.95
X6.15Y-3.05
X6.4Y-3.25
X6.4Y-3.65
X5.6Y-3.5
X5.85Y-3.55
X5.85Y-3.65
X6.15Y-3.55
X6.15Y-3.65
X5.8Y-3.25
X6.2Y-3.25
X5.4Y-3.5
X5.4Y-3.9
T2
X5.4Y-2.95
X5.4Y-3.05
X6.6Y-2.65
X6.6Y-2.75
X6.6Y-2.85
X6.6Y-2.95
X6.6Y-3.05
X6.6Y-3.15
X6.6Y-3.25
X6.6Y-3.35
X6.6Y-3.45
X6.6Y-3.55
X6.6Y-3.65
X6.6Y-3.75
X6.6Y-3.85
X6.7Y-2.65
X6.7Y-2.75
X6.7Y-2.85
X6.7Y-2.95
X6.7Y-3.05
X6.7Y-3.15
X6.7Y-3.25
X6.7Y-3.35
X6.7Y-3.45
X6.7Y-3.55
X6.7Y-3.65
X6.7Y-3.75
X6.7Y-3.85
X5.4Y-3.25
X5.4Y-3.35
X5.4Y-2.65
X5.4Y-2.75
T0
M30
