G04 #@! TF.GenerationSoftware,KiCad,Pcbnew,(5.1.4)-1*
G04 #@! TF.CreationDate,2019-10-23T00:51:14+02:00*
G04 #@! TF.ProjectId,rpi_rpm,7270695f-7270-46d2-9e6b-696361645f70,rev?*
G04 #@! TF.SameCoordinates,Original*
G04 #@! TF.FileFunction,Legend,Top*
G04 #@! TF.FilePolarity,Positive*
%FSLAX46Y46*%
G04 Gerber Fmt 4.6, Leading zero omitted, Abs format (unit mm)*
G04 Created by KiCad (PCBNEW (5.1.4)-1) date 2019-10-23 00:51:14*
%MOMM*%
%LPD*%
G04 APERTURE LIST*
%ADD10C,0.150000*%
%ADD11C,0.120000*%
G04 APERTURE END LIST*
D10*
X140152380Y-86891428D02*
X139152380Y-86891428D01*
X139152380Y-86510476D01*
X139200000Y-86415238D01*
X139247619Y-86367619D01*
X139342857Y-86320000D01*
X139485714Y-86320000D01*
X139580952Y-86367619D01*
X139628571Y-86415238D01*
X139676190Y-86510476D01*
X139676190Y-86891428D01*
X139152380Y-85986666D02*
X140152380Y-85748571D01*
X139438095Y-85558095D01*
X140152380Y-85367619D01*
X139152380Y-85129523D01*
X140152380Y-84177142D02*
X139676190Y-84510476D01*
X140152380Y-84748571D02*
X139152380Y-84748571D01*
X139152380Y-84367619D01*
X139200000Y-84272380D01*
X139247619Y-84224761D01*
X139342857Y-84177142D01*
X139485714Y-84177142D01*
X139580952Y-84224761D01*
X139628571Y-84272380D01*
X139676190Y-84367619D01*
X139676190Y-84748571D01*
X140247619Y-83986666D02*
X140247619Y-83224761D01*
X140152380Y-82510476D02*
X140152380Y-82986666D01*
X139152380Y-82986666D01*
X139628571Y-82177142D02*
X139628571Y-81843809D01*
X140152380Y-81700952D02*
X140152380Y-82177142D01*
X139152380Y-82177142D01*
X139152380Y-81700952D01*
X140152380Y-81272380D02*
X139152380Y-81272380D01*
X139152380Y-81034285D01*
X139200000Y-80891428D01*
X139295238Y-80796190D01*
X139390476Y-80748571D01*
X139580952Y-80700952D01*
X139723809Y-80700952D01*
X139914285Y-80748571D01*
X140009523Y-80796190D01*
X140104761Y-80891428D01*
X140152380Y-81034285D01*
X140152380Y-81272380D01*
X140152380Y-78247619D02*
X139676190Y-78580952D01*
X140152380Y-78819047D02*
X139152380Y-78819047D01*
X139152380Y-78438095D01*
X139200000Y-78342857D01*
X139247619Y-78295238D01*
X139342857Y-78247619D01*
X139485714Y-78247619D01*
X139580952Y-78295238D01*
X139628571Y-78342857D01*
X139676190Y-78438095D01*
X139676190Y-78819047D01*
X139628571Y-77819047D02*
X139628571Y-77485714D01*
X140152380Y-77342857D02*
X140152380Y-77819047D01*
X139152380Y-77819047D01*
X139152380Y-77342857D01*
X140104761Y-76961904D02*
X140152380Y-76819047D01*
X140152380Y-76580952D01*
X140104761Y-76485714D01*
X140057142Y-76438095D01*
X139961904Y-76390476D01*
X139866666Y-76390476D01*
X139771428Y-76438095D01*
X139723809Y-76485714D01*
X139676190Y-76580952D01*
X139628571Y-76771428D01*
X139580952Y-76866666D01*
X139533333Y-76914285D01*
X139438095Y-76961904D01*
X139342857Y-76961904D01*
X139247619Y-76914285D01*
X139200000Y-76866666D01*
X139152380Y-76771428D01*
X139152380Y-76533333D01*
X139200000Y-76390476D01*
X140247619Y-76200000D02*
X140247619Y-75438095D01*
X140104761Y-75247619D02*
X140152380Y-75104761D01*
X140152380Y-74866666D01*
X140104761Y-74771428D01*
X140057142Y-74723809D01*
X139961904Y-74676190D01*
X139866666Y-74676190D01*
X139771428Y-74723809D01*
X139723809Y-74771428D01*
X139676190Y-74866666D01*
X139628571Y-75057142D01*
X139580952Y-75152380D01*
X139533333Y-75200000D01*
X139438095Y-75247619D01*
X139342857Y-75247619D01*
X139247619Y-75200000D01*
X139200000Y-75152380D01*
X139152380Y-75057142D01*
X139152380Y-74819047D01*
X139200000Y-74676190D01*
X139152380Y-74342857D02*
X140152380Y-74104761D01*
X139438095Y-73914285D01*
X140152380Y-73723809D01*
X139152380Y-73485714D01*
X140152380Y-71341904D02*
X139152380Y-71341904D01*
X139152380Y-70960952D01*
X139200000Y-70865714D01*
X139247619Y-70818095D01*
X139342857Y-70770476D01*
X139485714Y-70770476D01*
X139580952Y-70818095D01*
X139628571Y-70865714D01*
X139676190Y-70960952D01*
X139676190Y-71341904D01*
X139152380Y-70437142D02*
X140152380Y-70199047D01*
X139438095Y-70008571D01*
X140152380Y-69818095D01*
X139152380Y-69580000D01*
X140152380Y-68627619D02*
X139676190Y-68960952D01*
X140152380Y-69199047D02*
X139152380Y-69199047D01*
X139152380Y-68818095D01*
X139200000Y-68722857D01*
X139247619Y-68675238D01*
X139342857Y-68627619D01*
X139485714Y-68627619D01*
X139580952Y-68675238D01*
X139628571Y-68722857D01*
X139676190Y-68818095D01*
X139676190Y-69199047D01*
X140247619Y-68437142D02*
X140247619Y-67675238D01*
X140104761Y-67484761D02*
X140152380Y-67341904D01*
X140152380Y-67103809D01*
X140104761Y-67008571D01*
X140057142Y-66960952D01*
X139961904Y-66913333D01*
X139866666Y-66913333D01*
X139771428Y-66960952D01*
X139723809Y-67008571D01*
X139676190Y-67103809D01*
X139628571Y-67294285D01*
X139580952Y-67389523D01*
X139533333Y-67437142D01*
X139438095Y-67484761D01*
X139342857Y-67484761D01*
X139247619Y-67437142D01*
X139200000Y-67389523D01*
X139152380Y-67294285D01*
X139152380Y-67056190D01*
X139200000Y-66913333D01*
X139152380Y-66580000D02*
X140152380Y-66341904D01*
X139438095Y-66151428D01*
X140152380Y-65960952D01*
X139152380Y-65722857D01*
X148479619Y-97151180D02*
X148146285Y-96674990D01*
X147908190Y-97151180D02*
X147908190Y-96151180D01*
X148289142Y-96151180D01*
X148384380Y-96198800D01*
X148432000Y-96246419D01*
X148479619Y-96341657D01*
X148479619Y-96484514D01*
X148432000Y-96579752D01*
X148384380Y-96627371D01*
X148289142Y-96674990D01*
X147908190Y-96674990D01*
X149336761Y-97151180D02*
X149336761Y-96627371D01*
X149289142Y-96532133D01*
X149193904Y-96484514D01*
X149003428Y-96484514D01*
X148908190Y-96532133D01*
X149336761Y-97103561D02*
X149241523Y-97151180D01*
X149003428Y-97151180D01*
X148908190Y-97103561D01*
X148860571Y-97008323D01*
X148860571Y-96913085D01*
X148908190Y-96817847D01*
X149003428Y-96770228D01*
X149241523Y-96770228D01*
X149336761Y-96722609D01*
X149765333Y-97103561D02*
X149860571Y-97151180D01*
X150051047Y-97151180D01*
X150146285Y-97103561D01*
X150193904Y-97008323D01*
X150193904Y-96960704D01*
X150146285Y-96865466D01*
X150051047Y-96817847D01*
X149908190Y-96817847D01*
X149812952Y-96770228D01*
X149765333Y-96674990D01*
X149765333Y-96627371D01*
X149812952Y-96532133D01*
X149908190Y-96484514D01*
X150051047Y-96484514D01*
X150146285Y-96532133D01*
X150622476Y-96484514D02*
X150622476Y-97484514D01*
X150622476Y-96532133D02*
X150717714Y-96484514D01*
X150908190Y-96484514D01*
X151003428Y-96532133D01*
X151051047Y-96579752D01*
X151098666Y-96674990D01*
X151098666Y-96960704D01*
X151051047Y-97055942D01*
X151003428Y-97103561D01*
X150908190Y-97151180D01*
X150717714Y-97151180D01*
X150622476Y-97103561D01*
X151527238Y-97151180D02*
X151527238Y-96151180D01*
X151527238Y-96532133D02*
X151622476Y-96484514D01*
X151812952Y-96484514D01*
X151908190Y-96532133D01*
X151955809Y-96579752D01*
X152003428Y-96674990D01*
X152003428Y-96960704D01*
X151955809Y-97055942D01*
X151908190Y-97103561D01*
X151812952Y-97151180D01*
X151622476Y-97151180D01*
X151527238Y-97103561D01*
X152812952Y-97103561D02*
X152717714Y-97151180D01*
X152527238Y-97151180D01*
X152432000Y-97103561D01*
X152384380Y-97008323D01*
X152384380Y-96627371D01*
X152432000Y-96532133D01*
X152527238Y-96484514D01*
X152717714Y-96484514D01*
X152812952Y-96532133D01*
X152860571Y-96627371D01*
X152860571Y-96722609D01*
X152384380Y-96817847D01*
X153289142Y-97151180D02*
X153289142Y-96484514D01*
X153289142Y-96674990D02*
X153336761Y-96579752D01*
X153384380Y-96532133D01*
X153479619Y-96484514D01*
X153574857Y-96484514D01*
X153908190Y-97151180D02*
X153908190Y-96484514D01*
X153908190Y-96674990D02*
X153955809Y-96579752D01*
X154003428Y-96532133D01*
X154098666Y-96484514D01*
X154193904Y-96484514D01*
X154432000Y-96484514D02*
X154670095Y-97151180D01*
X154908190Y-96484514D02*
X154670095Y-97151180D01*
X154574857Y-97389276D01*
X154527238Y-97436895D01*
X154432000Y-97484514D01*
X156051047Y-97151180D02*
X156051047Y-96151180D01*
X156432000Y-96151180D01*
X156527238Y-96198800D01*
X156574857Y-96246419D01*
X156622476Y-96341657D01*
X156622476Y-96484514D01*
X156574857Y-96579752D01*
X156527238Y-96627371D01*
X156432000Y-96674990D01*
X156051047Y-96674990D01*
X157051047Y-97151180D02*
X157051047Y-96484514D01*
X157051047Y-96151180D02*
X157003428Y-96198800D01*
X157051047Y-96246419D01*
X157098666Y-96198800D01*
X157051047Y-96151180D01*
X157051047Y-96246419D01*
X158860571Y-97151180D02*
X158527238Y-96674990D01*
X158289142Y-97151180D02*
X158289142Y-96151180D01*
X158670095Y-96151180D01*
X158765333Y-96198800D01*
X158812952Y-96246419D01*
X158860571Y-96341657D01*
X158860571Y-96484514D01*
X158812952Y-96579752D01*
X158765333Y-96627371D01*
X158670095Y-96674990D01*
X158289142Y-96674990D01*
X159289142Y-97151180D02*
X159289142Y-96151180D01*
X159670095Y-96151180D01*
X159765333Y-96198800D01*
X159812952Y-96246419D01*
X159860571Y-96341657D01*
X159860571Y-96484514D01*
X159812952Y-96579752D01*
X159765333Y-96627371D01*
X159670095Y-96674990D01*
X159289142Y-96674990D01*
X160289142Y-97151180D02*
X160289142Y-96151180D01*
X160622476Y-96865466D01*
X160955809Y-96151180D01*
X160955809Y-97151180D01*
X145098666Y-98801180D02*
X145098666Y-97801180D01*
X145336761Y-97801180D01*
X145479619Y-97848800D01*
X145574857Y-97944038D01*
X145622476Y-98039276D01*
X145670095Y-98229752D01*
X145670095Y-98372609D01*
X145622476Y-98563085D01*
X145574857Y-98658323D01*
X145479619Y-98753561D01*
X145336761Y-98801180D01*
X145098666Y-98801180D01*
X146479619Y-98753561D02*
X146384380Y-98801180D01*
X146193904Y-98801180D01*
X146098666Y-98753561D01*
X146051047Y-98658323D01*
X146051047Y-98277371D01*
X146098666Y-98182133D01*
X146193904Y-98134514D01*
X146384380Y-98134514D01*
X146479619Y-98182133D01*
X146527238Y-98277371D01*
X146527238Y-98372609D01*
X146051047Y-98467847D01*
X146908190Y-98753561D02*
X147003428Y-98801180D01*
X147193904Y-98801180D01*
X147289142Y-98753561D01*
X147336761Y-98658323D01*
X147336761Y-98610704D01*
X147289142Y-98515466D01*
X147193904Y-98467847D01*
X147051047Y-98467847D01*
X146955809Y-98420228D01*
X146908190Y-98324990D01*
X146908190Y-98277371D01*
X146955809Y-98182133D01*
X147051047Y-98134514D01*
X147193904Y-98134514D01*
X147289142Y-98182133D01*
X147765333Y-98801180D02*
X147765333Y-98134514D01*
X147765333Y-97801180D02*
X147717714Y-97848800D01*
X147765333Y-97896419D01*
X147812952Y-97848800D01*
X147765333Y-97801180D01*
X147765333Y-97896419D01*
X148670095Y-98134514D02*
X148670095Y-98944038D01*
X148622476Y-99039276D01*
X148574857Y-99086895D01*
X148479619Y-99134514D01*
X148336761Y-99134514D01*
X148241523Y-99086895D01*
X148670095Y-98753561D02*
X148574857Y-98801180D01*
X148384380Y-98801180D01*
X148289142Y-98753561D01*
X148241523Y-98705942D01*
X148193904Y-98610704D01*
X148193904Y-98324990D01*
X148241523Y-98229752D01*
X148289142Y-98182133D01*
X148384380Y-98134514D01*
X148574857Y-98134514D01*
X148670095Y-98182133D01*
X149146285Y-98134514D02*
X149146285Y-98801180D01*
X149146285Y-98229752D02*
X149193904Y-98182133D01*
X149289142Y-98134514D01*
X149432000Y-98134514D01*
X149527238Y-98182133D01*
X149574857Y-98277371D01*
X149574857Y-98801180D01*
X150432000Y-98753561D02*
X150336761Y-98801180D01*
X150146285Y-98801180D01*
X150051047Y-98753561D01*
X150003428Y-98658323D01*
X150003428Y-98277371D01*
X150051047Y-98182133D01*
X150146285Y-98134514D01*
X150336761Y-98134514D01*
X150432000Y-98182133D01*
X150479619Y-98277371D01*
X150479619Y-98372609D01*
X150003428Y-98467847D01*
X151336761Y-98801180D02*
X151336761Y-97801180D01*
X151336761Y-98753561D02*
X151241523Y-98801180D01*
X151051047Y-98801180D01*
X150955809Y-98753561D01*
X150908190Y-98705942D01*
X150860571Y-98610704D01*
X150860571Y-98324990D01*
X150908190Y-98229752D01*
X150955809Y-98182133D01*
X151051047Y-98134514D01*
X151241523Y-98134514D01*
X151336761Y-98182133D01*
X152574857Y-98801180D02*
X152574857Y-97801180D01*
X152574857Y-98182133D02*
X152670095Y-98134514D01*
X152860571Y-98134514D01*
X152955809Y-98182133D01*
X153003428Y-98229752D01*
X153051047Y-98324990D01*
X153051047Y-98610704D01*
X153003428Y-98705942D01*
X152955809Y-98753561D01*
X152860571Y-98801180D01*
X152670095Y-98801180D01*
X152574857Y-98753561D01*
X153384380Y-98134514D02*
X153622476Y-98801180D01*
X153860571Y-98134514D02*
X153622476Y-98801180D01*
X153527238Y-99039276D01*
X153479619Y-99086895D01*
X153384380Y-99134514D01*
X155574857Y-98801180D02*
X155241523Y-98324990D01*
X155003428Y-98801180D02*
X155003428Y-97801180D01*
X155384380Y-97801180D01*
X155479619Y-97848800D01*
X155527238Y-97896419D01*
X155574857Y-97991657D01*
X155574857Y-98134514D01*
X155527238Y-98229752D01*
X155479619Y-98277371D01*
X155384380Y-98324990D01*
X155003428Y-98324990D01*
X156003428Y-98801180D02*
X156003428Y-98134514D01*
X156003428Y-97801180D02*
X155955809Y-97848800D01*
X156003428Y-97896419D01*
X156051047Y-97848800D01*
X156003428Y-97801180D01*
X156003428Y-97896419D01*
X156479619Y-98801180D02*
X156479619Y-97801180D01*
X156574857Y-98420228D02*
X156860571Y-98801180D01*
X156860571Y-98134514D02*
X156479619Y-98515466D01*
X157717714Y-98134514D02*
X157717714Y-98801180D01*
X157289142Y-98134514D02*
X157289142Y-98658323D01*
X157336761Y-98753561D01*
X157432000Y-98801180D01*
X157574857Y-98801180D01*
X157670095Y-98753561D01*
X157717714Y-98705942D01*
X158146285Y-98753561D02*
X158241523Y-98801180D01*
X158432000Y-98801180D01*
X158527238Y-98753561D01*
X158574857Y-98658323D01*
X158574857Y-98610704D01*
X158527238Y-98515466D01*
X158432000Y-98467847D01*
X158289142Y-98467847D01*
X158193904Y-98420228D01*
X158146285Y-98324990D01*
X158146285Y-98277371D01*
X158193904Y-98182133D01*
X158289142Y-98134514D01*
X158432000Y-98134514D01*
X158527238Y-98182133D01*
X159765333Y-98801180D02*
X159765333Y-97801180D01*
X159765333Y-98277371D02*
X160336761Y-98277371D01*
X160336761Y-98801180D02*
X160336761Y-97801180D01*
X160955809Y-98801180D02*
X160860571Y-98753561D01*
X160812952Y-98705942D01*
X160765333Y-98610704D01*
X160765333Y-98324990D01*
X160812952Y-98229752D01*
X160860571Y-98182133D01*
X160955809Y-98134514D01*
X161098666Y-98134514D01*
X161193904Y-98182133D01*
X161241523Y-98229752D01*
X161289142Y-98324990D01*
X161289142Y-98610704D01*
X161241523Y-98705942D01*
X161193904Y-98753561D01*
X161098666Y-98801180D01*
X160955809Y-98801180D01*
X161717714Y-98134514D02*
X161717714Y-98801180D01*
X161717714Y-98229752D02*
X161765333Y-98182133D01*
X161860571Y-98134514D01*
X162003428Y-98134514D01*
X162098666Y-98182133D01*
X162146285Y-98277371D01*
X162146285Y-98801180D01*
X163003428Y-98753561D02*
X162908190Y-98801180D01*
X162717714Y-98801180D01*
X162622476Y-98753561D01*
X162574857Y-98658323D01*
X162574857Y-98277371D01*
X162622476Y-98182133D01*
X162717714Y-98134514D01*
X162908190Y-98134514D01*
X163003428Y-98182133D01*
X163051047Y-98277371D01*
X163051047Y-98372609D01*
X162574857Y-98467847D01*
X163384380Y-98134514D02*
X163622476Y-98801180D01*
X163860571Y-98134514D02*
X163622476Y-98801180D01*
X163527238Y-99039276D01*
X163479619Y-99086895D01*
X163384380Y-99134514D01*
X148908190Y-100451180D02*
X148908190Y-99784514D01*
X148908190Y-99974990D02*
X148955809Y-99879752D01*
X149003428Y-99832133D01*
X149098666Y-99784514D01*
X149193904Y-99784514D01*
X149527238Y-100451180D02*
X149527238Y-99784514D01*
X149527238Y-99451180D02*
X149479619Y-99498800D01*
X149527238Y-99546419D01*
X149574857Y-99498800D01*
X149527238Y-99451180D01*
X149527238Y-99546419D01*
X150003428Y-100451180D02*
X150003428Y-99451180D01*
X150098666Y-100070228D02*
X150384380Y-100451180D01*
X150384380Y-99784514D02*
X150003428Y-100165466D01*
X151241523Y-99784514D02*
X151241523Y-100451180D01*
X150812952Y-99784514D02*
X150812952Y-100308323D01*
X150860571Y-100403561D01*
X150955809Y-100451180D01*
X151098666Y-100451180D01*
X151193904Y-100403561D01*
X151241523Y-100355942D01*
X151670095Y-100403561D02*
X151765333Y-100451180D01*
X151955809Y-100451180D01*
X152051047Y-100403561D01*
X152098666Y-100308323D01*
X152098666Y-100260704D01*
X152051047Y-100165466D01*
X151955809Y-100117847D01*
X151812952Y-100117847D01*
X151717714Y-100070228D01*
X151670095Y-99974990D01*
X151670095Y-99927371D01*
X151717714Y-99832133D01*
X151812952Y-99784514D01*
X151955809Y-99784514D01*
X152051047Y-99832133D01*
X152527238Y-100451180D02*
X152527238Y-99451180D01*
X152955809Y-100451180D02*
X152955809Y-99927371D01*
X152908190Y-99832133D01*
X152812952Y-99784514D01*
X152670095Y-99784514D01*
X152574857Y-99832133D01*
X152527238Y-99879752D01*
X153574857Y-100451180D02*
X153479619Y-100403561D01*
X153432000Y-100355942D01*
X153384380Y-100260704D01*
X153384380Y-99974990D01*
X153432000Y-99879752D01*
X153479619Y-99832133D01*
X153574857Y-99784514D01*
X153717714Y-99784514D01*
X153812952Y-99832133D01*
X153860571Y-99879752D01*
X153908190Y-99974990D01*
X153908190Y-100260704D01*
X153860571Y-100355942D01*
X153812952Y-100403561D01*
X153717714Y-100451180D01*
X153574857Y-100451180D01*
X154336761Y-99784514D02*
X154336761Y-100451180D01*
X154336761Y-99879752D02*
X154384380Y-99832133D01*
X154479619Y-99784514D01*
X154622476Y-99784514D01*
X154717714Y-99832133D01*
X154765333Y-99927371D01*
X154765333Y-100451180D01*
X155622476Y-100403561D02*
X155527238Y-100451180D01*
X155336761Y-100451180D01*
X155241523Y-100403561D01*
X155193904Y-100308323D01*
X155193904Y-99927371D01*
X155241523Y-99832133D01*
X155336761Y-99784514D01*
X155527238Y-99784514D01*
X155622476Y-99832133D01*
X155670095Y-99927371D01*
X155670095Y-100022609D01*
X155193904Y-100117847D01*
X156003428Y-99784514D02*
X156241523Y-100451180D01*
X156479619Y-99784514D02*
X156241523Y-100451180D01*
X156146285Y-100689276D01*
X156098666Y-100736895D01*
X156003428Y-100784514D01*
X156860571Y-100355942D02*
X156908190Y-100403561D01*
X156860571Y-100451180D01*
X156812952Y-100403561D01*
X156860571Y-100355942D01*
X156860571Y-100451180D01*
X157765333Y-100403561D02*
X157670095Y-100451180D01*
X157479619Y-100451180D01*
X157384380Y-100403561D01*
X157336761Y-100355942D01*
X157289142Y-100260704D01*
X157289142Y-99974990D01*
X157336761Y-99879752D01*
X157384380Y-99832133D01*
X157479619Y-99784514D01*
X157670095Y-99784514D01*
X157765333Y-99832133D01*
X158336761Y-100451180D02*
X158241523Y-100403561D01*
X158193904Y-100355942D01*
X158146285Y-100260704D01*
X158146285Y-99974990D01*
X158193904Y-99879752D01*
X158241523Y-99832133D01*
X158336761Y-99784514D01*
X158479619Y-99784514D01*
X158574857Y-99832133D01*
X158622476Y-99879752D01*
X158670095Y-99974990D01*
X158670095Y-100260704D01*
X158622476Y-100355942D01*
X158574857Y-100403561D01*
X158479619Y-100451180D01*
X158336761Y-100451180D01*
X159098666Y-100451180D02*
X159098666Y-99784514D01*
X159098666Y-99879752D02*
X159146285Y-99832133D01*
X159241523Y-99784514D01*
X159384380Y-99784514D01*
X159479619Y-99832133D01*
X159527238Y-99927371D01*
X159527238Y-100451180D01*
X159527238Y-99927371D02*
X159574857Y-99832133D01*
X159670095Y-99784514D01*
X159812952Y-99784514D01*
X159908190Y-99832133D01*
X159955809Y-99927371D01*
X159955809Y-100451180D01*
X134239047Y-85161428D02*
X135000952Y-85161428D01*
X134239047Y-82621428D02*
X135000952Y-82621428D01*
X134620000Y-83002380D02*
X134620000Y-82240476D01*
X134239047Y-77541428D02*
X135000952Y-77541428D01*
X134239047Y-75001428D02*
X135000952Y-75001428D01*
X134620000Y-75382380D02*
X134620000Y-74620476D01*
X134239047Y-69921428D02*
X135000952Y-69921428D01*
X134239047Y-67381428D02*
X135000952Y-67381428D01*
X134620000Y-67762380D02*
X134620000Y-67000476D01*
D11*
X138490000Y-81220000D02*
X138490000Y-82550000D01*
X137160000Y-81220000D02*
X138490000Y-81220000D01*
X138490000Y-83820000D02*
X138490000Y-86420000D01*
X135890000Y-83820000D02*
X138490000Y-83820000D01*
X135890000Y-81220000D02*
X135890000Y-83820000D01*
X138490000Y-86420000D02*
X135830000Y-86420000D01*
X135890000Y-81220000D02*
X135830000Y-81220000D01*
X135830000Y-81220000D02*
X135830000Y-86420000D01*
X138490000Y-73600000D02*
X138490000Y-74930000D01*
X137160000Y-73600000D02*
X138490000Y-73600000D01*
X138490000Y-76200000D02*
X138490000Y-78800000D01*
X135890000Y-76200000D02*
X138490000Y-76200000D01*
X135890000Y-73600000D02*
X135890000Y-76200000D01*
X138490000Y-78800000D02*
X135830000Y-78800000D01*
X135890000Y-73600000D02*
X135830000Y-73600000D01*
X135830000Y-73600000D02*
X135830000Y-78800000D01*
X138490000Y-65980000D02*
X138490000Y-67310000D01*
X137160000Y-65980000D02*
X138490000Y-65980000D01*
X138490000Y-68580000D02*
X138490000Y-71180000D01*
X135890000Y-68580000D02*
X138490000Y-68580000D01*
X135890000Y-65980000D02*
X135890000Y-68580000D01*
X138490000Y-71180000D02*
X135830000Y-71180000D01*
X135890000Y-65980000D02*
X135830000Y-65980000D01*
X135830000Y-65980000D02*
X135830000Y-71180000D01*
X161190000Y-75660000D02*
X163930000Y-75660000D01*
X163930000Y-75660000D02*
X163930000Y-69120000D01*
X163930000Y-69120000D02*
X161190000Y-69120000D01*
X161190000Y-69120000D02*
X161190000Y-75660000D01*
X162560000Y-76430000D02*
X162560000Y-75660000D01*
X162560000Y-68350000D02*
X162560000Y-69120000D01*
X155670000Y-68680000D02*
X155670000Y-65940000D01*
X155670000Y-65940000D02*
X149130000Y-65940000D01*
X149130000Y-65940000D02*
X149130000Y-68680000D01*
X149130000Y-68680000D02*
X155670000Y-68680000D01*
X156440000Y-67310000D02*
X155670000Y-67310000D01*
X148360000Y-67310000D02*
X149130000Y-67310000D01*
X162560000Y-83590000D02*
X162560000Y-84360000D01*
X162560000Y-91670000D02*
X162560000Y-90900000D01*
X161190000Y-84360000D02*
X161190000Y-90900000D01*
X163930000Y-84360000D02*
X161190000Y-84360000D01*
X163930000Y-90900000D02*
X163930000Y-84360000D01*
X161190000Y-90900000D02*
X163930000Y-90900000D01*
X148360000Y-82550000D02*
X149130000Y-82550000D01*
X156440000Y-82550000D02*
X155670000Y-82550000D01*
X149130000Y-83920000D02*
X155670000Y-83920000D01*
X149130000Y-81180000D02*
X149130000Y-83920000D01*
X155670000Y-81180000D02*
X149130000Y-81180000D01*
X155670000Y-83920000D02*
X155670000Y-81180000D01*
X137160000Y-89940000D02*
X137160000Y-90710000D01*
X137160000Y-98020000D02*
X137160000Y-97250000D01*
X135790000Y-90710000D02*
X135790000Y-97250000D01*
X138530000Y-90710000D02*
X135790000Y-90710000D01*
X138530000Y-97250000D02*
X138530000Y-90710000D01*
X135790000Y-97250000D02*
X138530000Y-97250000D01*
X140870000Y-97250000D02*
X143610000Y-97250000D01*
X143610000Y-97250000D02*
X143610000Y-90710000D01*
X143610000Y-90710000D02*
X140870000Y-90710000D01*
X140870000Y-90710000D02*
X140870000Y-97250000D01*
X142240000Y-98020000D02*
X142240000Y-97250000D01*
X142240000Y-89940000D02*
X142240000Y-90710000D01*
X153400000Y-71060000D02*
G75*
G02X151400000Y-71060000I-1000000J0D01*
G01*
X151400000Y-71060000D02*
X149750000Y-71060000D01*
X149750000Y-71060000D02*
X149750000Y-78800000D01*
X149750000Y-78800000D02*
X155050000Y-78800000D01*
X155050000Y-78800000D02*
X155050000Y-71060000D01*
X155050000Y-71060000D02*
X153400000Y-71060000D01*
X155050000Y-86300000D02*
X153400000Y-86300000D01*
X155050000Y-94040000D02*
X155050000Y-86300000D01*
X149750000Y-94040000D02*
X155050000Y-94040000D01*
X149750000Y-86300000D02*
X149750000Y-94040000D01*
X151400000Y-86300000D02*
X149750000Y-86300000D01*
X153400000Y-86300000D02*
G75*
G02X151400000Y-86300000I-1000000J0D01*
G01*
D10*
X160642380Y-72556666D02*
X160166190Y-72890000D01*
X160642380Y-73128095D02*
X159642380Y-73128095D01*
X159642380Y-72747142D01*
X159690000Y-72651904D01*
X159737619Y-72604285D01*
X159832857Y-72556666D01*
X159975714Y-72556666D01*
X160070952Y-72604285D01*
X160118571Y-72651904D01*
X160166190Y-72747142D01*
X160166190Y-73128095D01*
X160642380Y-71604285D02*
X160642380Y-72175714D01*
X160642380Y-71890000D02*
X159642380Y-71890000D01*
X159785238Y-71985238D01*
X159880476Y-72080476D01*
X159928095Y-72175714D01*
X152233333Y-65222380D02*
X151900000Y-64746190D01*
X151661904Y-65222380D02*
X151661904Y-64222380D01*
X152042857Y-64222380D01*
X152138095Y-64270000D01*
X152185714Y-64317619D01*
X152233333Y-64412857D01*
X152233333Y-64555714D01*
X152185714Y-64650952D01*
X152138095Y-64698571D01*
X152042857Y-64746190D01*
X151661904Y-64746190D01*
X152614285Y-64317619D02*
X152661904Y-64270000D01*
X152757142Y-64222380D01*
X152995238Y-64222380D01*
X153090476Y-64270000D01*
X153138095Y-64317619D01*
X153185714Y-64412857D01*
X153185714Y-64508095D01*
X153138095Y-64650952D01*
X152566666Y-65222380D01*
X153185714Y-65222380D01*
X160642380Y-87796666D02*
X160166190Y-88130000D01*
X160642380Y-88368095D02*
X159642380Y-88368095D01*
X159642380Y-87987142D01*
X159690000Y-87891904D01*
X159737619Y-87844285D01*
X159832857Y-87796666D01*
X159975714Y-87796666D01*
X160070952Y-87844285D01*
X160118571Y-87891904D01*
X160166190Y-87987142D01*
X160166190Y-88368095D01*
X159642380Y-87463333D02*
X159642380Y-86844285D01*
X160023333Y-87177619D01*
X160023333Y-87034761D01*
X160070952Y-86939523D01*
X160118571Y-86891904D01*
X160213809Y-86844285D01*
X160451904Y-86844285D01*
X160547142Y-86891904D01*
X160594761Y-86939523D01*
X160642380Y-87034761D01*
X160642380Y-87320476D01*
X160594761Y-87415714D01*
X160547142Y-87463333D01*
X152233333Y-80462380D02*
X151900000Y-79986190D01*
X151661904Y-80462380D02*
X151661904Y-79462380D01*
X152042857Y-79462380D01*
X152138095Y-79510000D01*
X152185714Y-79557619D01*
X152233333Y-79652857D01*
X152233333Y-79795714D01*
X152185714Y-79890952D01*
X152138095Y-79938571D01*
X152042857Y-79986190D01*
X151661904Y-79986190D01*
X153090476Y-79795714D02*
X153090476Y-80462380D01*
X152852380Y-79414761D02*
X152614285Y-80129047D01*
X153233333Y-80129047D01*
X135242380Y-94146666D02*
X134766190Y-94480000D01*
X135242380Y-94718095D02*
X134242380Y-94718095D01*
X134242380Y-94337142D01*
X134290000Y-94241904D01*
X134337619Y-94194285D01*
X134432857Y-94146666D01*
X134575714Y-94146666D01*
X134670952Y-94194285D01*
X134718571Y-94241904D01*
X134766190Y-94337142D01*
X134766190Y-94718095D01*
X134242380Y-93241904D02*
X134242380Y-93718095D01*
X134718571Y-93765714D01*
X134670952Y-93718095D01*
X134623333Y-93622857D01*
X134623333Y-93384761D01*
X134670952Y-93289523D01*
X134718571Y-93241904D01*
X134813809Y-93194285D01*
X135051904Y-93194285D01*
X135147142Y-93241904D01*
X135194761Y-93289523D01*
X135242380Y-93384761D01*
X135242380Y-93622857D01*
X135194761Y-93718095D01*
X135147142Y-93765714D01*
X140322380Y-94146666D02*
X139846190Y-94480000D01*
X140322380Y-94718095D02*
X139322380Y-94718095D01*
X139322380Y-94337142D01*
X139370000Y-94241904D01*
X139417619Y-94194285D01*
X139512857Y-94146666D01*
X139655714Y-94146666D01*
X139750952Y-94194285D01*
X139798571Y-94241904D01*
X139846190Y-94337142D01*
X139846190Y-94718095D01*
X139322380Y-93289523D02*
X139322380Y-93480000D01*
X139370000Y-93575238D01*
X139417619Y-93622857D01*
X139560476Y-93718095D01*
X139750952Y-93765714D01*
X140131904Y-93765714D01*
X140227142Y-93718095D01*
X140274761Y-93670476D01*
X140322380Y-93575238D01*
X140322380Y-93384761D01*
X140274761Y-93289523D01*
X140227142Y-93241904D01*
X140131904Y-93194285D01*
X139893809Y-93194285D01*
X139798571Y-93241904D01*
X139750952Y-93289523D01*
X139703333Y-93384761D01*
X139703333Y-93575238D01*
X139750952Y-93670476D01*
X139798571Y-93718095D01*
X139893809Y-93765714D01*
X151638095Y-69512380D02*
X151638095Y-70321904D01*
X151685714Y-70417142D01*
X151733333Y-70464761D01*
X151828571Y-70512380D01*
X152019047Y-70512380D01*
X152114285Y-70464761D01*
X152161904Y-70417142D01*
X152209523Y-70321904D01*
X152209523Y-69512380D01*
X153209523Y-70512380D02*
X152638095Y-70512380D01*
X152923809Y-70512380D02*
X152923809Y-69512380D01*
X152828571Y-69655238D01*
X152733333Y-69750476D01*
X152638095Y-69798095D01*
X151638095Y-84752380D02*
X151638095Y-85561904D01*
X151685714Y-85657142D01*
X151733333Y-85704761D01*
X151828571Y-85752380D01*
X152019047Y-85752380D01*
X152114285Y-85704761D01*
X152161904Y-85657142D01*
X152209523Y-85561904D01*
X152209523Y-84752380D01*
X152638095Y-84847619D02*
X152685714Y-84800000D01*
X152780952Y-84752380D01*
X153019047Y-84752380D01*
X153114285Y-84800000D01*
X153161904Y-84847619D01*
X153209523Y-84942857D01*
X153209523Y-85038095D01*
X153161904Y-85180952D01*
X152590476Y-85752380D01*
X153209523Y-85752380D01*
M02*
