G04 #@! TF.GenerationSoftware,KiCad,Pcbnew,5.1.4+dfsg1-2*
G04 #@! TF.CreationDate,2019-10-25T23:11:50+02:00*
G04 #@! TF.ProjectId,rpi_rpm,7270695f-7270-46d2-9e6b-696361645f70,rev?*
G04 #@! TF.SameCoordinates,Original*
G04 #@! TF.FileFunction,Copper,L2,Bot*
G04 #@! TF.FilePolarity,Positive*
%FSLAX46Y46*%
G04 Gerber Fmt 4.6, Leading zero omitted, Abs format (unit mm)*
G04 Created by KiCad (PCBNEW 5.1.4+dfsg1-2) date 2019-10-25 23:11:50*
%MOMM*%
%LPD*%
G04 APERTURE LIST*
%ADD10R,1.700000X1.700000*%
%ADD11O,1.700000X1.700000*%
%ADD12C,1.600000*%
%ADD13O,1.600000X1.600000*%
%ADD14R,1.600000X1.600000*%
%ADD15C,0.250000*%
%ADD16C,0.254000*%
G04 APERTURE END LIST*
D10*
X165100000Y-82550000D03*
D11*
X167640000Y-82550000D03*
X165100000Y-85090000D03*
X167640000Y-85090000D03*
X165100000Y-87630000D03*
X167640000Y-87630000D03*
X165100000Y-90170000D03*
X167640000Y-90170000D03*
X165100000Y-92710000D03*
X167640000Y-92710000D03*
X165100000Y-95250000D03*
X167640000Y-95250000D03*
X165100000Y-97790000D03*
X167640000Y-97790000D03*
X165100000Y-100330000D03*
X167640000Y-100330000D03*
X165100000Y-102870000D03*
X167640000Y-102870000D03*
X165100000Y-105410000D03*
X167640000Y-105410000D03*
X165100000Y-107950000D03*
X167640000Y-107950000D03*
X165100000Y-110490000D03*
X167640000Y-110490000D03*
X165100000Y-113030000D03*
X167640000Y-113030000D03*
D12*
X160020000Y-92710000D03*
D13*
X160020000Y-82550000D03*
D12*
X154940000Y-82550000D03*
D13*
X144780000Y-82550000D03*
X160020000Y-97790000D03*
D12*
X160020000Y-107950000D03*
D13*
X144780000Y-97790000D03*
D12*
X154940000Y-97790000D03*
D13*
X134620000Y-115570000D03*
D12*
X134620000Y-105410000D03*
X139700000Y-105410000D03*
D13*
X139700000Y-115570000D03*
D14*
X153670000Y-92710000D03*
D13*
X146050000Y-87630000D03*
X153670000Y-90170000D03*
X146050000Y-90170000D03*
X153670000Y-87630000D03*
X146050000Y-92710000D03*
X146050000Y-107950000D03*
X153670000Y-102870000D03*
X146050000Y-105410000D03*
X153670000Y-105410000D03*
X146050000Y-102870000D03*
D14*
X153670000Y-107950000D03*
D10*
X134620000Y-82550000D03*
D11*
X137160000Y-82550000D03*
X134620000Y-85090000D03*
X137160000Y-85090000D03*
X137160000Y-92710000D03*
X134620000Y-92710000D03*
X137160000Y-90170000D03*
D10*
X134620000Y-90170000D03*
X134620000Y-97790000D03*
D11*
X137160000Y-97790000D03*
X134620000Y-100330000D03*
X137160000Y-100330000D03*
D15*
X134620000Y-82550000D02*
X134620000Y-85090000D01*
X137160000Y-82550000D02*
X137160000Y-85090000D01*
X143510000Y-87630000D02*
X146050000Y-87630000D01*
X137160000Y-85090000D02*
X140970000Y-85090000D01*
X140970000Y-85090000D02*
X143510000Y-87630000D01*
X137160000Y-90170000D02*
X137160000Y-92710000D01*
X143510000Y-102870000D02*
X146050000Y-102870000D01*
X140970000Y-100330000D02*
X143510000Y-102870000D01*
X140970000Y-95250000D02*
X140970000Y-100330000D01*
X137160000Y-92710000D02*
X140970000Y-92710000D01*
X140970000Y-92710000D02*
X140970000Y-95250000D01*
X134620000Y-90170000D02*
X134620000Y-92710000D01*
X134620000Y-97790000D02*
X134620000Y-100330000D01*
D16*
G36*
X170053000Y-116713000D02*
G01*
X140569254Y-116713000D01*
X140719608Y-116589608D01*
X140898932Y-116371101D01*
X141032182Y-116121808D01*
X141114236Y-115851309D01*
X141141943Y-115570000D01*
X141114236Y-115288691D01*
X141032182Y-115018192D01*
X140898932Y-114768899D01*
X140719608Y-114550392D01*
X140501101Y-114371068D01*
X140251808Y-114237818D01*
X139981309Y-114155764D01*
X139770492Y-114135000D01*
X139629508Y-114135000D01*
X139418691Y-114155764D01*
X139148192Y-114237818D01*
X138898899Y-114371068D01*
X138680392Y-114550392D01*
X138501068Y-114768899D01*
X138367818Y-115018192D01*
X138285764Y-115288691D01*
X138258057Y-115570000D01*
X138285764Y-115851309D01*
X138367818Y-116121808D01*
X138501068Y-116371101D01*
X138680392Y-116589608D01*
X138830746Y-116713000D01*
X135489254Y-116713000D01*
X135639608Y-116589608D01*
X135818932Y-116371101D01*
X135952182Y-116121808D01*
X136034236Y-115851309D01*
X136061943Y-115570000D01*
X136034236Y-115288691D01*
X135952182Y-115018192D01*
X135818932Y-114768899D01*
X135639608Y-114550392D01*
X135421101Y-114371068D01*
X135171808Y-114237818D01*
X134901309Y-114155764D01*
X134690492Y-114135000D01*
X134549508Y-114135000D01*
X134338691Y-114155764D01*
X134068192Y-114237818D01*
X133818899Y-114371068D01*
X133600392Y-114550392D01*
X133421068Y-114768899D01*
X133287818Y-115018192D01*
X133205764Y-115288691D01*
X133178057Y-115570000D01*
X133205764Y-115851309D01*
X133287818Y-116121808D01*
X133421068Y-116371101D01*
X133600392Y-116589608D01*
X133750746Y-116713000D01*
X132207000Y-116713000D01*
X132207000Y-105268665D01*
X133185000Y-105268665D01*
X133185000Y-105551335D01*
X133240147Y-105828574D01*
X133348320Y-106089727D01*
X133505363Y-106324759D01*
X133705241Y-106524637D01*
X133940273Y-106681680D01*
X134201426Y-106789853D01*
X134478665Y-106845000D01*
X134761335Y-106845000D01*
X135038574Y-106789853D01*
X135299727Y-106681680D01*
X135534759Y-106524637D01*
X135656694Y-106402702D01*
X138886903Y-106402702D01*
X138958486Y-106646671D01*
X139213996Y-106767571D01*
X139488184Y-106836300D01*
X139770512Y-106850217D01*
X140050130Y-106808787D01*
X140316292Y-106713603D01*
X140441514Y-106646671D01*
X140513097Y-106402702D01*
X139700000Y-105589605D01*
X138886903Y-106402702D01*
X135656694Y-106402702D01*
X135734637Y-106324759D01*
X135891680Y-106089727D01*
X135999853Y-105828574D01*
X136055000Y-105551335D01*
X136055000Y-105480512D01*
X138259783Y-105480512D01*
X138301213Y-105760130D01*
X138396397Y-106026292D01*
X138463329Y-106151514D01*
X138707298Y-106223097D01*
X139520395Y-105410000D01*
X139879605Y-105410000D01*
X140692702Y-106223097D01*
X140936671Y-106151514D01*
X141057571Y-105896004D01*
X141126300Y-105621816D01*
X141140217Y-105339488D01*
X141098787Y-105059870D01*
X141003603Y-104793708D01*
X140936671Y-104668486D01*
X140692702Y-104596903D01*
X139879605Y-105410000D01*
X139520395Y-105410000D01*
X138707298Y-104596903D01*
X138463329Y-104668486D01*
X138342429Y-104923996D01*
X138273700Y-105198184D01*
X138259783Y-105480512D01*
X136055000Y-105480512D01*
X136055000Y-105268665D01*
X135999853Y-104991426D01*
X135891680Y-104730273D01*
X135734637Y-104495241D01*
X135656694Y-104417298D01*
X138886903Y-104417298D01*
X139700000Y-105230395D01*
X140513097Y-104417298D01*
X140441514Y-104173329D01*
X140186004Y-104052429D01*
X139911816Y-103983700D01*
X139629488Y-103969783D01*
X139349870Y-104011213D01*
X139083708Y-104106397D01*
X138958486Y-104173329D01*
X138886903Y-104417298D01*
X135656694Y-104417298D01*
X135534759Y-104295363D01*
X135299727Y-104138320D01*
X135038574Y-104030147D01*
X134761335Y-103975000D01*
X134478665Y-103975000D01*
X134201426Y-104030147D01*
X133940273Y-104138320D01*
X133705241Y-104295363D01*
X133505363Y-104495241D01*
X133348320Y-104730273D01*
X133240147Y-104991426D01*
X133185000Y-105268665D01*
X132207000Y-105268665D01*
X132207000Y-100330000D01*
X133127815Y-100330000D01*
X133156487Y-100621111D01*
X133241401Y-100901034D01*
X133379294Y-101159014D01*
X133564866Y-101385134D01*
X133790986Y-101570706D01*
X134048966Y-101708599D01*
X134328889Y-101793513D01*
X134547050Y-101815000D01*
X134692950Y-101815000D01*
X134911111Y-101793513D01*
X135191034Y-101708599D01*
X135449014Y-101570706D01*
X135675134Y-101385134D01*
X135860706Y-101159014D01*
X135891584Y-101101244D01*
X136062412Y-101330269D01*
X136278645Y-101525178D01*
X136528748Y-101674157D01*
X136803109Y-101771481D01*
X137033000Y-101650814D01*
X137033000Y-100457000D01*
X137287000Y-100457000D01*
X137287000Y-101650814D01*
X137516891Y-101771481D01*
X137791252Y-101674157D01*
X138041355Y-101525178D01*
X138257588Y-101330269D01*
X138431641Y-101096920D01*
X138556825Y-100834099D01*
X138601476Y-100686890D01*
X138480155Y-100457000D01*
X137287000Y-100457000D01*
X137033000Y-100457000D01*
X137013000Y-100457000D01*
X137013000Y-100203000D01*
X137033000Y-100203000D01*
X137033000Y-97917000D01*
X137287000Y-97917000D01*
X137287000Y-100203000D01*
X138480155Y-100203000D01*
X138601476Y-99973110D01*
X138556825Y-99825901D01*
X138431641Y-99563080D01*
X138257588Y-99329731D01*
X138041355Y-99134822D01*
X137915745Y-99060000D01*
X138041355Y-98985178D01*
X138257588Y-98790269D01*
X138431641Y-98556920D01*
X138556825Y-98294099D01*
X138601476Y-98146890D01*
X138480155Y-97917000D01*
X137287000Y-97917000D01*
X137033000Y-97917000D01*
X137013000Y-97917000D01*
X137013000Y-97663000D01*
X137033000Y-97663000D01*
X137033000Y-96469186D01*
X137287000Y-96469186D01*
X137287000Y-97663000D01*
X138480155Y-97663000D01*
X138601476Y-97433110D01*
X138556825Y-97285901D01*
X138431641Y-97023080D01*
X138257588Y-96789731D01*
X138041355Y-96594822D01*
X137791252Y-96445843D01*
X137516891Y-96348519D01*
X137287000Y-96469186D01*
X137033000Y-96469186D01*
X136803109Y-96348519D01*
X136528748Y-96445843D01*
X136278645Y-96594822D01*
X136082498Y-96771626D01*
X136059502Y-96695820D01*
X136000537Y-96585506D01*
X135921185Y-96488815D01*
X135824494Y-96409463D01*
X135714180Y-96350498D01*
X135594482Y-96314188D01*
X135470000Y-96301928D01*
X133770000Y-96301928D01*
X133645518Y-96314188D01*
X133525820Y-96350498D01*
X133415506Y-96409463D01*
X133318815Y-96488815D01*
X133239463Y-96585506D01*
X133180498Y-96695820D01*
X133144188Y-96815518D01*
X133131928Y-96940000D01*
X133131928Y-98640000D01*
X133144188Y-98764482D01*
X133180498Y-98884180D01*
X133239463Y-98994494D01*
X133318815Y-99091185D01*
X133415506Y-99170537D01*
X133525820Y-99229502D01*
X133594687Y-99250393D01*
X133564866Y-99274866D01*
X133379294Y-99500986D01*
X133241401Y-99758966D01*
X133156487Y-100038889D01*
X133127815Y-100330000D01*
X132207000Y-100330000D01*
X132207000Y-92710000D01*
X133127815Y-92710000D01*
X133156487Y-93001111D01*
X133241401Y-93281034D01*
X133379294Y-93539014D01*
X133564866Y-93765134D01*
X133790986Y-93950706D01*
X134048966Y-94088599D01*
X134328889Y-94173513D01*
X134547050Y-94195000D01*
X134692950Y-94195000D01*
X134911111Y-94173513D01*
X135191034Y-94088599D01*
X135449014Y-93950706D01*
X135675134Y-93765134D01*
X135860706Y-93539014D01*
X135890000Y-93484209D01*
X135919294Y-93539014D01*
X136104866Y-93765134D01*
X136330986Y-93950706D01*
X136588966Y-94088599D01*
X136868889Y-94173513D01*
X137087050Y-94195000D01*
X137232950Y-94195000D01*
X137451111Y-94173513D01*
X137731034Y-94088599D01*
X137989014Y-93950706D01*
X138215134Y-93765134D01*
X138400706Y-93539014D01*
X138437595Y-93470000D01*
X140210000Y-93470000D01*
X140210001Y-95212658D01*
X140210000Y-95212668D01*
X140210001Y-100292668D01*
X140206324Y-100330000D01*
X140220998Y-100478985D01*
X140264454Y-100622246D01*
X140335026Y-100754276D01*
X140400536Y-100834099D01*
X140430000Y-100870001D01*
X140458998Y-100893799D01*
X142946205Y-103381008D01*
X142969999Y-103410001D01*
X142998992Y-103433795D01*
X142998996Y-103433799D01*
X143069685Y-103491811D01*
X143085724Y-103504974D01*
X143217753Y-103575546D01*
X143361014Y-103619003D01*
X143472667Y-103630000D01*
X143472676Y-103630000D01*
X143509999Y-103633676D01*
X143547322Y-103630000D01*
X144829099Y-103630000D01*
X144851068Y-103671101D01*
X145030392Y-103889608D01*
X145248899Y-104068932D01*
X145381858Y-104140000D01*
X145248899Y-104211068D01*
X145030392Y-104390392D01*
X144851068Y-104608899D01*
X144717818Y-104858192D01*
X144635764Y-105128691D01*
X144608057Y-105410000D01*
X144635764Y-105691309D01*
X144717818Y-105961808D01*
X144851068Y-106211101D01*
X145030392Y-106429608D01*
X145248899Y-106608932D01*
X145381858Y-106680000D01*
X145248899Y-106751068D01*
X145030392Y-106930392D01*
X144851068Y-107148899D01*
X144717818Y-107398192D01*
X144635764Y-107668691D01*
X144608057Y-107950000D01*
X144635764Y-108231309D01*
X144717818Y-108501808D01*
X144851068Y-108751101D01*
X145030392Y-108969608D01*
X145248899Y-109148932D01*
X145498192Y-109282182D01*
X145768691Y-109364236D01*
X145979508Y-109385000D01*
X146120492Y-109385000D01*
X146331309Y-109364236D01*
X146601808Y-109282182D01*
X146851101Y-109148932D01*
X147069608Y-108969608D01*
X147248932Y-108751101D01*
X147382182Y-108501808D01*
X147464236Y-108231309D01*
X147491943Y-107950000D01*
X147464236Y-107668691D01*
X147382182Y-107398192D01*
X147249521Y-107150000D01*
X152231928Y-107150000D01*
X152231928Y-108750000D01*
X152244188Y-108874482D01*
X152280498Y-108994180D01*
X152339463Y-109104494D01*
X152418815Y-109201185D01*
X152515506Y-109280537D01*
X152625820Y-109339502D01*
X152745518Y-109375812D01*
X152870000Y-109388072D01*
X154470000Y-109388072D01*
X154594482Y-109375812D01*
X154714180Y-109339502D01*
X154824494Y-109280537D01*
X154921185Y-109201185D01*
X155000537Y-109104494D01*
X155059502Y-108994180D01*
X155095812Y-108874482D01*
X155108072Y-108750000D01*
X155108072Y-107808665D01*
X158585000Y-107808665D01*
X158585000Y-108091335D01*
X158640147Y-108368574D01*
X158748320Y-108629727D01*
X158905363Y-108864759D01*
X159105241Y-109064637D01*
X159340273Y-109221680D01*
X159601426Y-109329853D01*
X159878665Y-109385000D01*
X160161335Y-109385000D01*
X160438574Y-109329853D01*
X160699727Y-109221680D01*
X160934759Y-109064637D01*
X161134637Y-108864759D01*
X161291680Y-108629727D01*
X161399853Y-108368574D01*
X161455000Y-108091335D01*
X161455000Y-107808665D01*
X161399853Y-107531426D01*
X161291680Y-107270273D01*
X161134637Y-107035241D01*
X160934759Y-106835363D01*
X160699727Y-106678320D01*
X160438574Y-106570147D01*
X160161335Y-106515000D01*
X159878665Y-106515000D01*
X159601426Y-106570147D01*
X159340273Y-106678320D01*
X159105241Y-106835363D01*
X158905363Y-107035241D01*
X158748320Y-107270273D01*
X158640147Y-107531426D01*
X158585000Y-107808665D01*
X155108072Y-107808665D01*
X155108072Y-107150000D01*
X155095812Y-107025518D01*
X155059502Y-106905820D01*
X155000537Y-106795506D01*
X154921185Y-106698815D01*
X154824494Y-106619463D01*
X154714180Y-106560498D01*
X154594482Y-106524188D01*
X154569920Y-106521769D01*
X154733519Y-106373414D01*
X154901037Y-106147420D01*
X155021246Y-105893087D01*
X155061904Y-105759039D01*
X154939915Y-105537000D01*
X153797000Y-105537000D01*
X153797000Y-105557000D01*
X153543000Y-105557000D01*
X153543000Y-105537000D01*
X152400085Y-105537000D01*
X152278096Y-105759039D01*
X152318754Y-105893087D01*
X152438963Y-106147420D01*
X152606481Y-106373414D01*
X152770080Y-106521769D01*
X152745518Y-106524188D01*
X152625820Y-106560498D01*
X152515506Y-106619463D01*
X152418815Y-106698815D01*
X152339463Y-106795506D01*
X152280498Y-106905820D01*
X152244188Y-107025518D01*
X152231928Y-107150000D01*
X147249521Y-107150000D01*
X147248932Y-107148899D01*
X147069608Y-106930392D01*
X146851101Y-106751068D01*
X146718142Y-106680000D01*
X146851101Y-106608932D01*
X147069608Y-106429608D01*
X147248932Y-106211101D01*
X147382182Y-105961808D01*
X147464236Y-105691309D01*
X147491943Y-105410000D01*
X147464236Y-105128691D01*
X147382182Y-104858192D01*
X147248932Y-104608899D01*
X147069608Y-104390392D01*
X146851101Y-104211068D01*
X146718142Y-104140000D01*
X146851101Y-104068932D01*
X147069608Y-103889608D01*
X147248932Y-103671101D01*
X147382182Y-103421808D01*
X147464236Y-103151309D01*
X147491943Y-102870000D01*
X152228057Y-102870000D01*
X152255764Y-103151309D01*
X152337818Y-103421808D01*
X152471068Y-103671101D01*
X152650392Y-103889608D01*
X152868899Y-104068932D01*
X153006682Y-104142579D01*
X152814869Y-104257615D01*
X152606481Y-104446586D01*
X152438963Y-104672580D01*
X152318754Y-104926913D01*
X152278096Y-105060961D01*
X152400085Y-105283000D01*
X153543000Y-105283000D01*
X153543000Y-105263000D01*
X153797000Y-105263000D01*
X153797000Y-105283000D01*
X154939915Y-105283000D01*
X155061904Y-105060961D01*
X155021246Y-104926913D01*
X154901037Y-104672580D01*
X154733519Y-104446586D01*
X154525131Y-104257615D01*
X154333318Y-104142579D01*
X154471101Y-104068932D01*
X154689608Y-103889608D01*
X154868932Y-103671101D01*
X155002182Y-103421808D01*
X155084236Y-103151309D01*
X155111943Y-102870000D01*
X155084236Y-102588691D01*
X155002182Y-102318192D01*
X154868932Y-102068899D01*
X154689608Y-101850392D01*
X154471101Y-101671068D01*
X154221808Y-101537818D01*
X153951309Y-101455764D01*
X153740492Y-101435000D01*
X153599508Y-101435000D01*
X153388691Y-101455764D01*
X153118192Y-101537818D01*
X152868899Y-101671068D01*
X152650392Y-101850392D01*
X152471068Y-102068899D01*
X152337818Y-102318192D01*
X152255764Y-102588691D01*
X152228057Y-102870000D01*
X147491943Y-102870000D01*
X147464236Y-102588691D01*
X147382182Y-102318192D01*
X147248932Y-102068899D01*
X147069608Y-101850392D01*
X146851101Y-101671068D01*
X146601808Y-101537818D01*
X146331309Y-101455764D01*
X146120492Y-101435000D01*
X145979508Y-101435000D01*
X145768691Y-101455764D01*
X145498192Y-101537818D01*
X145248899Y-101671068D01*
X145030392Y-101850392D01*
X144851068Y-102068899D01*
X144829099Y-102110000D01*
X143824803Y-102110000D01*
X141730000Y-100015199D01*
X141730000Y-97790000D01*
X143338057Y-97790000D01*
X143365764Y-98071309D01*
X143447818Y-98341808D01*
X143581068Y-98591101D01*
X143760392Y-98809608D01*
X143978899Y-98988932D01*
X144228192Y-99122182D01*
X144498691Y-99204236D01*
X144709508Y-99225000D01*
X144850492Y-99225000D01*
X145061309Y-99204236D01*
X145331808Y-99122182D01*
X145581101Y-98988932D01*
X145799608Y-98809608D01*
X145978932Y-98591101D01*
X146112182Y-98341808D01*
X146194236Y-98071309D01*
X146221943Y-97790000D01*
X146208023Y-97648665D01*
X153505000Y-97648665D01*
X153505000Y-97931335D01*
X153560147Y-98208574D01*
X153668320Y-98469727D01*
X153825363Y-98704759D01*
X154025241Y-98904637D01*
X154260273Y-99061680D01*
X154521426Y-99169853D01*
X154798665Y-99225000D01*
X155081335Y-99225000D01*
X155358574Y-99169853D01*
X155619727Y-99061680D01*
X155854759Y-98904637D01*
X156054637Y-98704759D01*
X156211680Y-98469727D01*
X156319853Y-98208574D01*
X156375000Y-97931335D01*
X156375000Y-97790000D01*
X158578057Y-97790000D01*
X158605764Y-98071309D01*
X158687818Y-98341808D01*
X158821068Y-98591101D01*
X159000392Y-98809608D01*
X159218899Y-98988932D01*
X159468192Y-99122182D01*
X159738691Y-99204236D01*
X159949508Y-99225000D01*
X160090492Y-99225000D01*
X160301309Y-99204236D01*
X160571808Y-99122182D01*
X160821101Y-98988932D01*
X161039608Y-98809608D01*
X161218932Y-98591101D01*
X161352182Y-98341808D01*
X161434236Y-98071309D01*
X161461943Y-97790000D01*
X161434236Y-97508691D01*
X161352182Y-97238192D01*
X161218932Y-96988899D01*
X161039608Y-96770392D01*
X160821101Y-96591068D01*
X160571808Y-96457818D01*
X160301309Y-96375764D01*
X160090492Y-96355000D01*
X159949508Y-96355000D01*
X159738691Y-96375764D01*
X159468192Y-96457818D01*
X159218899Y-96591068D01*
X159000392Y-96770392D01*
X158821068Y-96988899D01*
X158687818Y-97238192D01*
X158605764Y-97508691D01*
X158578057Y-97790000D01*
X156375000Y-97790000D01*
X156375000Y-97648665D01*
X156319853Y-97371426D01*
X156211680Y-97110273D01*
X156054637Y-96875241D01*
X155854759Y-96675363D01*
X155619727Y-96518320D01*
X155358574Y-96410147D01*
X155081335Y-96355000D01*
X154798665Y-96355000D01*
X154521426Y-96410147D01*
X154260273Y-96518320D01*
X154025241Y-96675363D01*
X153825363Y-96875241D01*
X153668320Y-97110273D01*
X153560147Y-97371426D01*
X153505000Y-97648665D01*
X146208023Y-97648665D01*
X146194236Y-97508691D01*
X146112182Y-97238192D01*
X145978932Y-96988899D01*
X145799608Y-96770392D01*
X145581101Y-96591068D01*
X145331808Y-96457818D01*
X145061309Y-96375764D01*
X144850492Y-96355000D01*
X144709508Y-96355000D01*
X144498691Y-96375764D01*
X144228192Y-96457818D01*
X143978899Y-96591068D01*
X143760392Y-96770392D01*
X143581068Y-96988899D01*
X143447818Y-97238192D01*
X143365764Y-97508691D01*
X143338057Y-97790000D01*
X141730000Y-97790000D01*
X141730000Y-92747333D01*
X141733677Y-92710000D01*
X141719003Y-92561014D01*
X141675546Y-92417753D01*
X141604974Y-92285724D01*
X141510001Y-92169999D01*
X141394276Y-92075026D01*
X141262247Y-92004454D01*
X141118986Y-91960997D01*
X141007333Y-91950000D01*
X140970000Y-91946323D01*
X140932667Y-91950000D01*
X138437595Y-91950000D01*
X138400706Y-91880986D01*
X138215134Y-91654866D01*
X137989014Y-91469294D01*
X137934209Y-91440000D01*
X137989014Y-91410706D01*
X138215134Y-91225134D01*
X138400706Y-90999014D01*
X138538599Y-90741034D01*
X138623513Y-90461111D01*
X138652185Y-90170000D01*
X138623513Y-89878889D01*
X138538599Y-89598966D01*
X138400706Y-89340986D01*
X138215134Y-89114866D01*
X137989014Y-88929294D01*
X137731034Y-88791401D01*
X137451111Y-88706487D01*
X137232950Y-88685000D01*
X137087050Y-88685000D01*
X136868889Y-88706487D01*
X136588966Y-88791401D01*
X136330986Y-88929294D01*
X136104866Y-89114866D01*
X136080393Y-89144687D01*
X136059502Y-89075820D01*
X136000537Y-88965506D01*
X135921185Y-88868815D01*
X135824494Y-88789463D01*
X135714180Y-88730498D01*
X135594482Y-88694188D01*
X135470000Y-88681928D01*
X133770000Y-88681928D01*
X133645518Y-88694188D01*
X133525820Y-88730498D01*
X133415506Y-88789463D01*
X133318815Y-88868815D01*
X133239463Y-88965506D01*
X133180498Y-89075820D01*
X133144188Y-89195518D01*
X133131928Y-89320000D01*
X133131928Y-91020000D01*
X133144188Y-91144482D01*
X133180498Y-91264180D01*
X133239463Y-91374494D01*
X133318815Y-91471185D01*
X133415506Y-91550537D01*
X133525820Y-91609502D01*
X133594687Y-91630393D01*
X133564866Y-91654866D01*
X133379294Y-91880986D01*
X133241401Y-92138966D01*
X133156487Y-92418889D01*
X133127815Y-92710000D01*
X132207000Y-92710000D01*
X132207000Y-85090000D01*
X133127815Y-85090000D01*
X133156487Y-85381111D01*
X133241401Y-85661034D01*
X133379294Y-85919014D01*
X133564866Y-86145134D01*
X133790986Y-86330706D01*
X134048966Y-86468599D01*
X134328889Y-86553513D01*
X134547050Y-86575000D01*
X134692950Y-86575000D01*
X134911111Y-86553513D01*
X135191034Y-86468599D01*
X135449014Y-86330706D01*
X135675134Y-86145134D01*
X135860706Y-85919014D01*
X135890000Y-85864209D01*
X135919294Y-85919014D01*
X136104866Y-86145134D01*
X136330986Y-86330706D01*
X136588966Y-86468599D01*
X136868889Y-86553513D01*
X137087050Y-86575000D01*
X137232950Y-86575000D01*
X137451111Y-86553513D01*
X137731034Y-86468599D01*
X137989014Y-86330706D01*
X138215134Y-86145134D01*
X138400706Y-85919014D01*
X138437595Y-85850000D01*
X140655199Y-85850000D01*
X142946205Y-88141008D01*
X142969999Y-88170001D01*
X142998992Y-88193795D01*
X142998996Y-88193799D01*
X143069685Y-88251811D01*
X143085724Y-88264974D01*
X143217753Y-88335546D01*
X143361014Y-88379003D01*
X143472667Y-88390000D01*
X143472676Y-88390000D01*
X143509999Y-88393676D01*
X143547322Y-88390000D01*
X144829099Y-88390000D01*
X144851068Y-88431101D01*
X145030392Y-88649608D01*
X145248899Y-88828932D01*
X145381858Y-88900000D01*
X145248899Y-88971068D01*
X145030392Y-89150392D01*
X144851068Y-89368899D01*
X144717818Y-89618192D01*
X144635764Y-89888691D01*
X144608057Y-90170000D01*
X144635764Y-90451309D01*
X144717818Y-90721808D01*
X144851068Y-90971101D01*
X145030392Y-91189608D01*
X145248899Y-91368932D01*
X145381858Y-91440000D01*
X145248899Y-91511068D01*
X145030392Y-91690392D01*
X144851068Y-91908899D01*
X144717818Y-92158192D01*
X144635764Y-92428691D01*
X144608057Y-92710000D01*
X144635764Y-92991309D01*
X144717818Y-93261808D01*
X144851068Y-93511101D01*
X145030392Y-93729608D01*
X145248899Y-93908932D01*
X145498192Y-94042182D01*
X145768691Y-94124236D01*
X145979508Y-94145000D01*
X146120492Y-94145000D01*
X146331309Y-94124236D01*
X146601808Y-94042182D01*
X146851101Y-93908932D01*
X147069608Y-93729608D01*
X147248932Y-93511101D01*
X147382182Y-93261808D01*
X147464236Y-92991309D01*
X147491943Y-92710000D01*
X147464236Y-92428691D01*
X147382182Y-92158192D01*
X147249521Y-91910000D01*
X152231928Y-91910000D01*
X152231928Y-93510000D01*
X152244188Y-93634482D01*
X152280498Y-93754180D01*
X152339463Y-93864494D01*
X152418815Y-93961185D01*
X152515506Y-94040537D01*
X152625820Y-94099502D01*
X152745518Y-94135812D01*
X152870000Y-94148072D01*
X154470000Y-94148072D01*
X154594482Y-94135812D01*
X154714180Y-94099502D01*
X154824494Y-94040537D01*
X154921185Y-93961185D01*
X155000537Y-93864494D01*
X155059502Y-93754180D01*
X155095812Y-93634482D01*
X155108072Y-93510000D01*
X155108072Y-92568665D01*
X158585000Y-92568665D01*
X158585000Y-92851335D01*
X158640147Y-93128574D01*
X158748320Y-93389727D01*
X158905363Y-93624759D01*
X159105241Y-93824637D01*
X159340273Y-93981680D01*
X159601426Y-94089853D01*
X159878665Y-94145000D01*
X160161335Y-94145000D01*
X160438574Y-94089853D01*
X160699727Y-93981680D01*
X160934759Y-93824637D01*
X161134637Y-93624759D01*
X161291680Y-93389727D01*
X161399853Y-93128574D01*
X161455000Y-92851335D01*
X161455000Y-92568665D01*
X161399853Y-92291426D01*
X161291680Y-92030273D01*
X161134637Y-91795241D01*
X160934759Y-91595363D01*
X160699727Y-91438320D01*
X160438574Y-91330147D01*
X160161335Y-91275000D01*
X159878665Y-91275000D01*
X159601426Y-91330147D01*
X159340273Y-91438320D01*
X159105241Y-91595363D01*
X158905363Y-91795241D01*
X158748320Y-92030273D01*
X158640147Y-92291426D01*
X158585000Y-92568665D01*
X155108072Y-92568665D01*
X155108072Y-91910000D01*
X155095812Y-91785518D01*
X155059502Y-91665820D01*
X155000537Y-91555506D01*
X154921185Y-91458815D01*
X154824494Y-91379463D01*
X154714180Y-91320498D01*
X154594482Y-91284188D01*
X154569920Y-91281769D01*
X154733519Y-91133414D01*
X154901037Y-90907420D01*
X155021246Y-90653087D01*
X155061904Y-90519039D01*
X154939915Y-90297000D01*
X153797000Y-90297000D01*
X153797000Y-90317000D01*
X153543000Y-90317000D01*
X153543000Y-90297000D01*
X152400085Y-90297000D01*
X152278096Y-90519039D01*
X152318754Y-90653087D01*
X152438963Y-90907420D01*
X152606481Y-91133414D01*
X152770080Y-91281769D01*
X152745518Y-91284188D01*
X152625820Y-91320498D01*
X152515506Y-91379463D01*
X152418815Y-91458815D01*
X152339463Y-91555506D01*
X152280498Y-91665820D01*
X152244188Y-91785518D01*
X152231928Y-91910000D01*
X147249521Y-91910000D01*
X147248932Y-91908899D01*
X147069608Y-91690392D01*
X146851101Y-91511068D01*
X146718142Y-91440000D01*
X146851101Y-91368932D01*
X147069608Y-91189608D01*
X147248932Y-90971101D01*
X147382182Y-90721808D01*
X147464236Y-90451309D01*
X147491943Y-90170000D01*
X147464236Y-89888691D01*
X147382182Y-89618192D01*
X147248932Y-89368899D01*
X147069608Y-89150392D01*
X146851101Y-88971068D01*
X146718142Y-88900000D01*
X146851101Y-88828932D01*
X147069608Y-88649608D01*
X147248932Y-88431101D01*
X147382182Y-88181808D01*
X147464236Y-87911309D01*
X147491943Y-87630000D01*
X152228057Y-87630000D01*
X152255764Y-87911309D01*
X152337818Y-88181808D01*
X152471068Y-88431101D01*
X152650392Y-88649608D01*
X152868899Y-88828932D01*
X153006682Y-88902579D01*
X152814869Y-89017615D01*
X152606481Y-89206586D01*
X152438963Y-89432580D01*
X152318754Y-89686913D01*
X152278096Y-89820961D01*
X152400085Y-90043000D01*
X153543000Y-90043000D01*
X153543000Y-90023000D01*
X153797000Y-90023000D01*
X153797000Y-90043000D01*
X154939915Y-90043000D01*
X155061904Y-89820961D01*
X155021246Y-89686913D01*
X154901037Y-89432580D01*
X154733519Y-89206586D01*
X154525131Y-89017615D01*
X154333318Y-88902579D01*
X154471101Y-88828932D01*
X154689608Y-88649608D01*
X154868932Y-88431101D01*
X155002182Y-88181808D01*
X155084236Y-87911309D01*
X155111943Y-87630000D01*
X155084236Y-87348691D01*
X155002182Y-87078192D01*
X154868932Y-86828899D01*
X154689608Y-86610392D01*
X154471101Y-86431068D01*
X154221808Y-86297818D01*
X153951309Y-86215764D01*
X153740492Y-86195000D01*
X153599508Y-86195000D01*
X153388691Y-86215764D01*
X153118192Y-86297818D01*
X152868899Y-86431068D01*
X152650392Y-86610392D01*
X152471068Y-86828899D01*
X152337818Y-87078192D01*
X152255764Y-87348691D01*
X152228057Y-87630000D01*
X147491943Y-87630000D01*
X147464236Y-87348691D01*
X147382182Y-87078192D01*
X147248932Y-86828899D01*
X147069608Y-86610392D01*
X146851101Y-86431068D01*
X146601808Y-86297818D01*
X146331309Y-86215764D01*
X146120492Y-86195000D01*
X145979508Y-86195000D01*
X145768691Y-86215764D01*
X145498192Y-86297818D01*
X145248899Y-86431068D01*
X145030392Y-86610392D01*
X144851068Y-86828899D01*
X144829099Y-86870000D01*
X143824803Y-86870000D01*
X142044802Y-85090000D01*
X163607815Y-85090000D01*
X163636487Y-85381111D01*
X163721401Y-85661034D01*
X163859294Y-85919014D01*
X164044866Y-86145134D01*
X164270986Y-86330706D01*
X164325791Y-86360000D01*
X164270986Y-86389294D01*
X164044866Y-86574866D01*
X163859294Y-86800986D01*
X163721401Y-87058966D01*
X163636487Y-87338889D01*
X163607815Y-87630000D01*
X163636487Y-87921111D01*
X163721401Y-88201034D01*
X163859294Y-88459014D01*
X164044866Y-88685134D01*
X164270986Y-88870706D01*
X164325791Y-88900000D01*
X164270986Y-88929294D01*
X164044866Y-89114866D01*
X163859294Y-89340986D01*
X163721401Y-89598966D01*
X163636487Y-89878889D01*
X163607815Y-90170000D01*
X163636487Y-90461111D01*
X163721401Y-90741034D01*
X163859294Y-90999014D01*
X164044866Y-91225134D01*
X164270986Y-91410706D01*
X164335523Y-91445201D01*
X164218645Y-91514822D01*
X164002412Y-91709731D01*
X163828359Y-91943080D01*
X163703175Y-92205901D01*
X163658524Y-92353110D01*
X163779845Y-92583000D01*
X164973000Y-92583000D01*
X164973000Y-92563000D01*
X165227000Y-92563000D01*
X165227000Y-92583000D01*
X165247000Y-92583000D01*
X165247000Y-92837000D01*
X165227000Y-92837000D01*
X165227000Y-92857000D01*
X164973000Y-92857000D01*
X164973000Y-92837000D01*
X163779845Y-92837000D01*
X163658524Y-93066890D01*
X163703175Y-93214099D01*
X163828359Y-93476920D01*
X164002412Y-93710269D01*
X164218645Y-93905178D01*
X164335523Y-93974799D01*
X164270986Y-94009294D01*
X164044866Y-94194866D01*
X163859294Y-94420986D01*
X163721401Y-94678966D01*
X163636487Y-94958889D01*
X163607815Y-95250000D01*
X163636487Y-95541111D01*
X163721401Y-95821034D01*
X163859294Y-96079014D01*
X164044866Y-96305134D01*
X164270986Y-96490706D01*
X164325791Y-96520000D01*
X164270986Y-96549294D01*
X164044866Y-96734866D01*
X163859294Y-96960986D01*
X163721401Y-97218966D01*
X163636487Y-97498889D01*
X163607815Y-97790000D01*
X163636487Y-98081111D01*
X163721401Y-98361034D01*
X163859294Y-98619014D01*
X164044866Y-98845134D01*
X164270986Y-99030706D01*
X164325791Y-99060000D01*
X164270986Y-99089294D01*
X164044866Y-99274866D01*
X163859294Y-99500986D01*
X163721401Y-99758966D01*
X163636487Y-100038889D01*
X163607815Y-100330000D01*
X163636487Y-100621111D01*
X163721401Y-100901034D01*
X163859294Y-101159014D01*
X164044866Y-101385134D01*
X164270986Y-101570706D01*
X164325791Y-101600000D01*
X164270986Y-101629294D01*
X164044866Y-101814866D01*
X163859294Y-102040986D01*
X163721401Y-102298966D01*
X163636487Y-102578889D01*
X163607815Y-102870000D01*
X163636487Y-103161111D01*
X163721401Y-103441034D01*
X163859294Y-103699014D01*
X164044866Y-103925134D01*
X164270986Y-104110706D01*
X164325791Y-104140000D01*
X164270986Y-104169294D01*
X164044866Y-104354866D01*
X163859294Y-104580986D01*
X163721401Y-104838966D01*
X163636487Y-105118889D01*
X163607815Y-105410000D01*
X163636487Y-105701111D01*
X163721401Y-105981034D01*
X163859294Y-106239014D01*
X164044866Y-106465134D01*
X164270986Y-106650706D01*
X164325791Y-106680000D01*
X164270986Y-106709294D01*
X164044866Y-106894866D01*
X163859294Y-107120986D01*
X163721401Y-107378966D01*
X163636487Y-107658889D01*
X163607815Y-107950000D01*
X163636487Y-108241111D01*
X163721401Y-108521034D01*
X163859294Y-108779014D01*
X164044866Y-109005134D01*
X164270986Y-109190706D01*
X164325791Y-109220000D01*
X164270986Y-109249294D01*
X164044866Y-109434866D01*
X163859294Y-109660986D01*
X163721401Y-109918966D01*
X163636487Y-110198889D01*
X163607815Y-110490000D01*
X163636487Y-110781111D01*
X163721401Y-111061034D01*
X163859294Y-111319014D01*
X164044866Y-111545134D01*
X164270986Y-111730706D01*
X164325791Y-111760000D01*
X164270986Y-111789294D01*
X164044866Y-111974866D01*
X163859294Y-112200986D01*
X163721401Y-112458966D01*
X163636487Y-112738889D01*
X163607815Y-113030000D01*
X163636487Y-113321111D01*
X163721401Y-113601034D01*
X163859294Y-113859014D01*
X164044866Y-114085134D01*
X164270986Y-114270706D01*
X164528966Y-114408599D01*
X164808889Y-114493513D01*
X165027050Y-114515000D01*
X165172950Y-114515000D01*
X165391111Y-114493513D01*
X165671034Y-114408599D01*
X165929014Y-114270706D01*
X166155134Y-114085134D01*
X166340706Y-113859014D01*
X166370000Y-113804209D01*
X166399294Y-113859014D01*
X166584866Y-114085134D01*
X166810986Y-114270706D01*
X167068966Y-114408599D01*
X167348889Y-114493513D01*
X167567050Y-114515000D01*
X167712950Y-114515000D01*
X167931111Y-114493513D01*
X168211034Y-114408599D01*
X168469014Y-114270706D01*
X168695134Y-114085134D01*
X168880706Y-113859014D01*
X169018599Y-113601034D01*
X169103513Y-113321111D01*
X169132185Y-113030000D01*
X169103513Y-112738889D01*
X169018599Y-112458966D01*
X168880706Y-112200986D01*
X168695134Y-111974866D01*
X168469014Y-111789294D01*
X168414209Y-111760000D01*
X168469014Y-111730706D01*
X168695134Y-111545134D01*
X168880706Y-111319014D01*
X169018599Y-111061034D01*
X169103513Y-110781111D01*
X169132185Y-110490000D01*
X169103513Y-110198889D01*
X169018599Y-109918966D01*
X168880706Y-109660986D01*
X168695134Y-109434866D01*
X168469014Y-109249294D01*
X168414209Y-109220000D01*
X168469014Y-109190706D01*
X168695134Y-109005134D01*
X168880706Y-108779014D01*
X169018599Y-108521034D01*
X169103513Y-108241111D01*
X169132185Y-107950000D01*
X169103513Y-107658889D01*
X169018599Y-107378966D01*
X168880706Y-107120986D01*
X168695134Y-106894866D01*
X168469014Y-106709294D01*
X168414209Y-106680000D01*
X168469014Y-106650706D01*
X168695134Y-106465134D01*
X168880706Y-106239014D01*
X169018599Y-105981034D01*
X169103513Y-105701111D01*
X169132185Y-105410000D01*
X169103513Y-105118889D01*
X169018599Y-104838966D01*
X168880706Y-104580986D01*
X168695134Y-104354866D01*
X168469014Y-104169294D01*
X168414209Y-104140000D01*
X168469014Y-104110706D01*
X168695134Y-103925134D01*
X168880706Y-103699014D01*
X169018599Y-103441034D01*
X169103513Y-103161111D01*
X169132185Y-102870000D01*
X169103513Y-102578889D01*
X169018599Y-102298966D01*
X168880706Y-102040986D01*
X168695134Y-101814866D01*
X168469014Y-101629294D01*
X168414209Y-101600000D01*
X168469014Y-101570706D01*
X168695134Y-101385134D01*
X168880706Y-101159014D01*
X169018599Y-100901034D01*
X169103513Y-100621111D01*
X169132185Y-100330000D01*
X169103513Y-100038889D01*
X169018599Y-99758966D01*
X168880706Y-99500986D01*
X168695134Y-99274866D01*
X168469014Y-99089294D01*
X168414209Y-99060000D01*
X168469014Y-99030706D01*
X168695134Y-98845134D01*
X168880706Y-98619014D01*
X169018599Y-98361034D01*
X169103513Y-98081111D01*
X169132185Y-97790000D01*
X169103513Y-97498889D01*
X169018599Y-97218966D01*
X168880706Y-96960986D01*
X168695134Y-96734866D01*
X168469014Y-96549294D01*
X168414209Y-96520000D01*
X168469014Y-96490706D01*
X168695134Y-96305134D01*
X168880706Y-96079014D01*
X169018599Y-95821034D01*
X169103513Y-95541111D01*
X169132185Y-95250000D01*
X169103513Y-94958889D01*
X169018599Y-94678966D01*
X168880706Y-94420986D01*
X168695134Y-94194866D01*
X168469014Y-94009294D01*
X168414209Y-93980000D01*
X168469014Y-93950706D01*
X168695134Y-93765134D01*
X168880706Y-93539014D01*
X169018599Y-93281034D01*
X169103513Y-93001111D01*
X169132185Y-92710000D01*
X169103513Y-92418889D01*
X169018599Y-92138966D01*
X168880706Y-91880986D01*
X168695134Y-91654866D01*
X168469014Y-91469294D01*
X168414209Y-91440000D01*
X168469014Y-91410706D01*
X168695134Y-91225134D01*
X168880706Y-90999014D01*
X169018599Y-90741034D01*
X169103513Y-90461111D01*
X169132185Y-90170000D01*
X169103513Y-89878889D01*
X169018599Y-89598966D01*
X168880706Y-89340986D01*
X168695134Y-89114866D01*
X168469014Y-88929294D01*
X168414209Y-88900000D01*
X168469014Y-88870706D01*
X168695134Y-88685134D01*
X168880706Y-88459014D01*
X169018599Y-88201034D01*
X169103513Y-87921111D01*
X169132185Y-87630000D01*
X169103513Y-87338889D01*
X169018599Y-87058966D01*
X168880706Y-86800986D01*
X168695134Y-86574866D01*
X168469014Y-86389294D01*
X168414209Y-86360000D01*
X168469014Y-86330706D01*
X168695134Y-86145134D01*
X168880706Y-85919014D01*
X169018599Y-85661034D01*
X169103513Y-85381111D01*
X169132185Y-85090000D01*
X169103513Y-84798889D01*
X169018599Y-84518966D01*
X168880706Y-84260986D01*
X168695134Y-84034866D01*
X168469014Y-83849294D01*
X168414209Y-83820000D01*
X168469014Y-83790706D01*
X168695134Y-83605134D01*
X168880706Y-83379014D01*
X169018599Y-83121034D01*
X169103513Y-82841111D01*
X169132185Y-82550000D01*
X169103513Y-82258889D01*
X169018599Y-81978966D01*
X168880706Y-81720986D01*
X168695134Y-81494866D01*
X168469014Y-81309294D01*
X168211034Y-81171401D01*
X167931111Y-81086487D01*
X167712950Y-81065000D01*
X167567050Y-81065000D01*
X167348889Y-81086487D01*
X167068966Y-81171401D01*
X166810986Y-81309294D01*
X166584866Y-81494866D01*
X166560393Y-81524687D01*
X166539502Y-81455820D01*
X166480537Y-81345506D01*
X166401185Y-81248815D01*
X166304494Y-81169463D01*
X166194180Y-81110498D01*
X166074482Y-81074188D01*
X165950000Y-81061928D01*
X164250000Y-81061928D01*
X164125518Y-81074188D01*
X164005820Y-81110498D01*
X163895506Y-81169463D01*
X163798815Y-81248815D01*
X163719463Y-81345506D01*
X163660498Y-81455820D01*
X163624188Y-81575518D01*
X163611928Y-81700000D01*
X163611928Y-83400000D01*
X163624188Y-83524482D01*
X163660498Y-83644180D01*
X163719463Y-83754494D01*
X163798815Y-83851185D01*
X163895506Y-83930537D01*
X164005820Y-83989502D01*
X164074687Y-84010393D01*
X164044866Y-84034866D01*
X163859294Y-84260986D01*
X163721401Y-84518966D01*
X163636487Y-84798889D01*
X163607815Y-85090000D01*
X142044802Y-85090000D01*
X141533804Y-84579003D01*
X141510001Y-84549999D01*
X141394276Y-84455026D01*
X141262247Y-84384454D01*
X141118986Y-84340997D01*
X141007333Y-84330000D01*
X141007322Y-84330000D01*
X140970000Y-84326324D01*
X140932678Y-84330000D01*
X138437595Y-84330000D01*
X138400706Y-84260986D01*
X138215134Y-84034866D01*
X137989014Y-83849294D01*
X137934209Y-83820000D01*
X137989014Y-83790706D01*
X138215134Y-83605134D01*
X138400706Y-83379014D01*
X138538599Y-83121034D01*
X138623513Y-82841111D01*
X138652185Y-82550000D01*
X143338057Y-82550000D01*
X143365764Y-82831309D01*
X143447818Y-83101808D01*
X143581068Y-83351101D01*
X143760392Y-83569608D01*
X143978899Y-83748932D01*
X144228192Y-83882182D01*
X144498691Y-83964236D01*
X144709508Y-83985000D01*
X144850492Y-83985000D01*
X145061309Y-83964236D01*
X145331808Y-83882182D01*
X145581101Y-83748932D01*
X145799608Y-83569608D01*
X145978932Y-83351101D01*
X146112182Y-83101808D01*
X146194236Y-82831309D01*
X146221943Y-82550000D01*
X146208023Y-82408665D01*
X153505000Y-82408665D01*
X153505000Y-82691335D01*
X153560147Y-82968574D01*
X153668320Y-83229727D01*
X153825363Y-83464759D01*
X154025241Y-83664637D01*
X154260273Y-83821680D01*
X154521426Y-83929853D01*
X154798665Y-83985000D01*
X155081335Y-83985000D01*
X155358574Y-83929853D01*
X155619727Y-83821680D01*
X155854759Y-83664637D01*
X156054637Y-83464759D01*
X156211680Y-83229727D01*
X156319853Y-82968574D01*
X156375000Y-82691335D01*
X156375000Y-82550000D01*
X158578057Y-82550000D01*
X158605764Y-82831309D01*
X158687818Y-83101808D01*
X158821068Y-83351101D01*
X159000392Y-83569608D01*
X159218899Y-83748932D01*
X159468192Y-83882182D01*
X159738691Y-83964236D01*
X159949508Y-83985000D01*
X160090492Y-83985000D01*
X160301309Y-83964236D01*
X160571808Y-83882182D01*
X160821101Y-83748932D01*
X161039608Y-83569608D01*
X161218932Y-83351101D01*
X161352182Y-83101808D01*
X161434236Y-82831309D01*
X161461943Y-82550000D01*
X161434236Y-82268691D01*
X161352182Y-81998192D01*
X161218932Y-81748899D01*
X161039608Y-81530392D01*
X160821101Y-81351068D01*
X160571808Y-81217818D01*
X160301309Y-81135764D01*
X160090492Y-81115000D01*
X159949508Y-81115000D01*
X159738691Y-81135764D01*
X159468192Y-81217818D01*
X159218899Y-81351068D01*
X159000392Y-81530392D01*
X158821068Y-81748899D01*
X158687818Y-81998192D01*
X158605764Y-82268691D01*
X158578057Y-82550000D01*
X156375000Y-82550000D01*
X156375000Y-82408665D01*
X156319853Y-82131426D01*
X156211680Y-81870273D01*
X156054637Y-81635241D01*
X155854759Y-81435363D01*
X155619727Y-81278320D01*
X155358574Y-81170147D01*
X155081335Y-81115000D01*
X154798665Y-81115000D01*
X154521426Y-81170147D01*
X154260273Y-81278320D01*
X154025241Y-81435363D01*
X153825363Y-81635241D01*
X153668320Y-81870273D01*
X153560147Y-82131426D01*
X153505000Y-82408665D01*
X146208023Y-82408665D01*
X146194236Y-82268691D01*
X146112182Y-81998192D01*
X145978932Y-81748899D01*
X145799608Y-81530392D01*
X145581101Y-81351068D01*
X145331808Y-81217818D01*
X145061309Y-81135764D01*
X144850492Y-81115000D01*
X144709508Y-81115000D01*
X144498691Y-81135764D01*
X144228192Y-81217818D01*
X143978899Y-81351068D01*
X143760392Y-81530392D01*
X143581068Y-81748899D01*
X143447818Y-81998192D01*
X143365764Y-82268691D01*
X143338057Y-82550000D01*
X138652185Y-82550000D01*
X138623513Y-82258889D01*
X138538599Y-81978966D01*
X138400706Y-81720986D01*
X138215134Y-81494866D01*
X137989014Y-81309294D01*
X137731034Y-81171401D01*
X137451111Y-81086487D01*
X137232950Y-81065000D01*
X137087050Y-81065000D01*
X136868889Y-81086487D01*
X136588966Y-81171401D01*
X136330986Y-81309294D01*
X136104866Y-81494866D01*
X136080393Y-81524687D01*
X136059502Y-81455820D01*
X136000537Y-81345506D01*
X135921185Y-81248815D01*
X135824494Y-81169463D01*
X135714180Y-81110498D01*
X135594482Y-81074188D01*
X135470000Y-81061928D01*
X133770000Y-81061928D01*
X133645518Y-81074188D01*
X133525820Y-81110498D01*
X133415506Y-81169463D01*
X133318815Y-81248815D01*
X133239463Y-81345506D01*
X133180498Y-81455820D01*
X133144188Y-81575518D01*
X133131928Y-81700000D01*
X133131928Y-83400000D01*
X133144188Y-83524482D01*
X133180498Y-83644180D01*
X133239463Y-83754494D01*
X133318815Y-83851185D01*
X133415506Y-83930537D01*
X133525820Y-83989502D01*
X133594687Y-84010393D01*
X133564866Y-84034866D01*
X133379294Y-84260986D01*
X133241401Y-84518966D01*
X133156487Y-84798889D01*
X133127815Y-85090000D01*
X132207000Y-85090000D01*
X132207000Y-80137000D01*
X170053000Y-80137000D01*
X170053000Y-116713000D01*
X170053000Y-116713000D01*
G37*
X170053000Y-116713000D02*
X140569254Y-116713000D01*
X140719608Y-116589608D01*
X140898932Y-116371101D01*
X141032182Y-116121808D01*
X141114236Y-115851309D01*
X141141943Y-115570000D01*
X141114236Y-115288691D01*
X141032182Y-115018192D01*
X140898932Y-114768899D01*
X140719608Y-114550392D01*
X140501101Y-114371068D01*
X140251808Y-114237818D01*
X139981309Y-114155764D01*
X139770492Y-114135000D01*
X139629508Y-114135000D01*
X139418691Y-114155764D01*
X139148192Y-114237818D01*
X138898899Y-114371068D01*
X138680392Y-114550392D01*
X138501068Y-114768899D01*
X138367818Y-115018192D01*
X138285764Y-115288691D01*
X138258057Y-115570000D01*
X138285764Y-115851309D01*
X138367818Y-116121808D01*
X138501068Y-116371101D01*
X138680392Y-116589608D01*
X138830746Y-116713000D01*
X135489254Y-116713000D01*
X135639608Y-116589608D01*
X135818932Y-116371101D01*
X135952182Y-116121808D01*
X136034236Y-115851309D01*
X136061943Y-115570000D01*
X136034236Y-115288691D01*
X135952182Y-115018192D01*
X135818932Y-114768899D01*
X135639608Y-114550392D01*
X135421101Y-114371068D01*
X135171808Y-114237818D01*
X134901309Y-114155764D01*
X134690492Y-114135000D01*
X134549508Y-114135000D01*
X134338691Y-114155764D01*
X134068192Y-114237818D01*
X133818899Y-114371068D01*
X133600392Y-114550392D01*
X133421068Y-114768899D01*
X133287818Y-115018192D01*
X133205764Y-115288691D01*
X133178057Y-115570000D01*
X133205764Y-115851309D01*
X133287818Y-116121808D01*
X133421068Y-116371101D01*
X133600392Y-116589608D01*
X133750746Y-116713000D01*
X132207000Y-116713000D01*
X132207000Y-105268665D01*
X133185000Y-105268665D01*
X133185000Y-105551335D01*
X133240147Y-105828574D01*
X133348320Y-106089727D01*
X133505363Y-106324759D01*
X133705241Y-106524637D01*
X133940273Y-106681680D01*
X134201426Y-106789853D01*
X134478665Y-106845000D01*
X134761335Y-106845000D01*
X135038574Y-106789853D01*
X135299727Y-106681680D01*
X135534759Y-106524637D01*
X135656694Y-106402702D01*
X138886903Y-106402702D01*
X138958486Y-106646671D01*
X139213996Y-106767571D01*
X139488184Y-106836300D01*
X139770512Y-106850217D01*
X140050130Y-106808787D01*
X140316292Y-106713603D01*
X140441514Y-106646671D01*
X140513097Y-106402702D01*
X139700000Y-105589605D01*
X138886903Y-106402702D01*
X135656694Y-106402702D01*
X135734637Y-106324759D01*
X135891680Y-106089727D01*
X135999853Y-105828574D01*
X136055000Y-105551335D01*
X136055000Y-105480512D01*
X138259783Y-105480512D01*
X138301213Y-105760130D01*
X138396397Y-106026292D01*
X138463329Y-106151514D01*
X138707298Y-106223097D01*
X139520395Y-105410000D01*
X139879605Y-105410000D01*
X140692702Y-106223097D01*
X140936671Y-106151514D01*
X141057571Y-105896004D01*
X141126300Y-105621816D01*
X141140217Y-105339488D01*
X141098787Y-105059870D01*
X141003603Y-104793708D01*
X140936671Y-104668486D01*
X140692702Y-104596903D01*
X139879605Y-105410000D01*
X139520395Y-105410000D01*
X138707298Y-104596903D01*
X138463329Y-104668486D01*
X138342429Y-104923996D01*
X138273700Y-105198184D01*
X138259783Y-105480512D01*
X136055000Y-105480512D01*
X136055000Y-105268665D01*
X135999853Y-104991426D01*
X135891680Y-104730273D01*
X135734637Y-104495241D01*
X135656694Y-104417298D01*
X138886903Y-104417298D01*
X139700000Y-105230395D01*
X140513097Y-104417298D01*
X140441514Y-104173329D01*
X140186004Y-104052429D01*
X139911816Y-103983700D01*
X139629488Y-103969783D01*
X139349870Y-104011213D01*
X139083708Y-104106397D01*
X138958486Y-104173329D01*
X138886903Y-104417298D01*
X135656694Y-104417298D01*
X135534759Y-104295363D01*
X135299727Y-104138320D01*
X135038574Y-104030147D01*
X134761335Y-103975000D01*
X134478665Y-103975000D01*
X134201426Y-104030147D01*
X133940273Y-104138320D01*
X133705241Y-104295363D01*
X133505363Y-104495241D01*
X133348320Y-104730273D01*
X133240147Y-104991426D01*
X133185000Y-105268665D01*
X132207000Y-105268665D01*
X132207000Y-100330000D01*
X133127815Y-100330000D01*
X133156487Y-100621111D01*
X133241401Y-100901034D01*
X133379294Y-101159014D01*
X133564866Y-101385134D01*
X133790986Y-101570706D01*
X134048966Y-101708599D01*
X134328889Y-101793513D01*
X134547050Y-101815000D01*
X134692950Y-101815000D01*
X134911111Y-101793513D01*
X135191034Y-101708599D01*
X135449014Y-101570706D01*
X135675134Y-101385134D01*
X135860706Y-101159014D01*
X135891584Y-101101244D01*
X136062412Y-101330269D01*
X136278645Y-101525178D01*
X136528748Y-101674157D01*
X136803109Y-101771481D01*
X137033000Y-101650814D01*
X137033000Y-100457000D01*
X137287000Y-100457000D01*
X137287000Y-101650814D01*
X137516891Y-101771481D01*
X137791252Y-101674157D01*
X138041355Y-101525178D01*
X138257588Y-101330269D01*
X138431641Y-101096920D01*
X138556825Y-100834099D01*
X138601476Y-100686890D01*
X138480155Y-100457000D01*
X137287000Y-100457000D01*
X137033000Y-100457000D01*
X137013000Y-100457000D01*
X137013000Y-100203000D01*
X137033000Y-100203000D01*
X137033000Y-97917000D01*
X137287000Y-97917000D01*
X137287000Y-100203000D01*
X138480155Y-100203000D01*
X138601476Y-99973110D01*
X138556825Y-99825901D01*
X138431641Y-99563080D01*
X138257588Y-99329731D01*
X138041355Y-99134822D01*
X137915745Y-99060000D01*
X138041355Y-98985178D01*
X138257588Y-98790269D01*
X138431641Y-98556920D01*
X138556825Y-98294099D01*
X138601476Y-98146890D01*
X138480155Y-97917000D01*
X137287000Y-97917000D01*
X137033000Y-97917000D01*
X137013000Y-97917000D01*
X137013000Y-97663000D01*
X137033000Y-97663000D01*
X137033000Y-96469186D01*
X137287000Y-96469186D01*
X137287000Y-97663000D01*
X138480155Y-97663000D01*
X138601476Y-97433110D01*
X138556825Y-97285901D01*
X138431641Y-97023080D01*
X138257588Y-96789731D01*
X138041355Y-96594822D01*
X137791252Y-96445843D01*
X137516891Y-96348519D01*
X137287000Y-96469186D01*
X137033000Y-96469186D01*
X136803109Y-96348519D01*
X136528748Y-96445843D01*
X136278645Y-96594822D01*
X136082498Y-96771626D01*
X136059502Y-96695820D01*
X136000537Y-96585506D01*
X135921185Y-96488815D01*
X135824494Y-96409463D01*
X135714180Y-96350498D01*
X135594482Y-96314188D01*
X135470000Y-96301928D01*
X133770000Y-96301928D01*
X133645518Y-96314188D01*
X133525820Y-96350498D01*
X133415506Y-96409463D01*
X133318815Y-96488815D01*
X133239463Y-96585506D01*
X133180498Y-96695820D01*
X133144188Y-96815518D01*
X133131928Y-96940000D01*
X133131928Y-98640000D01*
X133144188Y-98764482D01*
X133180498Y-98884180D01*
X133239463Y-98994494D01*
X133318815Y-99091185D01*
X133415506Y-99170537D01*
X133525820Y-99229502D01*
X133594687Y-99250393D01*
X133564866Y-99274866D01*
X133379294Y-99500986D01*
X133241401Y-99758966D01*
X133156487Y-100038889D01*
X133127815Y-100330000D01*
X132207000Y-100330000D01*
X132207000Y-92710000D01*
X133127815Y-92710000D01*
X133156487Y-93001111D01*
X133241401Y-93281034D01*
X133379294Y-93539014D01*
X133564866Y-93765134D01*
X133790986Y-93950706D01*
X134048966Y-94088599D01*
X134328889Y-94173513D01*
X134547050Y-94195000D01*
X134692950Y-94195000D01*
X134911111Y-94173513D01*
X135191034Y-94088599D01*
X135449014Y-93950706D01*
X135675134Y-93765134D01*
X135860706Y-93539014D01*
X135890000Y-93484209D01*
X135919294Y-93539014D01*
X136104866Y-93765134D01*
X136330986Y-93950706D01*
X136588966Y-94088599D01*
X136868889Y-94173513D01*
X137087050Y-94195000D01*
X137232950Y-94195000D01*
X137451111Y-94173513D01*
X137731034Y-94088599D01*
X137989014Y-93950706D01*
X138215134Y-93765134D01*
X138400706Y-93539014D01*
X138437595Y-93470000D01*
X140210000Y-93470000D01*
X140210001Y-95212658D01*
X140210000Y-95212668D01*
X140210001Y-100292668D01*
X140206324Y-100330000D01*
X140220998Y-100478985D01*
X140264454Y-100622246D01*
X140335026Y-100754276D01*
X140400536Y-100834099D01*
X140430000Y-100870001D01*
X140458998Y-100893799D01*
X142946205Y-103381008D01*
X142969999Y-103410001D01*
X142998992Y-103433795D01*
X142998996Y-103433799D01*
X143069685Y-103491811D01*
X143085724Y-103504974D01*
X143217753Y-103575546D01*
X143361014Y-103619003D01*
X143472667Y-103630000D01*
X143472676Y-103630000D01*
X143509999Y-103633676D01*
X143547322Y-103630000D01*
X144829099Y-103630000D01*
X144851068Y-103671101D01*
X145030392Y-103889608D01*
X145248899Y-104068932D01*
X145381858Y-104140000D01*
X145248899Y-104211068D01*
X145030392Y-104390392D01*
X144851068Y-104608899D01*
X144717818Y-104858192D01*
X144635764Y-105128691D01*
X144608057Y-105410000D01*
X144635764Y-105691309D01*
X144717818Y-105961808D01*
X144851068Y-106211101D01*
X145030392Y-106429608D01*
X145248899Y-106608932D01*
X145381858Y-106680000D01*
X145248899Y-106751068D01*
X145030392Y-106930392D01*
X144851068Y-107148899D01*
X144717818Y-107398192D01*
X144635764Y-107668691D01*
X144608057Y-107950000D01*
X144635764Y-108231309D01*
X144717818Y-108501808D01*
X144851068Y-108751101D01*
X145030392Y-108969608D01*
X145248899Y-109148932D01*
X145498192Y-109282182D01*
X145768691Y-109364236D01*
X145979508Y-109385000D01*
X146120492Y-109385000D01*
X146331309Y-109364236D01*
X146601808Y-109282182D01*
X146851101Y-109148932D01*
X147069608Y-108969608D01*
X147248932Y-108751101D01*
X147382182Y-108501808D01*
X147464236Y-108231309D01*
X147491943Y-107950000D01*
X147464236Y-107668691D01*
X147382182Y-107398192D01*
X147249521Y-107150000D01*
X152231928Y-107150000D01*
X152231928Y-108750000D01*
X152244188Y-108874482D01*
X152280498Y-108994180D01*
X152339463Y-109104494D01*
X152418815Y-109201185D01*
X152515506Y-109280537D01*
X152625820Y-109339502D01*
X152745518Y-109375812D01*
X152870000Y-109388072D01*
X154470000Y-109388072D01*
X154594482Y-109375812D01*
X154714180Y-109339502D01*
X154824494Y-109280537D01*
X154921185Y-109201185D01*
X155000537Y-109104494D01*
X155059502Y-108994180D01*
X155095812Y-108874482D01*
X155108072Y-108750000D01*
X155108072Y-107808665D01*
X158585000Y-107808665D01*
X158585000Y-108091335D01*
X158640147Y-108368574D01*
X158748320Y-108629727D01*
X158905363Y-108864759D01*
X159105241Y-109064637D01*
X159340273Y-109221680D01*
X159601426Y-109329853D01*
X159878665Y-109385000D01*
X160161335Y-109385000D01*
X160438574Y-109329853D01*
X160699727Y-109221680D01*
X160934759Y-109064637D01*
X161134637Y-108864759D01*
X161291680Y-108629727D01*
X161399853Y-108368574D01*
X161455000Y-108091335D01*
X161455000Y-107808665D01*
X161399853Y-107531426D01*
X161291680Y-107270273D01*
X161134637Y-107035241D01*
X160934759Y-106835363D01*
X160699727Y-106678320D01*
X160438574Y-106570147D01*
X160161335Y-106515000D01*
X159878665Y-106515000D01*
X159601426Y-106570147D01*
X159340273Y-106678320D01*
X159105241Y-106835363D01*
X158905363Y-107035241D01*
X158748320Y-107270273D01*
X158640147Y-107531426D01*
X158585000Y-107808665D01*
X155108072Y-107808665D01*
X155108072Y-107150000D01*
X155095812Y-107025518D01*
X155059502Y-106905820D01*
X155000537Y-106795506D01*
X154921185Y-106698815D01*
X154824494Y-106619463D01*
X154714180Y-106560498D01*
X154594482Y-106524188D01*
X154569920Y-106521769D01*
X154733519Y-106373414D01*
X154901037Y-106147420D01*
X155021246Y-105893087D01*
X155061904Y-105759039D01*
X154939915Y-105537000D01*
X153797000Y-105537000D01*
X153797000Y-105557000D01*
X153543000Y-105557000D01*
X153543000Y-105537000D01*
X152400085Y-105537000D01*
X152278096Y-105759039D01*
X152318754Y-105893087D01*
X152438963Y-106147420D01*
X152606481Y-106373414D01*
X152770080Y-106521769D01*
X152745518Y-106524188D01*
X152625820Y-106560498D01*
X152515506Y-106619463D01*
X152418815Y-106698815D01*
X152339463Y-106795506D01*
X152280498Y-106905820D01*
X152244188Y-107025518D01*
X152231928Y-107150000D01*
X147249521Y-107150000D01*
X147248932Y-107148899D01*
X147069608Y-106930392D01*
X146851101Y-106751068D01*
X146718142Y-106680000D01*
X146851101Y-106608932D01*
X147069608Y-106429608D01*
X147248932Y-106211101D01*
X147382182Y-105961808D01*
X147464236Y-105691309D01*
X147491943Y-105410000D01*
X147464236Y-105128691D01*
X147382182Y-104858192D01*
X147248932Y-104608899D01*
X147069608Y-104390392D01*
X146851101Y-104211068D01*
X146718142Y-104140000D01*
X146851101Y-104068932D01*
X147069608Y-103889608D01*
X147248932Y-103671101D01*
X147382182Y-103421808D01*
X147464236Y-103151309D01*
X147491943Y-102870000D01*
X152228057Y-102870000D01*
X152255764Y-103151309D01*
X152337818Y-103421808D01*
X152471068Y-103671101D01*
X152650392Y-103889608D01*
X152868899Y-104068932D01*
X153006682Y-104142579D01*
X152814869Y-104257615D01*
X152606481Y-104446586D01*
X152438963Y-104672580D01*
X152318754Y-104926913D01*
X152278096Y-105060961D01*
X152400085Y-105283000D01*
X153543000Y-105283000D01*
X153543000Y-105263000D01*
X153797000Y-105263000D01*
X153797000Y-105283000D01*
X154939915Y-105283000D01*
X155061904Y-105060961D01*
X155021246Y-104926913D01*
X154901037Y-104672580D01*
X154733519Y-104446586D01*
X154525131Y-104257615D01*
X154333318Y-104142579D01*
X154471101Y-104068932D01*
X154689608Y-103889608D01*
X154868932Y-103671101D01*
X155002182Y-103421808D01*
X155084236Y-103151309D01*
X155111943Y-102870000D01*
X155084236Y-102588691D01*
X155002182Y-102318192D01*
X154868932Y-102068899D01*
X154689608Y-101850392D01*
X154471101Y-101671068D01*
X154221808Y-101537818D01*
X153951309Y-101455764D01*
X153740492Y-101435000D01*
X153599508Y-101435000D01*
X153388691Y-101455764D01*
X153118192Y-101537818D01*
X152868899Y-101671068D01*
X152650392Y-101850392D01*
X152471068Y-102068899D01*
X152337818Y-102318192D01*
X152255764Y-102588691D01*
X152228057Y-102870000D01*
X147491943Y-102870000D01*
X147464236Y-102588691D01*
X147382182Y-102318192D01*
X147248932Y-102068899D01*
X147069608Y-101850392D01*
X146851101Y-101671068D01*
X146601808Y-101537818D01*
X146331309Y-101455764D01*
X146120492Y-101435000D01*
X145979508Y-101435000D01*
X145768691Y-101455764D01*
X145498192Y-101537818D01*
X145248899Y-101671068D01*
X145030392Y-101850392D01*
X144851068Y-102068899D01*
X144829099Y-102110000D01*
X143824803Y-102110000D01*
X141730000Y-100015199D01*
X141730000Y-97790000D01*
X143338057Y-97790000D01*
X143365764Y-98071309D01*
X143447818Y-98341808D01*
X143581068Y-98591101D01*
X143760392Y-98809608D01*
X143978899Y-98988932D01*
X144228192Y-99122182D01*
X144498691Y-99204236D01*
X144709508Y-99225000D01*
X144850492Y-99225000D01*
X145061309Y-99204236D01*
X145331808Y-99122182D01*
X145581101Y-98988932D01*
X145799608Y-98809608D01*
X145978932Y-98591101D01*
X146112182Y-98341808D01*
X146194236Y-98071309D01*
X146221943Y-97790000D01*
X146208023Y-97648665D01*
X153505000Y-97648665D01*
X153505000Y-97931335D01*
X153560147Y-98208574D01*
X153668320Y-98469727D01*
X153825363Y-98704759D01*
X154025241Y-98904637D01*
X154260273Y-99061680D01*
X154521426Y-99169853D01*
X154798665Y-99225000D01*
X155081335Y-99225000D01*
X155358574Y-99169853D01*
X155619727Y-99061680D01*
X155854759Y-98904637D01*
X156054637Y-98704759D01*
X156211680Y-98469727D01*
X156319853Y-98208574D01*
X156375000Y-97931335D01*
X156375000Y-97790000D01*
X158578057Y-97790000D01*
X158605764Y-98071309D01*
X158687818Y-98341808D01*
X158821068Y-98591101D01*
X159000392Y-98809608D01*
X159218899Y-98988932D01*
X159468192Y-99122182D01*
X159738691Y-99204236D01*
X159949508Y-99225000D01*
X160090492Y-99225000D01*
X160301309Y-99204236D01*
X160571808Y-99122182D01*
X160821101Y-98988932D01*
X161039608Y-98809608D01*
X161218932Y-98591101D01*
X161352182Y-98341808D01*
X161434236Y-98071309D01*
X161461943Y-97790000D01*
X161434236Y-97508691D01*
X161352182Y-97238192D01*
X161218932Y-96988899D01*
X161039608Y-96770392D01*
X160821101Y-96591068D01*
X160571808Y-96457818D01*
X160301309Y-96375764D01*
X160090492Y-96355000D01*
X159949508Y-96355000D01*
X159738691Y-96375764D01*
X159468192Y-96457818D01*
X159218899Y-96591068D01*
X159000392Y-96770392D01*
X158821068Y-96988899D01*
X158687818Y-97238192D01*
X158605764Y-97508691D01*
X158578057Y-97790000D01*
X156375000Y-97790000D01*
X156375000Y-97648665D01*
X156319853Y-97371426D01*
X156211680Y-97110273D01*
X156054637Y-96875241D01*
X155854759Y-96675363D01*
X155619727Y-96518320D01*
X155358574Y-96410147D01*
X155081335Y-96355000D01*
X154798665Y-96355000D01*
X154521426Y-96410147D01*
X154260273Y-96518320D01*
X154025241Y-96675363D01*
X153825363Y-96875241D01*
X153668320Y-97110273D01*
X153560147Y-97371426D01*
X153505000Y-97648665D01*
X146208023Y-97648665D01*
X146194236Y-97508691D01*
X146112182Y-97238192D01*
X145978932Y-96988899D01*
X145799608Y-96770392D01*
X145581101Y-96591068D01*
X145331808Y-96457818D01*
X145061309Y-96375764D01*
X144850492Y-96355000D01*
X144709508Y-96355000D01*
X144498691Y-96375764D01*
X144228192Y-96457818D01*
X143978899Y-96591068D01*
X143760392Y-96770392D01*
X143581068Y-96988899D01*
X143447818Y-97238192D01*
X143365764Y-97508691D01*
X143338057Y-97790000D01*
X141730000Y-97790000D01*
X141730000Y-92747333D01*
X141733677Y-92710000D01*
X141719003Y-92561014D01*
X141675546Y-92417753D01*
X141604974Y-92285724D01*
X141510001Y-92169999D01*
X141394276Y-92075026D01*
X141262247Y-92004454D01*
X141118986Y-91960997D01*
X141007333Y-91950000D01*
X140970000Y-91946323D01*
X140932667Y-91950000D01*
X138437595Y-91950000D01*
X138400706Y-91880986D01*
X138215134Y-91654866D01*
X137989014Y-91469294D01*
X137934209Y-91440000D01*
X137989014Y-91410706D01*
X138215134Y-91225134D01*
X138400706Y-90999014D01*
X138538599Y-90741034D01*
X138623513Y-90461111D01*
X138652185Y-90170000D01*
X138623513Y-89878889D01*
X138538599Y-89598966D01*
X138400706Y-89340986D01*
X138215134Y-89114866D01*
X137989014Y-88929294D01*
X137731034Y-88791401D01*
X137451111Y-88706487D01*
X137232950Y-88685000D01*
X137087050Y-88685000D01*
X136868889Y-88706487D01*
X136588966Y-88791401D01*
X136330986Y-88929294D01*
X136104866Y-89114866D01*
X136080393Y-89144687D01*
X136059502Y-89075820D01*
X136000537Y-88965506D01*
X135921185Y-88868815D01*
X135824494Y-88789463D01*
X135714180Y-88730498D01*
X135594482Y-88694188D01*
X135470000Y-88681928D01*
X133770000Y-88681928D01*
X133645518Y-88694188D01*
X133525820Y-88730498D01*
X133415506Y-88789463D01*
X133318815Y-88868815D01*
X133239463Y-88965506D01*
X133180498Y-89075820D01*
X133144188Y-89195518D01*
X133131928Y-89320000D01*
X133131928Y-91020000D01*
X133144188Y-91144482D01*
X133180498Y-91264180D01*
X133239463Y-91374494D01*
X133318815Y-91471185D01*
X133415506Y-91550537D01*
X133525820Y-91609502D01*
X133594687Y-91630393D01*
X133564866Y-91654866D01*
X133379294Y-91880986D01*
X133241401Y-92138966D01*
X133156487Y-92418889D01*
X133127815Y-92710000D01*
X132207000Y-92710000D01*
X132207000Y-85090000D01*
X133127815Y-85090000D01*
X133156487Y-85381111D01*
X133241401Y-85661034D01*
X133379294Y-85919014D01*
X133564866Y-86145134D01*
X133790986Y-86330706D01*
X134048966Y-86468599D01*
X134328889Y-86553513D01*
X134547050Y-86575000D01*
X134692950Y-86575000D01*
X134911111Y-86553513D01*
X135191034Y-86468599D01*
X135449014Y-86330706D01*
X135675134Y-86145134D01*
X135860706Y-85919014D01*
X135890000Y-85864209D01*
X135919294Y-85919014D01*
X136104866Y-86145134D01*
X136330986Y-86330706D01*
X136588966Y-86468599D01*
X136868889Y-86553513D01*
X137087050Y-86575000D01*
X137232950Y-86575000D01*
X137451111Y-86553513D01*
X137731034Y-86468599D01*
X137989014Y-86330706D01*
X138215134Y-86145134D01*
X138400706Y-85919014D01*
X138437595Y-85850000D01*
X140655199Y-85850000D01*
X142946205Y-88141008D01*
X142969999Y-88170001D01*
X142998992Y-88193795D01*
X142998996Y-88193799D01*
X143069685Y-88251811D01*
X143085724Y-88264974D01*
X143217753Y-88335546D01*
X143361014Y-88379003D01*
X143472667Y-88390000D01*
X143472676Y-88390000D01*
X143509999Y-88393676D01*
X143547322Y-88390000D01*
X144829099Y-88390000D01*
X144851068Y-88431101D01*
X145030392Y-88649608D01*
X145248899Y-88828932D01*
X145381858Y-88900000D01*
X145248899Y-88971068D01*
X145030392Y-89150392D01*
X144851068Y-89368899D01*
X144717818Y-89618192D01*
X144635764Y-89888691D01*
X144608057Y-90170000D01*
X144635764Y-90451309D01*
X144717818Y-90721808D01*
X144851068Y-90971101D01*
X145030392Y-91189608D01*
X145248899Y-91368932D01*
X145381858Y-91440000D01*
X145248899Y-91511068D01*
X145030392Y-91690392D01*
X144851068Y-91908899D01*
X144717818Y-92158192D01*
X144635764Y-92428691D01*
X144608057Y-92710000D01*
X144635764Y-92991309D01*
X144717818Y-93261808D01*
X144851068Y-93511101D01*
X145030392Y-93729608D01*
X145248899Y-93908932D01*
X145498192Y-94042182D01*
X145768691Y-94124236D01*
X145979508Y-94145000D01*
X146120492Y-94145000D01*
X146331309Y-94124236D01*
X146601808Y-94042182D01*
X146851101Y-93908932D01*
X147069608Y-93729608D01*
X147248932Y-93511101D01*
X147382182Y-93261808D01*
X147464236Y-92991309D01*
X147491943Y-92710000D01*
X147464236Y-92428691D01*
X147382182Y-92158192D01*
X147249521Y-91910000D01*
X152231928Y-91910000D01*
X152231928Y-93510000D01*
X152244188Y-93634482D01*
X152280498Y-93754180D01*
X152339463Y-93864494D01*
X152418815Y-93961185D01*
X152515506Y-94040537D01*
X152625820Y-94099502D01*
X152745518Y-94135812D01*
X152870000Y-94148072D01*
X154470000Y-94148072D01*
X154594482Y-94135812D01*
X154714180Y-94099502D01*
X154824494Y-94040537D01*
X154921185Y-93961185D01*
X155000537Y-93864494D01*
X155059502Y-93754180D01*
X155095812Y-93634482D01*
X155108072Y-93510000D01*
X155108072Y-92568665D01*
X158585000Y-92568665D01*
X158585000Y-92851335D01*
X158640147Y-93128574D01*
X158748320Y-93389727D01*
X158905363Y-93624759D01*
X159105241Y-93824637D01*
X159340273Y-93981680D01*
X159601426Y-94089853D01*
X159878665Y-94145000D01*
X160161335Y-94145000D01*
X160438574Y-94089853D01*
X160699727Y-93981680D01*
X160934759Y-93824637D01*
X161134637Y-93624759D01*
X161291680Y-93389727D01*
X161399853Y-93128574D01*
X161455000Y-92851335D01*
X161455000Y-92568665D01*
X161399853Y-92291426D01*
X161291680Y-92030273D01*
X161134637Y-91795241D01*
X160934759Y-91595363D01*
X160699727Y-91438320D01*
X160438574Y-91330147D01*
X160161335Y-91275000D01*
X159878665Y-91275000D01*
X159601426Y-91330147D01*
X159340273Y-91438320D01*
X159105241Y-91595363D01*
X158905363Y-91795241D01*
X158748320Y-92030273D01*
X158640147Y-92291426D01*
X158585000Y-92568665D01*
X155108072Y-92568665D01*
X155108072Y-91910000D01*
X155095812Y-91785518D01*
X155059502Y-91665820D01*
X155000537Y-91555506D01*
X154921185Y-91458815D01*
X154824494Y-91379463D01*
X154714180Y-91320498D01*
X154594482Y-91284188D01*
X154569920Y-91281769D01*
X154733519Y-91133414D01*
X154901037Y-90907420D01*
X155021246Y-90653087D01*
X155061904Y-90519039D01*
X154939915Y-90297000D01*
X153797000Y-90297000D01*
X153797000Y-90317000D01*
X153543000Y-90317000D01*
X153543000Y-90297000D01*
X152400085Y-90297000D01*
X152278096Y-90519039D01*
X152318754Y-90653087D01*
X152438963Y-90907420D01*
X152606481Y-91133414D01*
X152770080Y-91281769D01*
X152745518Y-91284188D01*
X152625820Y-91320498D01*
X152515506Y-91379463D01*
X152418815Y-91458815D01*
X152339463Y-91555506D01*
X152280498Y-91665820D01*
X152244188Y-91785518D01*
X152231928Y-91910000D01*
X147249521Y-91910000D01*
X147248932Y-91908899D01*
X147069608Y-91690392D01*
X146851101Y-91511068D01*
X146718142Y-91440000D01*
X146851101Y-91368932D01*
X147069608Y-91189608D01*
X147248932Y-90971101D01*
X147382182Y-90721808D01*
X147464236Y-90451309D01*
X147491943Y-90170000D01*
X147464236Y-89888691D01*
X147382182Y-89618192D01*
X147248932Y-89368899D01*
X147069608Y-89150392D01*
X146851101Y-88971068D01*
X146718142Y-88900000D01*
X146851101Y-88828932D01*
X147069608Y-88649608D01*
X147248932Y-88431101D01*
X147382182Y-88181808D01*
X147464236Y-87911309D01*
X147491943Y-87630000D01*
X152228057Y-87630000D01*
X152255764Y-87911309D01*
X152337818Y-88181808D01*
X152471068Y-88431101D01*
X152650392Y-88649608D01*
X152868899Y-88828932D01*
X153006682Y-88902579D01*
X152814869Y-89017615D01*
X152606481Y-89206586D01*
X152438963Y-89432580D01*
X152318754Y-89686913D01*
X152278096Y-89820961D01*
X152400085Y-90043000D01*
X153543000Y-90043000D01*
X153543000Y-90023000D01*
X153797000Y-90023000D01*
X153797000Y-90043000D01*
X154939915Y-90043000D01*
X155061904Y-89820961D01*
X155021246Y-89686913D01*
X154901037Y-89432580D01*
X154733519Y-89206586D01*
X154525131Y-89017615D01*
X154333318Y-88902579D01*
X154471101Y-88828932D01*
X154689608Y-88649608D01*
X154868932Y-88431101D01*
X155002182Y-88181808D01*
X155084236Y-87911309D01*
X155111943Y-87630000D01*
X155084236Y-87348691D01*
X155002182Y-87078192D01*
X154868932Y-86828899D01*
X154689608Y-86610392D01*
X154471101Y-86431068D01*
X154221808Y-86297818D01*
X153951309Y-86215764D01*
X153740492Y-86195000D01*
X153599508Y-86195000D01*
X153388691Y-86215764D01*
X153118192Y-86297818D01*
X152868899Y-86431068D01*
X152650392Y-86610392D01*
X152471068Y-86828899D01*
X152337818Y-87078192D01*
X152255764Y-87348691D01*
X152228057Y-87630000D01*
X147491943Y-87630000D01*
X147464236Y-87348691D01*
X147382182Y-87078192D01*
X147248932Y-86828899D01*
X147069608Y-86610392D01*
X146851101Y-86431068D01*
X146601808Y-86297818D01*
X146331309Y-86215764D01*
X146120492Y-86195000D01*
X145979508Y-86195000D01*
X145768691Y-86215764D01*
X145498192Y-86297818D01*
X145248899Y-86431068D01*
X145030392Y-86610392D01*
X144851068Y-86828899D01*
X144829099Y-86870000D01*
X143824803Y-86870000D01*
X142044802Y-85090000D01*
X163607815Y-85090000D01*
X163636487Y-85381111D01*
X163721401Y-85661034D01*
X163859294Y-85919014D01*
X164044866Y-86145134D01*
X164270986Y-86330706D01*
X164325791Y-86360000D01*
X164270986Y-86389294D01*
X164044866Y-86574866D01*
X163859294Y-86800986D01*
X163721401Y-87058966D01*
X163636487Y-87338889D01*
X163607815Y-87630000D01*
X163636487Y-87921111D01*
X163721401Y-88201034D01*
X163859294Y-88459014D01*
X164044866Y-88685134D01*
X164270986Y-88870706D01*
X164325791Y-88900000D01*
X164270986Y-88929294D01*
X164044866Y-89114866D01*
X163859294Y-89340986D01*
X163721401Y-89598966D01*
X163636487Y-89878889D01*
X163607815Y-90170000D01*
X163636487Y-90461111D01*
X163721401Y-90741034D01*
X163859294Y-90999014D01*
X164044866Y-91225134D01*
X164270986Y-91410706D01*
X164335523Y-91445201D01*
X164218645Y-91514822D01*
X164002412Y-91709731D01*
X163828359Y-91943080D01*
X163703175Y-92205901D01*
X163658524Y-92353110D01*
X163779845Y-92583000D01*
X164973000Y-92583000D01*
X164973000Y-92563000D01*
X165227000Y-92563000D01*
X165227000Y-92583000D01*
X165247000Y-92583000D01*
X165247000Y-92837000D01*
X165227000Y-92837000D01*
X165227000Y-92857000D01*
X164973000Y-92857000D01*
X164973000Y-92837000D01*
X163779845Y-92837000D01*
X163658524Y-93066890D01*
X163703175Y-93214099D01*
X163828359Y-93476920D01*
X164002412Y-93710269D01*
X164218645Y-93905178D01*
X164335523Y-93974799D01*
X164270986Y-94009294D01*
X164044866Y-94194866D01*
X163859294Y-94420986D01*
X163721401Y-94678966D01*
X163636487Y-94958889D01*
X163607815Y-95250000D01*
X163636487Y-95541111D01*
X163721401Y-95821034D01*
X163859294Y-96079014D01*
X164044866Y-96305134D01*
X164270986Y-96490706D01*
X164325791Y-96520000D01*
X164270986Y-96549294D01*
X164044866Y-96734866D01*
X163859294Y-96960986D01*
X163721401Y-97218966D01*
X163636487Y-97498889D01*
X163607815Y-97790000D01*
X163636487Y-98081111D01*
X163721401Y-98361034D01*
X163859294Y-98619014D01*
X164044866Y-98845134D01*
X164270986Y-99030706D01*
X164325791Y-99060000D01*
X164270986Y-99089294D01*
X164044866Y-99274866D01*
X163859294Y-99500986D01*
X163721401Y-99758966D01*
X163636487Y-100038889D01*
X163607815Y-100330000D01*
X163636487Y-100621111D01*
X163721401Y-100901034D01*
X163859294Y-101159014D01*
X164044866Y-101385134D01*
X164270986Y-101570706D01*
X164325791Y-101600000D01*
X164270986Y-101629294D01*
X164044866Y-101814866D01*
X163859294Y-102040986D01*
X163721401Y-102298966D01*
X163636487Y-102578889D01*
X163607815Y-102870000D01*
X163636487Y-103161111D01*
X163721401Y-103441034D01*
X163859294Y-103699014D01*
X164044866Y-103925134D01*
X164270986Y-104110706D01*
X164325791Y-104140000D01*
X164270986Y-104169294D01*
X164044866Y-104354866D01*
X163859294Y-104580986D01*
X163721401Y-104838966D01*
X163636487Y-105118889D01*
X163607815Y-105410000D01*
X163636487Y-105701111D01*
X163721401Y-105981034D01*
X163859294Y-106239014D01*
X164044866Y-106465134D01*
X164270986Y-106650706D01*
X164325791Y-106680000D01*
X164270986Y-106709294D01*
X164044866Y-106894866D01*
X163859294Y-107120986D01*
X163721401Y-107378966D01*
X163636487Y-107658889D01*
X163607815Y-107950000D01*
X163636487Y-108241111D01*
X163721401Y-108521034D01*
X163859294Y-108779014D01*
X164044866Y-109005134D01*
X164270986Y-109190706D01*
X164325791Y-109220000D01*
X164270986Y-109249294D01*
X164044866Y-109434866D01*
X163859294Y-109660986D01*
X163721401Y-109918966D01*
X163636487Y-110198889D01*
X163607815Y-110490000D01*
X163636487Y-110781111D01*
X163721401Y-111061034D01*
X163859294Y-111319014D01*
X164044866Y-111545134D01*
X164270986Y-111730706D01*
X164325791Y-111760000D01*
X164270986Y-111789294D01*
X164044866Y-111974866D01*
X163859294Y-112200986D01*
X163721401Y-112458966D01*
X163636487Y-112738889D01*
X163607815Y-113030000D01*
X163636487Y-113321111D01*
X163721401Y-113601034D01*
X163859294Y-113859014D01*
X164044866Y-114085134D01*
X164270986Y-114270706D01*
X164528966Y-114408599D01*
X164808889Y-114493513D01*
X165027050Y-114515000D01*
X165172950Y-114515000D01*
X165391111Y-114493513D01*
X165671034Y-114408599D01*
X165929014Y-114270706D01*
X166155134Y-114085134D01*
X166340706Y-113859014D01*
X166370000Y-113804209D01*
X166399294Y-113859014D01*
X166584866Y-114085134D01*
X166810986Y-114270706D01*
X167068966Y-114408599D01*
X167348889Y-114493513D01*
X167567050Y-114515000D01*
X167712950Y-114515000D01*
X167931111Y-114493513D01*
X168211034Y-114408599D01*
X168469014Y-114270706D01*
X168695134Y-114085134D01*
X168880706Y-113859014D01*
X169018599Y-113601034D01*
X169103513Y-113321111D01*
X169132185Y-113030000D01*
X169103513Y-112738889D01*
X169018599Y-112458966D01*
X168880706Y-112200986D01*
X168695134Y-111974866D01*
X168469014Y-111789294D01*
X168414209Y-111760000D01*
X168469014Y-111730706D01*
X168695134Y-111545134D01*
X168880706Y-111319014D01*
X169018599Y-111061034D01*
X169103513Y-110781111D01*
X169132185Y-110490000D01*
X169103513Y-110198889D01*
X169018599Y-109918966D01*
X168880706Y-109660986D01*
X168695134Y-109434866D01*
X168469014Y-109249294D01*
X168414209Y-109220000D01*
X168469014Y-109190706D01*
X168695134Y-109005134D01*
X168880706Y-108779014D01*
X169018599Y-108521034D01*
X169103513Y-108241111D01*
X169132185Y-107950000D01*
X169103513Y-107658889D01*
X169018599Y-107378966D01*
X168880706Y-107120986D01*
X168695134Y-106894866D01*
X168469014Y-106709294D01*
X168414209Y-106680000D01*
X168469014Y-106650706D01*
X168695134Y-106465134D01*
X168880706Y-106239014D01*
X169018599Y-105981034D01*
X169103513Y-105701111D01*
X169132185Y-105410000D01*
X169103513Y-105118889D01*
X169018599Y-104838966D01*
X168880706Y-104580986D01*
X168695134Y-104354866D01*
X168469014Y-104169294D01*
X168414209Y-104140000D01*
X168469014Y-104110706D01*
X168695134Y-103925134D01*
X168880706Y-103699014D01*
X169018599Y-103441034D01*
X169103513Y-103161111D01*
X169132185Y-102870000D01*
X169103513Y-102578889D01*
X169018599Y-102298966D01*
X168880706Y-102040986D01*
X168695134Y-101814866D01*
X168469014Y-101629294D01*
X168414209Y-101600000D01*
X168469014Y-101570706D01*
X168695134Y-101385134D01*
X168880706Y-101159014D01*
X169018599Y-100901034D01*
X169103513Y-100621111D01*
X169132185Y-100330000D01*
X169103513Y-100038889D01*
X169018599Y-99758966D01*
X168880706Y-99500986D01*
X168695134Y-99274866D01*
X168469014Y-99089294D01*
X168414209Y-99060000D01*
X168469014Y-99030706D01*
X168695134Y-98845134D01*
X168880706Y-98619014D01*
X169018599Y-98361034D01*
X169103513Y-98081111D01*
X169132185Y-97790000D01*
X169103513Y-97498889D01*
X169018599Y-97218966D01*
X168880706Y-96960986D01*
X168695134Y-96734866D01*
X168469014Y-96549294D01*
X168414209Y-96520000D01*
X168469014Y-96490706D01*
X168695134Y-96305134D01*
X168880706Y-96079014D01*
X169018599Y-95821034D01*
X169103513Y-95541111D01*
X169132185Y-95250000D01*
X169103513Y-94958889D01*
X169018599Y-94678966D01*
X168880706Y-94420986D01*
X168695134Y-94194866D01*
X168469014Y-94009294D01*
X168414209Y-93980000D01*
X168469014Y-93950706D01*
X168695134Y-93765134D01*
X168880706Y-93539014D01*
X169018599Y-93281034D01*
X169103513Y-93001111D01*
X169132185Y-92710000D01*
X169103513Y-92418889D01*
X169018599Y-92138966D01*
X168880706Y-91880986D01*
X168695134Y-91654866D01*
X168469014Y-91469294D01*
X168414209Y-91440000D01*
X168469014Y-91410706D01*
X168695134Y-91225134D01*
X168880706Y-90999014D01*
X169018599Y-90741034D01*
X169103513Y-90461111D01*
X169132185Y-90170000D01*
X169103513Y-89878889D01*
X169018599Y-89598966D01*
X168880706Y-89340986D01*
X168695134Y-89114866D01*
X168469014Y-88929294D01*
X168414209Y-88900000D01*
X168469014Y-88870706D01*
X168695134Y-88685134D01*
X168880706Y-88459014D01*
X169018599Y-88201034D01*
X169103513Y-87921111D01*
X169132185Y-87630000D01*
X169103513Y-87338889D01*
X169018599Y-87058966D01*
X168880706Y-86800986D01*
X168695134Y-86574866D01*
X168469014Y-86389294D01*
X168414209Y-86360000D01*
X168469014Y-86330706D01*
X168695134Y-86145134D01*
X168880706Y-85919014D01*
X169018599Y-85661034D01*
X169103513Y-85381111D01*
X169132185Y-85090000D01*
X169103513Y-84798889D01*
X169018599Y-84518966D01*
X168880706Y-84260986D01*
X168695134Y-84034866D01*
X168469014Y-83849294D01*
X168414209Y-83820000D01*
X168469014Y-83790706D01*
X168695134Y-83605134D01*
X168880706Y-83379014D01*
X169018599Y-83121034D01*
X169103513Y-82841111D01*
X169132185Y-82550000D01*
X169103513Y-82258889D01*
X169018599Y-81978966D01*
X168880706Y-81720986D01*
X168695134Y-81494866D01*
X168469014Y-81309294D01*
X168211034Y-81171401D01*
X167931111Y-81086487D01*
X167712950Y-81065000D01*
X167567050Y-81065000D01*
X167348889Y-81086487D01*
X167068966Y-81171401D01*
X166810986Y-81309294D01*
X166584866Y-81494866D01*
X166560393Y-81524687D01*
X166539502Y-81455820D01*
X166480537Y-81345506D01*
X166401185Y-81248815D01*
X166304494Y-81169463D01*
X166194180Y-81110498D01*
X166074482Y-81074188D01*
X165950000Y-81061928D01*
X164250000Y-81061928D01*
X164125518Y-81074188D01*
X164005820Y-81110498D01*
X163895506Y-81169463D01*
X163798815Y-81248815D01*
X163719463Y-81345506D01*
X163660498Y-81455820D01*
X163624188Y-81575518D01*
X163611928Y-81700000D01*
X163611928Y-83400000D01*
X163624188Y-83524482D01*
X163660498Y-83644180D01*
X163719463Y-83754494D01*
X163798815Y-83851185D01*
X163895506Y-83930537D01*
X164005820Y-83989502D01*
X164074687Y-84010393D01*
X164044866Y-84034866D01*
X163859294Y-84260986D01*
X163721401Y-84518966D01*
X163636487Y-84798889D01*
X163607815Y-85090000D01*
X142044802Y-85090000D01*
X141533804Y-84579003D01*
X141510001Y-84549999D01*
X141394276Y-84455026D01*
X141262247Y-84384454D01*
X141118986Y-84340997D01*
X141007333Y-84330000D01*
X141007322Y-84330000D01*
X140970000Y-84326324D01*
X140932678Y-84330000D01*
X138437595Y-84330000D01*
X138400706Y-84260986D01*
X138215134Y-84034866D01*
X137989014Y-83849294D01*
X137934209Y-83820000D01*
X137989014Y-83790706D01*
X138215134Y-83605134D01*
X138400706Y-83379014D01*
X138538599Y-83121034D01*
X138623513Y-82841111D01*
X138652185Y-82550000D01*
X143338057Y-82550000D01*
X143365764Y-82831309D01*
X143447818Y-83101808D01*
X143581068Y-83351101D01*
X143760392Y-83569608D01*
X143978899Y-83748932D01*
X144228192Y-83882182D01*
X144498691Y-83964236D01*
X144709508Y-83985000D01*
X144850492Y-83985000D01*
X145061309Y-83964236D01*
X145331808Y-83882182D01*
X145581101Y-83748932D01*
X145799608Y-83569608D01*
X145978932Y-83351101D01*
X146112182Y-83101808D01*
X146194236Y-82831309D01*
X146221943Y-82550000D01*
X146208023Y-82408665D01*
X153505000Y-82408665D01*
X153505000Y-82691335D01*
X153560147Y-82968574D01*
X153668320Y-83229727D01*
X153825363Y-83464759D01*
X154025241Y-83664637D01*
X154260273Y-83821680D01*
X154521426Y-83929853D01*
X154798665Y-83985000D01*
X155081335Y-83985000D01*
X155358574Y-83929853D01*
X155619727Y-83821680D01*
X155854759Y-83664637D01*
X156054637Y-83464759D01*
X156211680Y-83229727D01*
X156319853Y-82968574D01*
X156375000Y-82691335D01*
X156375000Y-82550000D01*
X158578057Y-82550000D01*
X158605764Y-82831309D01*
X158687818Y-83101808D01*
X158821068Y-83351101D01*
X159000392Y-83569608D01*
X159218899Y-83748932D01*
X159468192Y-83882182D01*
X159738691Y-83964236D01*
X159949508Y-83985000D01*
X160090492Y-83985000D01*
X160301309Y-83964236D01*
X160571808Y-83882182D01*
X160821101Y-83748932D01*
X161039608Y-83569608D01*
X161218932Y-83351101D01*
X161352182Y-83101808D01*
X161434236Y-82831309D01*
X161461943Y-82550000D01*
X161434236Y-82268691D01*
X161352182Y-81998192D01*
X161218932Y-81748899D01*
X161039608Y-81530392D01*
X160821101Y-81351068D01*
X160571808Y-81217818D01*
X160301309Y-81135764D01*
X160090492Y-81115000D01*
X159949508Y-81115000D01*
X159738691Y-81135764D01*
X159468192Y-81217818D01*
X159218899Y-81351068D01*
X159000392Y-81530392D01*
X158821068Y-81748899D01*
X158687818Y-81998192D01*
X158605764Y-82268691D01*
X158578057Y-82550000D01*
X156375000Y-82550000D01*
X156375000Y-82408665D01*
X156319853Y-82131426D01*
X156211680Y-81870273D01*
X156054637Y-81635241D01*
X155854759Y-81435363D01*
X155619727Y-81278320D01*
X155358574Y-81170147D01*
X155081335Y-81115000D01*
X154798665Y-81115000D01*
X154521426Y-81170147D01*
X154260273Y-81278320D01*
X154025241Y-81435363D01*
X153825363Y-81635241D01*
X153668320Y-81870273D01*
X153560147Y-82131426D01*
X153505000Y-82408665D01*
X146208023Y-82408665D01*
X146194236Y-82268691D01*
X146112182Y-81998192D01*
X145978932Y-81748899D01*
X145799608Y-81530392D01*
X145581101Y-81351068D01*
X145331808Y-81217818D01*
X145061309Y-81135764D01*
X144850492Y-81115000D01*
X144709508Y-81115000D01*
X144498691Y-81135764D01*
X144228192Y-81217818D01*
X143978899Y-81351068D01*
X143760392Y-81530392D01*
X143581068Y-81748899D01*
X143447818Y-81998192D01*
X143365764Y-82268691D01*
X143338057Y-82550000D01*
X138652185Y-82550000D01*
X138623513Y-82258889D01*
X138538599Y-81978966D01*
X138400706Y-81720986D01*
X138215134Y-81494866D01*
X137989014Y-81309294D01*
X137731034Y-81171401D01*
X137451111Y-81086487D01*
X137232950Y-81065000D01*
X137087050Y-81065000D01*
X136868889Y-81086487D01*
X136588966Y-81171401D01*
X136330986Y-81309294D01*
X136104866Y-81494866D01*
X136080393Y-81524687D01*
X136059502Y-81455820D01*
X136000537Y-81345506D01*
X135921185Y-81248815D01*
X135824494Y-81169463D01*
X135714180Y-81110498D01*
X135594482Y-81074188D01*
X135470000Y-81061928D01*
X133770000Y-81061928D01*
X133645518Y-81074188D01*
X133525820Y-81110498D01*
X133415506Y-81169463D01*
X133318815Y-81248815D01*
X133239463Y-81345506D01*
X133180498Y-81455820D01*
X133144188Y-81575518D01*
X133131928Y-81700000D01*
X133131928Y-83400000D01*
X133144188Y-83524482D01*
X133180498Y-83644180D01*
X133239463Y-83754494D01*
X133318815Y-83851185D01*
X133415506Y-83930537D01*
X133525820Y-83989502D01*
X133594687Y-84010393D01*
X133564866Y-84034866D01*
X133379294Y-84260986D01*
X133241401Y-84518966D01*
X133156487Y-84798889D01*
X133127815Y-85090000D01*
X132207000Y-85090000D01*
X132207000Y-80137000D01*
X170053000Y-80137000D01*
X170053000Y-116713000D01*
M02*
